<?xml version="1.0" encoding="utf-8"?>
<!-- Generator: Adobe Illustrator 27.5.0, SVG Export Plug-In . SVG Version: 6.00 Build 0)  -->
<svg version="1.1" xmlns="http://www.w3.org/2000/svg" xmlns:xlink="http://www.w3.org/1999/xlink" x="0px" y="0px"
	 viewBox="0 0 750 500" style="enable-background:new 0 0 750 500;" xml:space="preserve">
<g id="BACKGROUND">
	<rect style="fill:#FFFFFF;" width="750" height="500"/>
</g>
<g id="OBJECTS">
	<rect y="399.772" style="fill:#B9DCF6;" width="750" height="100.228"/>
	<rect y="399.772" style="fill:#D9ECFB;" width="750" height="7.959"/>
	<g>
		<path style="fill:#FFF1E1;" d="M372.187,78.168c-179.815,0-325.583,145.769-325.583,325.583H697.77
			C697.77,223.937,552.001,78.168,372.187,78.168z"/>
		<polygon style="fill:#FFE5C0;" points="324.044,159.097 291.318,159.097 291.318,399.854 356.77,399.854 356.77,192.969 		"/>
		<polygon style="fill:#FFE5C0;" points="635.133,266.165 599.143,266.165 599.143,279.772 584.52,279.772 584.52,399.854 
			649.756,399.854 649.756,279.772 635.133,279.772 		"/>
		<polygon style="fill:#FFE5C0;" points="182.776,263.973 182.776,251.133 139.935,251.133 139.935,397.602 182.776,397.602 
			212.735,397.602 212.735,263.973 		"/>
		<g>
			<path style="fill:#FFE5C0;" d="M556.979,206.094v193.76h-72.879c0,0,0-77.816,0-128.284
				C484.101,221.103,556.979,206.094,556.979,206.094z"/>
			
				<rect x="517.282" y="251.133" transform="matrix(-1 -1.224647e-16 1.224647e-16 -1 1041.08 515.5336)" style="fill:#FFD092;" width="6.516" height="13.268"/>
			
				<rect x="496.476" y="251.133" transform="matrix(-1 -1.224647e-16 1.224647e-16 -1 999.4671 515.5336)" style="fill:#FFFFFF;" width="6.516" height="13.268"/>
			<rect x="538.089" y="251.133" style="fill:#FFD092;" width="6.516" height="13.268"/>
			
				<rect x="517.282" y="291.556" transform="matrix(-1 -1.224647e-16 1.224647e-16 -1 1041.08 596.3805)" style="fill:#FFFFFF;" width="6.516" height="13.268"/>
			
				<rect x="496.476" y="291.556" transform="matrix(-1 -1.224647e-16 1.224647e-16 -1 999.4671 596.3805)" style="fill:#FFD092;" width="6.516" height="13.268"/>
			<rect x="538.089" y="291.556" style="fill:#FFFFFF;" width="6.516" height="13.268"/>
			
				<rect x="517.282" y="331.98" transform="matrix(-1 -1.224647e-16 1.224647e-16 -1 1041.08 677.2274)" style="fill:#FFD092;" width="6.516" height="13.268"/>
			
				<rect x="496.476" y="331.98" transform="matrix(-1 -1.224647e-16 1.224647e-16 -1 999.4671 677.2274)" style="fill:#FFFFFF;" width="6.516" height="13.268"/>
			<rect x="538.089" y="331.98" style="fill:#FFD092;" width="6.516" height="13.268"/>
			
				<rect x="517.282" y="372.403" transform="matrix(-1 -1.224647e-16 1.224647e-16 -1 1041.08 758.0742)" style="fill:#FFFFFF;" width="6.516" height="13.268"/>
			
				<rect x="496.476" y="372.403" transform="matrix(-1 -1.224647e-16 1.224647e-16 -1 999.4671 758.0742)" style="fill:#FFD092;" width="6.516" height="13.268"/>
			<rect x="538.089" y="372.403" style="fill:#FFFFFF;" width="6.516" height="13.268"/>
			
				<rect x="523.798" y="235.943" transform="matrix(-1 -1.224647e-16 1.224647e-16 -1 1080.7771 476.0755)" style="fill:#FFD092;" width="33.181" height="4.189"/>
			
				<rect x="523.798" y="226.741" transform="matrix(-1 -1.224647e-16 1.224647e-16 -1 1080.7771 457.6708)" style="fill:#FFD092;" width="33.181" height="4.189"/>
		</g>
		<g>
			<polygon style="fill:#FFE5C0;" points="456.84,196.13 419.447,170.658 382.054,196.13 370.81,196.13 370.81,399.854 
				468.084,399.854 468.084,196.13 			"/>
			<rect x="415.66" y="208.496" style="fill:#FFFFFF;" width="7.573" height="15.421"/>
			<rect x="443.335" y="208.496" style="fill:#FFFFFF;" width="7.573" height="15.421"/>
			
				<rect x="387.986" y="208.496" transform="matrix(-1 -1.224647e-16 1.224647e-16 -1 783.5455 432.4134)" style="fill:#FFD092;" width="7.573" height="15.421"/>
			<rect x="415.66" y="248.92" style="fill:#FFFFFF;" width="7.573" height="15.421"/>
			<rect x="443.335" y="248.92" style="fill:#FFD092;" width="7.573" height="15.421"/>
			
				<rect x="387.986" y="248.92" transform="matrix(-1 -1.224647e-16 1.224647e-16 -1 783.5455 513.2603)" style="fill:#FFFFFF;" width="7.573" height="15.421"/>
			<rect x="415.66" y="289.343" style="fill:#FFD092;" width="7.573" height="15.421"/>
			<rect x="443.335" y="289.343" style="fill:#FFFFFF;" width="7.573" height="15.421"/>
			
				<rect x="387.986" y="289.343" transform="matrix(-1 -1.224647e-16 1.224647e-16 -1 783.5455 594.1072)" style="fill:#FFD092;" width="7.573" height="15.421"/>
			<rect x="415.66" y="329.767" style="fill:#FFFFFF;" width="7.573" height="15.421"/>
			<rect x="443.335" y="329.767" style="fill:#FFD092;" width="7.573" height="15.421"/>
			
				<rect x="387.986" y="329.767" transform="matrix(-1 -1.224647e-16 1.224647e-16 -1 783.5455 674.954)" style="fill:#FFFFFF;" width="7.573" height="15.421"/>
			<rect x="415.66" y="370.19" style="fill:#FFD092;" width="7.573" height="15.421"/>
			<rect x="443.335" y="370.19" style="fill:#FFD092;" width="7.573" height="15.421"/>
			
				<rect x="387.986" y="370.19" transform="matrix(-1 -1.224647e-16 1.224647e-16 -1 783.5455 755.8009)" style="fill:#FFFFFF;" width="7.573" height="15.421"/>
		</g>
		<g>
			<polygon style="fill:#FFE5C0;" points="246.218,223.58 274.916,223.58 290.43,233.347 290.43,399.854 212.879,399.854 
				212.879,233.347 212.879,202.68 			"/>
			
				<rect x="248.484" y="236.435" transform="matrix(-1 -1.224647e-16 1.224647e-16 -1 503.3094 486.3878)" style="fill:#FFD092;" width="6.341" height="13.518"/>
			
				<rect x="271.435" y="236.435" transform="matrix(-1 -1.224647e-16 1.224647e-16 -1 549.2106 486.3878)" style="fill:#FFD092;" width="6.341" height="13.518"/>
			<rect x="225.534" y="236.435" style="fill:#FFFFFF;" width="6.34" height="13.518"/>
			
				<rect x="248.484" y="271.619" transform="matrix(-1 -1.224647e-16 1.224647e-16 -1 503.3094 556.7557)" style="fill:#FFD092;" width="6.341" height="13.518"/>
			
				<rect x="271.435" y="271.619" transform="matrix(-1 -1.224647e-16 1.224647e-16 -1 549.2106 556.7557)" style="fill:#FFD092;" width="6.341" height="13.518"/>
			<rect x="225.534" y="271.619" style="fill:#FFD092;" width="6.34" height="13.518"/>
			
				<rect x="248.484" y="306.803" transform="matrix(-1 -1.224647e-16 1.224647e-16 -1 503.3094 627.1236)" style="fill:#FFD092;" width="6.341" height="13.518"/>
			
				<rect x="271.435" y="306.803" transform="matrix(-1 -1.224647e-16 1.224647e-16 -1 549.2106 627.1236)" style="fill:#FFD092;" width="6.341" height="13.518"/>
			<rect x="225.534" y="306.803" style="fill:#FFFFFF;" width="6.34" height="13.518"/>
			
				<rect x="248.484" y="341.987" transform="matrix(-1 -1.224647e-16 1.224647e-16 -1 503.3094 697.4915)" style="fill:#FFFFFF;" width="6.341" height="13.518"/>
			
				<rect x="271.435" y="341.987" transform="matrix(-1 -1.224647e-16 1.224647e-16 -1 549.2106 697.4915)" style="fill:#FFD092;" width="6.341" height="13.518"/>
			<rect x="225.534" y="341.987" style="fill:#FFD092;" width="6.34" height="13.518"/>
			
				<rect x="248.484" y="377.171" transform="matrix(-1 -1.224647e-16 1.224647e-16 -1 503.3094 767.8594)" style="fill:#FFD092;" width="6.341" height="13.518"/>
			
				<rect x="271.435" y="377.171" transform="matrix(-1 -1.224647e-16 1.224647e-16 -1 549.2106 767.8594)" style="fill:#FFFFFF;" width="6.341" height="13.518"/>
			<rect x="225.534" y="377.171" style="fill:#FFD092;" width="6.34" height="13.518"/>
		</g>
		<g>
			<polygon style="fill:#FFE5C0;" points="110.105,187.454 110.105,213.363 134.301,213.363 134.301,399.854 110.105,399.854 
				39.086,399.854 39.086,187.454 			"/>
			
				<rect x="83.037" y="223.422" transform="matrix(-1 -1.224647e-16 1.224647e-16 -1 173.3875 463.038)" style="fill:#FFD092;" width="7.313" height="16.194"/>
			
				<rect x="54.805" y="223.422" transform="matrix(-1 -1.224647e-16 1.224647e-16 -1 116.9234 463.038)" style="fill:#FFFFFF;" width="7.313" height="16.194"/>
			<rect x="111.269" y="223.422" style="fill:#FFFFFF;" width="7.313" height="16.194"/>
			
				<rect x="83.037" y="270.684" transform="matrix(-1 -1.224647e-16 1.224647e-16 -1 173.3875 557.5627)" style="fill:#FFFFFF;" width="7.313" height="16.194"/>
			
				<rect x="54.805" y="270.684" transform="matrix(-1 -1.224647e-16 1.224647e-16 -1 116.9234 557.5627)" style="fill:#FFD092;" width="7.313" height="16.194"/>
			<rect x="111.269" y="270.684" style="fill:#FFFFFF;" width="7.313" height="16.194"/>
			
				<rect x="83.037" y="317.947" transform="matrix(-1 -1.224647e-16 1.224647e-16 -1 173.3875 652.0874)" style="fill:#FFD092;" width="7.313" height="16.194"/>
			
				<rect x="54.805" y="317.947" transform="matrix(-1 -1.224647e-16 1.224647e-16 -1 116.9234 652.0874)" style="fill:#FFFFFF;" width="7.313" height="16.194"/>
			<rect x="111.269" y="317.947" style="fill:#FFD092;" width="7.313" height="16.194"/>
			
				<rect x="83.037" y="365.209" transform="matrix(-1 -1.224647e-16 1.224647e-16 -1 173.3875 746.6121)" style="fill:#FFFFFF;" width="7.313" height="16.194"/>
			
				<rect x="54.805" y="365.209" transform="matrix(-1 -1.224647e-16 1.224647e-16 -1 116.9234 746.6121)" style="fill:#FFD092;" width="7.313" height="16.194"/>
			<rect x="111.269" y="365.209" style="fill:#FFD092;" width="7.313" height="16.194"/>
			
				<rect x="50.208" y="195.697" transform="matrix(-1 -1.224647e-16 1.224647e-16 -1 149.7693 405.3596)" style="fill:#FFFFFF;" width="49.354" height="13.966"/>
		</g>
		<g>
			<rect x="640.294" y="224.172" style="fill:#FFE5C0;" width="67.585" height="175.682"/>
			<rect x="703.567" y="196.706" style="fill:#FFE5C0;" width="4.312" height="27.465"/>
			<rect x="649.396" y="233.484" style="fill:#FFD092;" width="5.895" height="13.054"/>
			
				<rect x="692.882" y="233.484" transform="matrix(-1 -1.224647e-16 1.224647e-16 -1 1391.6588 480.0217)" style="fill:#FFFFFF;" width="5.895" height="13.054"/>
			<rect x="671.139" y="233.484" style="fill:#FFD092;" width="5.895" height="13.054"/>
			<rect x="649.396" y="267.87" style="fill:#FFFFFF;" width="5.895" height="13.054"/>
			
				<rect x="692.882" y="267.87" transform="matrix(-1 -1.224647e-16 1.224647e-16 -1 1391.6588 548.7932)" style="fill:#FFD092;" width="5.895" height="13.054"/>
			<rect x="671.139" y="267.87" style="fill:#FFD092;" width="5.895" height="13.054"/>
			<rect x="649.396" y="302.255" style="fill:#FFFFFF;" width="5.895" height="13.054"/>
			
				<rect x="692.882" y="302.255" transform="matrix(-1 -1.224647e-16 1.224647e-16 -1 1391.6588 617.5647)" style="fill:#FFD092;" width="5.895" height="13.054"/>
			<rect x="671.139" y="302.255" style="fill:#FFD092;" width="5.895" height="13.054"/>
			<rect x="649.396" y="336.641" style="fill:#FFD092;" width="5.895" height="13.054"/>
			
				<rect x="692.882" y="336.641" transform="matrix(-1 -1.224647e-16 1.224647e-16 -1 1391.6588 686.3363)" style="fill:#FFFFFF;" width="5.895" height="13.054"/>
			<rect x="671.139" y="336.641" style="fill:#FFFFFF;" width="5.895" height="13.054"/>
			<rect x="649.396" y="371.027" style="fill:#FFD092;" width="5.895" height="13.054"/>
			
				<rect x="692.882" y="371.027" transform="matrix(-1 -1.224647e-16 1.224647e-16 -1 1391.6588 755.1078)" style="fill:#FFD092;" width="5.895" height="13.054"/>
			<rect x="671.139" y="371.027" style="fill:#FFD092;" width="5.895" height="13.054"/>
			<path style="fill:#FFE5C0;" d="M710.914,210.439c0,2.867-2.324,5.191-5.191,5.191s-5.191-2.324-5.191-5.191
				c0-2.867,2.324-5.191,5.191-5.191S710.914,207.573,710.914,210.439z"/>
		</g>
		<g>
			<g>
				<g>
					<rect x="307.036" y="223.948" style="fill:#D86B8C;" width="9.069" height="166.869"/>
				</g>
				<g>
					<path style="fill:#C14F7B;" d="M309.544,189.787l-2.508,4.289v29.872h4.534v-33.612
						C311.571,189.227,310.104,188.83,309.544,189.787z"/>
				</g>
				<g>
					<path style="fill:#EF8FAF;" d="M316.105,223.948c0,0,58.781,18.131,76.824,96.049c6.809,34.706-4.473,70.82-4.473,70.82
						h-72.351V223.948z"/>
				</g>
				<g>
					<path style="fill:#C14F7B;" d="M316.105,265.965h-13.183c-1.779,0-3.222-1.442-3.222-3.222l0,0
						c0-1.779,1.442-3.221,3.222-3.221h13.183V265.965z"/>
				</g>
				<g>
					<path style="fill:#C14F7B;" d="M366.807,265.965h13.183c1.779,0,3.221-1.442,3.221-3.222l0,0c0-1.779-1.442-3.221-3.221-3.221
						h-13.183V265.965z"/>
				</g>
				<g>
					<g>
						<path style="fill:#D86B8C;" d="M376.146,276.781h-60.041v5.728h63.192C378.272,280.538,377.22,278.629,376.146,276.781z"/>
					</g>
					<g>
						<path style="fill:#D86B8C;" d="M389.498,307.383h-73.393v5.728h75.081C390.65,311.159,390.084,309.254,389.498,307.383z"/>
					</g>
					<g>
						<path style="fill:#D86B8C;" d="M394.992,337.985h-78.887v5.728h79.007C395.11,341.824,395.072,339.913,394.992,337.985z"/>
					</g>
					<g>
						<path style="fill:#D86B8C;" d="M393.221,368.587h-77.116v5.728h76.176C392.605,372.516,392.923,370.6,393.221,368.587z"/>
					</g>
				</g>
				<g>
					<path style="fill:#D86B8C;" d="M323.218,240.426v25.539h32.959C356.178,265.965,344.207,248.337,323.218,240.426z"/>
				</g>
				<g>
					<g>
						<g>
							<path style="fill:#C14F7B;" d="M388.458,392.756c-0.192,0-0.386-0.028-0.578-0.089c-1.022-0.319-1.592-1.405-1.273-2.427
								c0.111-0.357,11.052-36.069,4.421-69.87c-9.165-39.571-29.192-63.182-44.376-76.009
								c-16.473-13.915-30.975-18.516-31.12-18.561c-1.021-0.317-1.594-1.402-1.278-2.424c0.316-1.022,1.398-1.595,2.423-1.28
								c0.615,0.189,15.267,4.813,32.323,19.174c15.691,13.212,36.377,37.519,45.819,78.289c6.838,34.854-4.044,70.343-4.51,71.836
								C390.048,392.225,389.283,392.756,388.458,392.756z"/>
						</g>
					</g>
					<g>
						<g>
							<path style="fill:#C14F7B;" d="M372.323,392.756c-0.079,0-0.16-0.004-0.242-0.015c-1.062-0.132-1.816-1.099-1.684-2.163
								c7.056-56.813-8.396-98.664-22.602-123.769c-15.41-27.232-32.725-41.207-32.898-41.344c-0.837-0.667-0.975-1.887-0.308-2.724
								c0.667-0.837,1.886-0.975,2.723-0.311c0.726,0.579,17.981,14.478,33.764,42.306c14.542,25.637,30.365,68.365,23.167,126.32
								C374.123,392.037,373.287,392.756,372.323,392.756z"/>
						</g>
					</g>
				</g>
				<g>
					<rect x="301.552" y="390.817" style="fill:#D86B8C;" width="98.357" height="9.037"/>
				</g>
				<g>
					<rect x="321.662" y="293.786" style="fill:#C14F7B;" width="19.506" height="1.318"/>
				</g>
				<g>
					<rect x="368.661" y="293.786" style="fill:#C14F7B;" width="14.551" height="1.318"/>
				</g>
				<g>
					<rect x="342.825" y="324.094" style="fill:#C14F7B;" width="27.033" height="1.317"/>
				</g>
				<g>
					<rect x="321.662" y="355.265" style="fill:#C14F7B;" width="19.506" height="1.317"/>
				</g>
				<g>
					<rect x="375.937" y="355.219" style="fill:#C14F7B;" width="11.024" height="1.318"/>
				</g>
				<g>
					<rect x="324.044" y="324.094" style="fill:#C14F7B;" width="8.502" height="1.317"/>
				</g>
				<g>
					<rect x="356.342" y="355.265" style="fill:#C14F7B;" width="9.658" height="1.317"/>
				</g>
				<g>
					<rect x="336.104" y="381.622" style="fill:#C14F7B;" width="20.238" height="1.317"/>
				</g>
				<g>
					<rect x="383.212" y="381.622" style="fill:#C14F7B;" width="7.451" height="1.317"/>
				</g>
			</g>
			<g>
				<g>
					<g>
						<g>
							<path style="fill:#A04299;" d="M658.286,186.692c-0.502,0-0.908-0.407-0.908-0.908v-21.928c0-0.501,0.406-0.908,0.908-0.908
								c0.502,0,0.908,0.406,0.908,0.908v21.928C659.193,186.285,658.787,186.692,658.286,186.692z"/>
						</g>
					</g>
				</g>
				<g>
					<g>
						<g>
							<circle style="fill:#A04299;" cx="658.286" cy="176.14" r="4.03"/>
						</g>
					</g>
				</g>
				<g>
					<g>
						<rect x="652.764" y="184.173" style="fill:#C361B7;" width="11.043" height="6.563"/>
					</g>
				</g>
				<g>
					<g>
						<path style="fill:#C361B7;" d="M658.286,369.725c15.315,0,28.001,13.069,30.243,30.129h20.647l-24.896-46.197h-25.994h-25.994
							l-24.896,46.197h20.647C630.285,382.795,642.971,369.725,658.286,369.725z"/>
					</g>
				</g>
				<g>
					<g>
						<path style="fill:#C361B7;" d="M682.996,345.26c0,0-13.818-18.993-18.062-105.567l-2.092-42.967h-4.556h-4.556l-2.092,42.967
							c-4.244,86.574-18.062,105.567-18.062,105.567h12.483c8.754-24.472,11.487-50.854,12.227-91.276
							c0.74,40.422,3.473,66.804,12.227,91.276H682.996z"/>
					</g>
				</g>
				<g>
					<g>
						<rect x="629.762" y="345.26" style="fill:#A04299;" width="57.049" height="9.684"/>
					</g>
				</g>
				<g>
					<g>
						<polygon style="fill:#A04299;" points="666.548,198.557 650.024,198.557 646.087,189.494 670.485,189.494 						"/>
					</g>
				</g>
				<g>
					<g>
						<rect x="657.078" y="347.455" style="fill:#DB83D5;" width="2.417" height="5.294"/>
					</g>
				</g>
				<g>
					<g>
						<rect x="664.325" y="347.455" style="fill:#DB83D5;" width="2.417" height="5.294"/>
					</g>
				</g>
				<g>
					<g>
						<rect x="671.573" y="347.455" style="fill:#DB83D5;" width="2.417" height="5.294"/>
					</g>
				</g>
				<g>
					<g>
						<rect x="678.82" y="347.455" style="fill:#DB83D5;" width="2.417" height="5.294"/>
					</g>
				</g>
				<g>
					<g>
						
							<rect x="649.83" y="347.455" transform="matrix(-1 -1.224647e-16 1.224647e-16 -1 1302.0768 700.2044)" style="fill:#DB83D5;" width="2.417" height="5.294"/>
					</g>
				</g>
				<g>
					<g>
						
							<rect x="642.583" y="347.455" transform="matrix(-1 -1.224647e-16 1.224647e-16 -1 1287.5819 700.2044)" style="fill:#DB83D5;" width="2.417" height="5.294"/>
					</g>
				</g>
				<g>
					<g>
						
							<rect x="635.335" y="347.455" transform="matrix(-1 -1.224647e-16 1.224647e-16 -1 1273.0867 700.2044)" style="fill:#DB83D5;" width="2.417" height="5.294"/>
					</g>
				</g>
				<g>
					<g>
						<path style="fill:#DB83D5;" d="M660.042,360.358c0,0.97-0.786,1.756-1.756,1.756c-0.97,0-1.756-0.786-1.756-1.756
							c0-0.97,0.786-1.756,1.756-1.756C659.256,358.601,660.042,359.388,660.042,360.358z"/>
					</g>
				</g>
				<g>
					<g>
						<path style="fill:#DB83D5;" d="M671.573,360.358c0,0.97-0.786,1.756-1.756,1.756c-0.97,0-1.756-0.786-1.756-1.756
							c0-0.97,0.786-1.756,1.756-1.756C670.786,358.601,671.573,359.388,671.573,360.358z"/>
					</g>
				</g>
				<g>
					<g>
						<path style="fill:#DB83D5;" d="M683.103,360.358c0,0.97-0.786,1.756-1.756,1.756s-1.756-0.786-1.756-1.756
							c0-0.97,0.786-1.756,1.756-1.756S683.103,359.388,683.103,360.358z"/>
					</g>
				</g>
				<g>
					<g>
						<path style="fill:#DB83D5;" d="M644.999,360.358c0,0.97,0.786,1.756,1.756,1.756c0.97,0,1.756-0.786,1.756-1.756
							c0-0.97-0.786-1.756-1.756-1.756C645.785,358.601,644.999,359.388,644.999,360.358z"/>
					</g>
				</g>
				<g>
					<g>
						<path style="fill:#DB83D5;" d="M633.469,360.358c0,0.97,0.786,1.756,1.756,1.756c0.97,0,1.756-0.786,1.756-1.756
							c0-0.97-0.786-1.756-1.756-1.756C634.255,358.601,633.469,359.388,633.469,360.358z"/>
					</g>
				</g>
				<g>
					<g>
						<polygon style="fill:#DB83D5;" points="663.468,209.581 663.402,208.232 658.927,203.757 662.987,199.698 662.927,198.474 
							658.286,203.115 653.645,198.475 653.586,199.699 657.644,203.757 653.17,208.231 653.104,209.58 658.286,204.399 						"/>
					</g>
					<g>
						<polygon style="fill:#DB83D5;" points="664.142,223.425 664.076,222.076 658.927,216.927 663.598,212.257 663.538,211.033 
							658.286,216.285 653.034,211.033 652.974,212.257 657.644,216.927 652.496,222.075 652.43,223.424 658.286,217.569 						"/>
					</g>
					<g>
						<path style="fill:#DB83D5;" d="M668.001,279.965c-0.052-0.48-0.104-0.953-0.156-1.439l-2.333-2.333l1.904-1.904
							c-0.038-0.389-0.076-0.777-0.114-1.17l-2.432,2.432l-5.943-5.943l5.943-5.943l1.742,1.742
							c-0.039-0.461-0.076-0.931-0.113-1.397l-0.986-0.986l0.839-0.839c-0.031-0.393-0.06-0.797-0.09-1.193l-1.391,1.39
							l-5.943-5.943l5.943-5.943l0.707,0.707c-0.028-0.439-0.054-0.889-0.081-1.333c-0.025-0.402-0.049-0.804-0.074-1.21
							l-0.552,0.552l-5.943-5.943l5.893-5.894l-0.059-1.224l-0.011-0.23l-5.823-5.823l5.282-5.282l-0.059-1.224l-5.864,5.864
							l-5.863-5.863l-0.06,1.224l5.281,5.281l-5.822,5.822l-0.066,1.349l-0.005,0.106l5.893,5.893l-5.943,5.943l-0.551-0.551
							c-0.023,0.394-0.047,0.784-0.071,1.174c-0.028,0.455-0.055,0.916-0.083,1.367l0.706-0.706l5.943,5.943l-5.943,5.943
							l-1.39-1.39c-0.03,0.396-0.06,0.8-0.09,1.193l0.839,0.838l-0.986,0.986c-0.038,0.466-0.075,0.936-0.113,1.397l1.741-1.741
							l5.943,5.943l-5.943,5.943l-2.431-2.431c-0.038,0.393-0.076,0.781-0.114,1.17l1.903,1.903l-2.332,2.332
							c-0.051,0.486-0.104,0.96-0.156,1.439l3.129-3.129l5.561,5.561c0.024-0.403,0.047-0.808,0.07-1.213l-4.989-4.989l5.482-5.482
							c0.017-0.443,0.034-0.887,0.05-1.334c0.01-0.266,0.021-0.526,0.03-0.792l-5.562-5.562l5.88-5.88
							c0.009-0.434,0.018-0.873,0.026-1.31c0-0.024,0.001-0.048,0.001-0.072l-5.908-5.908l5.943-5.943l5.943,5.943l-5.907,5.907
							c0.008,0.42,0.016,0.842,0.025,1.258c0.001,0.041,0.002,0.084,0.003,0.125l5.88,5.88l-5.561,5.561
							c0.015,0.417,0.031,0.824,0.047,1.237c0.011,0.297,0.022,0.594,0.034,0.891l5.481,5.481l-4.988,4.988
							c0.023,0.406,0.047,0.811,0.07,1.213l5.56-5.56L668.001,279.965z M652.342,236.682l5.943-5.943l5.943,5.943l-5.943,5.943
							L652.342,236.682z"/>
					</g>
					<g>
						<path style="fill:#DB83D5;" d="M669.863,294.997c-0.069-0.491-0.138-0.99-0.207-1.49l-4.145-4.144l3.198-3.198
							c-0.046-0.381-0.092-0.76-0.138-1.146l-3.702,3.702l-5.51-5.51c0.028,0.457,0.055,0.915,0.084,1.368l4.784,4.784l-4.116,4.116
							c0.034,0.394,0.069,0.788,0.104,1.18l4.654-4.654L669.863,294.997z"/>
					</g>
					<g>
						<path style="fill:#DB83D5;" d="M648,285.02c-0.046,0.385-0.092,0.765-0.138,1.146l3.197,3.197l-4.143,4.143
							c-0.069,0.5-0.137,1-0.207,1.49l4.992-4.992l4.655,4.655c0.035-0.391,0.07-0.785,0.104-1.18l-4.117-4.117l4.784-4.784
							c0.029-0.453,0.056-0.911,0.084-1.368l-5.51,5.511L648,285.02z"/>
					</g>
					<g>
						<path style="fill:#DB83D5;" d="M676.31,327.784c-0.156-0.566-0.312-1.154-0.47-1.754l-3.742-3.742l2.269-2.269
							c-0.079-0.344-0.157-0.694-0.236-1.047l-2.674,2.675l-5.944-5.943l5.944-5.943l0.984,0.984
							c-0.098-0.52-0.197-1.043-0.295-1.578l-0.047-0.047l0.032-0.033c-0.065-0.357-0.13-0.725-0.195-1.088l-0.479,0.479
							l-5.943-5.943l4.753-4.753c-0.055-0.368-0.108-0.748-0.163-1.121l-5.232,5.232l-4.386-4.386
							c0.047,0.48,0.097,0.954,0.146,1.43l3.598,3.598l-2.86,2.86c0.048,0.381,0.099,0.757,0.148,1.135l3.354-3.354l5.943,5.943
							l-5.943,5.943l-2.487-2.487c0.08,0.51,0.16,1.02,0.242,1.526l1.603,1.603l-1.136,1.136c0.065,0.364,0.13,0.726,0.196,1.087
							l1.582-1.582l5.943,5.943l-5.47,5.47c0.082,0.346,0.161,0.694,0.245,1.038l5.866-5.866L676.31,327.784z"/>
					</g>
					<g>
						<path style="fill:#DB83D5;" d="M646.469,296.66c-0.054,0.373-0.108,0.753-0.163,1.121l4.752,4.752l-5.943,5.943l-0.478-0.479
							c-0.065,0.363-0.13,0.732-0.195,1.088l0.032,0.032l-0.046,0.047c-0.098,0.535-0.196,1.058-0.295,1.578l0.983-0.983
							l5.944,5.943l-5.944,5.943l-2.674-2.674c-0.079,0.353-0.158,0.703-0.237,1.047l2.268,2.268l-3.741,3.741
							c-0.158,0.6-0.315,1.187-0.47,1.754l4.853-4.853l5.867,5.867c0.084-0.344,0.163-0.692,0.245-1.038l-5.47-5.471l5.943-5.943
							l1.583,1.582c0.066-0.362,0.132-0.724,0.196-1.087l-1.137-1.137l1.604-1.604c0.083-0.505,0.163-1.016,0.242-1.526
							l-2.488,2.488l-5.943-5.943l5.943-5.943l3.355,3.355c0.049-0.378,0.1-0.755,0.148-1.135l-2.861-2.861l3.599-3.599
							c0.049-0.475,0.099-0.95,0.146-1.43l-4.387,4.387L646.469,296.66z"/>
					</g>
					<g>
						<path style="fill:#DB83D5;" d="M678.683,342.043l1.793-1.794c-0.121-0.288-0.246-0.594-0.373-0.911l-2.062,2.062l-5.943-5.943
							l4.98-4.98c-0.096-0.324-0.192-0.657-0.289-0.994l-5.333,5.333l-5.815-5.815c0.141,0.574,0.286,1.145,0.431,1.715l4.742,4.742
							l-2.666,2.666c0.1,0.327,0.203,0.652,0.305,0.978l3.002-3.002l5.943,5.943l-3.217,3.217h1.284l2.575-2.575l2.575,2.575h1.284
							L678.683,342.043z"/>
					</g>
					<g>
						<path style="fill:#DB83D5;" d="M639.783,329.484c-0.097,0.337-0.193,0.67-0.289,0.995l4.979,4.979l-5.943,5.943l-2.062-2.062
							c-0.127,0.317-0.252,0.623-0.373,0.911l1.793,1.793l-3.217,3.217h1.284l2.575-2.575l2.575,2.575h1.284l-3.217-3.217
							l5.943-5.943l3.003,3.003c0.102-0.326,0.206-0.651,0.305-0.978l-2.666-2.666l4.743-4.743c0.146-0.57,0.291-1.141,0.431-1.715
							l-5.816,5.816L639.783,329.484z"/>
					</g>
				</g>
				<g>
					<g>
						<rect x="640.72" y="301.142" style="fill:#A04299;" width="35.132" height="4.746"/>
					</g>
				</g>
				<g>
					<circle style="fill:#C361B7;" cx="658.286" cy="194.025" r="1.959"/>
				</g>
				<g>
					<path style="fill:#C361B7;" d="M665.278,194.025c0,0.627-0.509,1.136-1.136,1.136c-0.627,0-1.136-0.509-1.136-1.136
						s0.508-1.136,1.136-1.136C664.769,192.889,665.278,193.398,665.278,194.025z"/>
				</g>
				<g>
					<path style="fill:#C361B7;" d="M651.294,194.025c0,0.627,0.508,1.136,1.136,1.136c0.627,0,1.136-0.509,1.136-1.136
						s-0.509-1.136-1.136-1.136C651.803,192.889,651.294,193.398,651.294,194.025z"/>
				</g>
				<g>
					<g>
						<path style="fill:#A04299;" d="M684.944,370.158h-9.092c-0.251,0-0.454-0.203-0.454-0.454c0-0.251,0.203-0.454,0.454-0.454
							h9.092c0.251,0,0.454,0.203,0.454,0.454C685.398,369.955,685.195,370.158,684.944,370.158z"/>
					</g>
				</g>
				<g>
					<g>
						<path style="fill:#A04299;" d="M698.276,384.862h-8.039c-0.251,0-0.454-0.203-0.454-0.454s0.203-0.454,0.454-0.454h8.039
							c0.251,0,0.454,0.203,0.454,0.454S698.527,384.862,698.276,384.862z"/>
					</g>
				</g>
				<g>
					<g>
						<path style="fill:#A04299;" d="M633.469,377.21h-8.521c-0.251,0-0.454-0.203-0.454-0.454c0-0.251,0.203-0.454,0.454-0.454
							h8.521c0.251,0,0.454,0.203,0.454,0.454C633.923,377.007,633.72,377.21,633.469,377.21z"/>
					</g>
				</g>
				<g>
					<g>
						<path style="fill:#A04299;" d="M646.756,367.609h-12.084c-0.251,0-0.454-0.203-0.454-0.454c0-0.251,0.203-0.454,0.454-0.454
							h12.084c0.251,0,0.454,0.203,0.454,0.454C647.21,367.406,647.007,367.609,646.756,367.609z"/>
					</g>
				</g>
				<g>
					<g>
						<path style="fill:#A04299;" d="M623.183,393.489h-9.803c-0.251,0-0.454-0.203-0.454-0.454c0-0.251,0.203-0.454,0.454-0.454
							h9.803c0.251,0,0.454,0.203,0.454,0.454C623.637,393.286,623.434,393.489,623.183,393.489z"/>
					</g>
				</g>
				<g>
					<g>
						<path style="fill:#A04299;" d="M699.844,395.45h-6.47c-0.251,0-0.454-0.203-0.454-0.454c0-0.251,0.203-0.454,0.454-0.454h6.47
							c0.251,0,0.454,0.203,0.454,0.454C700.298,395.247,700.095,395.45,699.844,395.45z"/>
					</g>
				</g>
			</g>
			<g>
				<g>
					<polygon style="fill:#F7B85C;" points="436.97,280.014 543.971,399.854 329.97,399.854 					"/>
				</g>
				<g>
					<polygon style="fill:#FFDD77;" points="398.993,399.854 436.97,280.014 329.97,399.854 					"/>
				</g>
				<g>
					
						<rect x="362.717" y="341.095" transform="matrix(0.3026 -0.9531 0.9531 0.3026 -34.4702 636.122)" style="fill:#EA8749;" width="109.465" height="1.041"/>
				</g>
				<g>
					<rect x="426.829" y="311.496" style="fill:#EA8749;" width="21.201" height="1.041"/>
				</g>
				<g>
					<rect x="467.706" y="347.063" style="fill:#EA8749;" width="29.305" height="1.041"/>
				</g>
				<g>
					<rect x="425.155" y="347.063" style="fill:#EA8749;" width="16.515" height="1.041"/>
				</g>
				<g>
					<rect x="442.507" y="329.057" style="fill:#EA8749;" width="24.614" height="1.041"/>
				</g>
				<g>
					<rect x="438.244" y="365.069" style="fill:#EA8749;" width="43.333" height="1.041"/>
				</g>
				<g>
					<rect x="500.188" y="365.069" style="fill:#EA8749;" width="13.294" height="1.041"/>
				</g>
				<g>
					<rect x="403.807" y="384.142" style="fill:#EA8749;" width="31.28" height="1.041"/>
				</g>
				<g>
					<rect x="456.491" y="384.142" style="fill:#EA8749;" width="14.545" height="1.041"/>
				</g>
				<g>
					<rect x="488.658" y="384.142" style="fill:#EA8749;" width="31.327" height="1.041"/>
				</g>
				<g>
					<rect x="403.807" y="334.791" style="fill:#EA8749;" width="15.64" height="1.041"/>
				</g>
				<g>
					<rect x="352.509" y="374.089" style="fill:#EA8749;" width="25.152" height="1.041"/>
				</g>
				<g>
					<rect x="382.867" y="353.76" style="fill:#EA8749;" width="18.047" height="1.041"/>
				</g>
				<g>
					<rect x="420.366" y="298.09" style="fill:#EA8749;" width="6.463" height="1.041"/>
				</g>
				<g>
					<rect x="340.36" y="387.697" style="fill:#EA8749;" width="27.584" height="1.041"/>
				</g>
			</g>
			<g>
				<g>
					<path style="fill:#65B7CE;" d="M354.837,315.948c-37.397-9.586-64.315,8.379-70.351,15.019
						c-15.996-49.195-65.795-59.759-80.282-60.363c16.6,18.109,13.28,40.443,13.28,40.443c-16.6-17.807-39.537-18.109-51.007-17.203
						c15.996,14.185,12.073,29.577,12.374,35.916c-13.28-18.41-36.821-12.978-44.668-10.865
						c16.901,14.487,13.582,33.803,13.582,33.803l-9.557,5.24c-3.97,2.177-6.721,6.055-7.464,10.521l-1.728,10.394h213.362
						C325.766,347.276,354.837,315.948,354.837,315.948z"/>
				</g>
				<g>
					<path style="fill:#76CEE2;" d="M412.874,335.854c0,0-24.712,24.218-2.966,42.999h-83.817c0,0,14.49-22.62-6.911-38.389
						c8.26-2.253,31.592-1.642,44.247,12.778C367.932,346.859,389.049,332.371,412.874,335.854z"/>
				</g>
				<g>
					<path style="fill:#26859B;" d="M381.843,379.542c-0.35,0-0.65-0.267-0.685-0.623c-2.811-29.368,31.113-43.563,31.457-43.703
						c0.347-0.144,0.754,0.026,0.898,0.377c0.144,0.353-0.026,0.755-0.377,0.9c-0.334,0.136-33.318,13.954-30.604,42.295
						c0.036,0.38-0.242,0.716-0.621,0.753C381.887,379.541,381.866,379.542,381.843,379.542z"/>
				</g>
				<g>
					<rect x="122.4" y="378.853" style="fill:#26859B;" width="292.713" height="5.84"/>
				</g>
				<g>
					<rect x="126.355" y="384.692" style="fill:#76CEE2;" width="284.802" height="15.162"/>
				</g>
				<g>
					<path style="fill:#26859B;" d="M339.63,379.542c-0.381,0-0.689-0.308-0.689-0.689c0-16.474-5.461-25.869-10.043-30.848
						c-4.927-5.356-9.864-6.866-9.914-6.881c-0.365-0.109-0.572-0.493-0.464-0.858c0.109-0.364,0.489-0.57,0.858-0.465
						c0.209,0.062,20.943,6.591,20.943,39.051C340.32,379.234,340.011,379.542,339.63,379.542z"/>
				</g>
				<g>
					<path style="fill:#26859B;" d="M381.844,379.542c-0.264,0-0.516-0.152-0.63-0.409c-6.263-14.086-17.819-17.996-18.915-18.338
						c-0.963,0.019-11.071,0.633-22.092,17.453c-0.21,0.319-0.638,0.404-0.955,0.198c-0.318-0.209-0.407-0.635-0.198-0.955
						c12.015-18.335,22.928-18.074,23.375-18.075l0.156,0.026c0.531,0.147,13.068,3.789,19.889,19.131
						c0.155,0.347-0.003,0.755-0.35,0.91C382.033,379.523,381.938,379.542,381.844,379.542z"/>
				</g>
				<g>
					<path style="fill:#26859B;" d="M360.736,376.171c-0.355,0-0.657-0.273-0.685-0.634c-0.878-10.917,2.682-22.388,2.719-22.503
						c0.114-0.362,0.494-0.564,0.864-0.45c0.362,0.113,0.564,0.501,0.45,0.864c-0.035,0.112-3.514,11.335-2.659,21.977
						c0.031,0.38-0.252,0.712-0.632,0.742C360.774,376.169,360.755,376.171,360.736,376.171z"/>
				</g>
				<g>
					<path style="fill:#26859B;" d="M267.487,372.936c-0.031,0-0.062-0.001-0.094-0.007c-0.377-0.051-0.641-0.397-0.59-0.776
						c3.735-27.623,17.056-41.531,17.191-41.669c0.265-0.269,0.702-0.277,0.975-0.011c0.272,0.265,0.277,0.702,0.011,0.975
						c-0.131,0.133-13.14,13.749-16.811,40.89C268.122,372.686,267.826,372.936,267.487,372.936z"/>
				</g>
				<g>
					<path style="fill:#26859B;" d="M235.708,379.542c-0.049,0-0.098-0.005-0.148-0.016c-0.373-0.082-0.607-0.45-0.525-0.821
						c8.763-39.668,48.909-48.33,49.313-48.413l0.331-0.067l0.256,0.219c0.225,0.193,22.515,19.621,22.515,48.409
						c0,0.381-0.308,0.689-0.689,0.689c-0.381,0-0.69-0.308-0.69-0.689c0-26.503-19.318-44.901-21.778-47.134
						c-3.854,0.914-39.765,10.412-47.911,47.282C236.31,379.323,236.024,379.542,235.708,379.542z"/>
				</g>
				<g>
					<path style="fill:#26859B;" d="M236.55,376.171c0,0,0,0-0.001,0c-0.38,0-0.688-0.31-0.688-0.691
						c0.044-38.885-18.734-63.766-18.924-64.012c-0.232-0.302-0.175-0.734,0.127-0.967c0.299-0.232,0.734-0.176,0.967,0.126
						c0.193,0.25,19.255,25.476,19.209,64.855C237.239,375.862,236.931,376.171,236.55,376.171z"/>
				</g>
				<g>
					<path style="fill:#26859B;" d="M194.643,379.542c-0.381,0-0.689-0.308-0.689-0.689c0-27.493-15.497-48.471-15.654-48.68
						c-0.228-0.304-0.166-0.737,0.139-0.964c0.303-0.232,0.736-0.167,0.964,0.137c0.16,0.211,15.93,21.538,15.93,49.506
						C195.332,379.234,195.024,379.542,194.643,379.542z"/>
				</g>
				<g>
					<polygon style="fill:#26859B;" points="179.896,372.247 163.881,372.247 160.768,378.853 183.009,378.853 					"/>
				</g>
				<g>
					<polygon style="fill:#26859B;" points="223.183,372.247 207.168,372.247 204.055,378.853 226.295,378.853 					"/>
				</g>
				<g>
					<polygon style="fill:#26859B;" points="264.924,372.247 248.909,372.247 245.796,378.853 268.037,378.853 					"/>
				</g>
				<g>
					<polygon style="fill:#26859B;" points="287.07,372.247 271.055,372.247 267.943,378.853 290.183,378.853 					"/>
				</g>
				<g>
					<path style="fill:#26859B;" d="M191.275,389.68c-1.86,0-3.367,1.508-3.367,3.368v6.806h6.735v-6.806
						C194.643,391.188,193.135,389.68,191.275,389.68z"/>
				</g>
				<g>
					<path style="fill:#26859B;" d="M350.045,389.68c-1.86,0-3.368,1.508-3.368,3.368v6.806h6.735v-6.806
						C353.413,391.188,351.905,389.68,350.045,389.68z"/>
				</g>
				<g>
					<rect x="215.175" y="389.68" style="fill:#26859B;" width="5.087" height="5.087"/>
				</g>
				<g>
					<rect x="241.927" y="389.68" style="fill:#26859B;" width="5.087" height="5.087"/>
				</g>
				<g>
					<rect x="268.679" y="389.68" style="fill:#26859B;" width="5.087" height="5.087"/>
				</g>
				<g>
					<rect x="295.43" y="389.68" style="fill:#26859B;" width="5.087" height="5.087"/>
				</g>
				<g>
					<rect x="322.182" y="389.68" style="fill:#26859B;" width="5.087" height="5.087"/>
				</g>
			</g>
			<g>
				<g>
					<rect x="63.661" y="329.776" style="fill:#D86878;" width="48.51" height="70.078"/>
				</g>
				<g>
					<rect x="55.996" y="286.683" style="fill:#A53C4B;" width="63.84" height="43.093"/>
				</g>
				<g>
					<rect x="61.657" y="273.784" style="fill:#D86878;" width="52.519" height="12.899"/>
				</g>
				<g>
					<rect x="74.143" y="247.92" style="fill:#D86878;" width="27.546" height="13.136"/>
				</g>
				<g>
					<polygon style="fill:#F48EA2;" points="114.175,273.784 61.657,273.784 73.878,261.057 101.954,261.057 					"/>
				</g>
				<g>
					<path style="fill:#F48EA2;" d="M104.372,308.78c0,9.089-7.368,16.456-16.456,16.456c-9.089,0-16.456-7.368-16.456-16.456
						c0-9.088,7.368-16.456,16.456-16.456C97.004,292.324,104.372,299.692,104.372,308.78z"/>
				</g>
				<g>
					<g>
						<g>
							<path style="fill:#A53C4B;" d="M87.916,310.003c-0.675,0-1.222-0.547-1.222-1.222v-11.694c0-0.676,0.547-1.222,1.222-1.222
								c0.676,0,1.222,0.547,1.222,1.222v11.694C89.138,309.456,88.592,310.003,87.916,310.003z"/>
						</g>
					</g>
					<g>
						<g>
							<path style="fill:#A53C4B;" d="M97.011,310.003h-9.095c-0.675,0-1.222-0.547-1.222-1.222c0-0.676,0.547-1.222,1.222-1.222
								h9.095c0.676,0,1.222,0.547,1.222,1.222C98.233,309.456,97.686,310.003,97.011,310.003z"/>
						</g>
					</g>
				</g>
				<g>
					<rect x="85.501" y="340.591" style="fill:#A53C4B;" width="4.83" height="16.593"/>
				</g>
				<g>
					<rect x="99.274" y="340.591" style="fill:#A53C4B;" width="4.829" height="16.593"/>
				</g>
				<g>
					
						<rect x="71.729" y="340.591" transform="matrix(-1 -1.224647e-16 1.224647e-16 -1 148.2864 697.7745)" style="fill:#A53C4B;" width="4.829" height="16.593"/>
				</g>
				<g>
					<rect x="85.501" y="372.328" style="fill:#A53C4B;" width="4.83" height="16.593"/>
				</g>
				<g>
					<rect x="99.274" y="372.328" style="fill:#A53C4B;" width="4.829" height="16.593"/>
				</g>
				<g>
					
						<rect x="71.729" y="372.328" transform="matrix(-1 -1.224647e-16 1.224647e-16 -1 148.2864 761.2483)" style="fill:#A53C4B;" width="4.829" height="16.593"/>
				</g>
				<g>
					<polygon style="fill:#F48EA2;" points="87.916,223.948 73.939,248.158 101.893,248.158 					"/>
				</g>
				<g>
					<path style="fill:#A53C4B;" d="M119.836,274.773h-63.84c-0.547,0-0.989-0.442-0.989-0.989c0-0.547,0.443-0.989,0.989-0.989
						h63.84c0.547,0,0.989,0.443,0.989,0.989C120.825,274.33,120.383,274.773,119.836,274.773z"/>
				</g>
				<g>
					<path style="fill:#A53C4B;" d="M107.96,249.147H67.872c-0.547,0-0.989-0.443-0.989-0.989c0-0.547,0.442-0.989,0.989-0.989
						h40.089c0.547,0,0.989,0.442,0.989,0.989C108.95,248.704,108.507,249.147,107.96,249.147z"/>
				</g>
			</g>
			<g>
				<g>
					<polygon style="fill:#F7B85C;" points="506.835,316.909 580.894,399.854 432.776,399.854 					"/>
				</g>
				<g>
					<polygon style="fill:#FFDD77;" points="480.549,399.854 506.835,316.909 432.776,399.854 					"/>
				</g>
				<g>
					
						<rect x="455.441" y="359.185" transform="matrix(0.3026 -0.9531 0.9531 0.3026 1.3454 720.929)" style="fill:#EA8749;" width="75.765" height="0.721"/>
				</g>
				<g>
					<rect x="499.816" y="338.698" style="fill:#EA8749;" width="14.674" height="0.721"/>
				</g>
				<g>
					<rect x="528.108" y="363.315" style="fill:#EA8749;" width="20.283" height="0.721"/>
				</g>
				<g>
					<rect x="498.657" y="363.315" style="fill:#EA8749;" width="11.431" height="0.721"/>
				</g>
				<g>
					<rect x="510.667" y="350.853" style="fill:#EA8749;" width="17.036" height="0.721"/>
				</g>
				<g>
					<rect x="507.717" y="375.778" style="fill:#EA8749;" width="29.992" height="0.721"/>
				</g>
				<g>
					<rect x="550.59" y="375.778" style="fill:#EA8749;" width="9.201" height="0.721"/>
				</g>
				<g>
					<rect x="483.881" y="388.979" style="fill:#EA8749;" width="21.65" height="0.721"/>
				</g>
				<g>
					<rect x="520.346" y="388.979" style="fill:#EA8749;" width="10.067" height="0.721"/>
				</g>
				<g>
					<rect x="542.61" y="388.979" style="fill:#EA8749;" width="21.682" height="0.721"/>
				</g>
				<g>
					<rect x="483.881" y="354.821" style="fill:#EA8749;" width="10.825" height="0.721"/>
				</g>
				<g>
					<rect x="448.376" y="382.021" style="fill:#EA8749;" width="17.408" height="0.721"/>
				</g>
				<g>
					<rect x="469.388" y="367.951" style="fill:#EA8749;" width="12.491" height="0.721"/>
				</g>
				<g>
					<rect x="495.343" y="329.419" style="fill:#EA8749;" width="4.473" height="0.721"/>
				</g>
				<g>
					<rect x="439.968" y="391.44" style="fill:#EA8749;" width="19.092" height="0.721"/>
				</g>
			</g>
			<g>
				<g>
					<g>
						<path style="fill:#89CDA7;" d="M488.341,378.3c-0.287,0-0.577-0.091-0.823-0.279c-0.594-0.455-0.707-1.306-0.251-1.9
							l30.842-40.251c0.457-0.594,1.306-0.705,1.9-0.251c0.594,0.455,0.707,1.306,0.252,1.901l-30.842,40.251
							C489.151,378.117,488.749,378.3,488.341,378.3z"/>
					</g>
				</g>
				<g>
					<g>
						<path style="fill:#89CDA7;" d="M550.029,378.3c-0.408,0-0.81-0.183-1.077-0.531l-30.843-40.251
							c-0.455-0.594-0.343-1.445,0.251-1.901c0.597-0.453,1.445-0.342,1.901,0.251l30.843,40.251c0.455,0.594,0.343,1.445-0.252,1.9
							C550.606,378.209,550.316,378.3,550.029,378.3z"/>
					</g>
				</g>
				<g>
					<polygon style="fill:#89CDA7;" points="483.565,321.008 483.565,274.599 478.74,274.599 478.74,246.997 452.826,246.997 
						452.826,274.599 448.001,274.599 448.001,321.008 441.321,321.008 441.321,399.854 490.245,399.854 490.245,321.008 					"/>
				</g>
				<g>
					<path style="fill:#4C9365;" d="M465.783,217.229L465.783,217.229c-0.738,0-1.336,0.598-1.336,1.336v28.432h2.672v-28.432
						C467.119,217.827,466.521,217.229,465.783,217.229z"/>
				</g>
				<g>
					<path style="fill:#4C9365;" d="M469.719,233.158c0,2.174-1.762,3.936-3.936,3.936c-2.174,0-3.936-1.762-3.936-3.936
						c0-2.174,1.762-3.936,3.936-3.936C467.957,229.221,469.719,230.984,469.719,233.158z"/>
				</g>
				<g>
					<rect x="464.357" y="252.332" style="fill:#B8E8CB;" width="2.852" height="4.549"/>
				</g>
				<g>
					<rect x="470.618" y="252.332" style="fill:#B8E8CB;" width="2.852" height="4.549"/>
				</g>
				<g>
					
						<rect x="458.096" y="252.332" transform="matrix(-1 -1.224647e-16 1.224647e-16 -1 919.045 509.2141)" style="fill:#B8E8CB;" width="2.852" height="4.549"/>
				</g>
				<g>
					<rect x="464.357" y="263.89" style="fill:#B8E8CB;" width="2.852" height="4.55"/>
				</g>
				<g>
					<rect x="470.618" y="263.89" style="fill:#B8E8CB;" width="2.852" height="4.55"/>
				</g>
				<g>
					
						<rect x="458.096" y="263.89" transform="matrix(-1 -1.224647e-16 1.224647e-16 -1 919.045 532.3292)" style="fill:#B8E8CB;" width="2.852" height="4.55"/>
				</g>
				<g>
					<rect x="464.357" y="281.628" style="fill:#B8E8CB;" width="2.852" height="4.55"/>
				</g>
				<g>
					
						<rect x="476.878" y="281.628" transform="matrix(-1 -1.224647e-16 1.224647e-16 -1 956.6079 567.8052)" style="fill:#B8E8CB;" width="2.852" height="4.55"/>
				</g>
				<g>
					<rect x="451.836" y="281.628" style="fill:#B8E8CB;" width="2.852" height="4.55"/>
				</g>
				<g>
					<rect x="470.618" y="281.628" style="fill:#B8E8CB;" width="2.852" height="4.55"/>
				</g>
				<g>
					
						<rect x="458.096" y="281.628" transform="matrix(-1 -1.224647e-16 1.224647e-16 -1 919.045 567.8052)" style="fill:#B8E8CB;" width="2.852" height="4.55"/>
				</g>
				<g>
					<rect x="464.357" y="295.159" style="fill:#B8E8CB;" width="2.852" height="4.55"/>
				</g>
				<g>
					
						<rect x="476.878" y="295.159" transform="matrix(-1 -1.224647e-16 1.224647e-16 -1 956.6079 594.8684)" style="fill:#B8E8CB;" width="2.852" height="4.55"/>
				</g>
				<g>
					<rect x="451.836" y="295.159" style="fill:#B8E8CB;" width="2.852" height="4.55"/>
				</g>
				<g>
					<rect x="470.618" y="295.159" style="fill:#B8E8CB;" width="2.852" height="4.55"/>
				</g>
				<g>
					
						<rect x="458.096" y="295.159" transform="matrix(-1 -1.224647e-16 1.224647e-16 -1 919.045 594.8684)" style="fill:#B8E8CB;" width="2.852" height="4.55"/>
				</g>
				<g>
					<rect x="464.357" y="308.691" style="fill:#B8E8CB;" width="2.852" height="4.549"/>
				</g>
				<g>
					
						<rect x="476.878" y="308.691" transform="matrix(-1 -1.224647e-16 1.224647e-16 -1 956.6079 621.9315)" style="fill:#B8E8CB;" width="2.852" height="4.549"/>
				</g>
				<g>
					<rect x="451.836" y="308.691" style="fill:#B8E8CB;" width="2.852" height="4.549"/>
				</g>
				<g>
					<rect x="470.618" y="308.691" style="fill:#B8E8CB;" width="2.852" height="4.549"/>
				</g>
				<g>
					
						<rect x="458.096" y="308.691" transform="matrix(-1 -1.224647e-16 1.224647e-16 -1 919.045 621.9315)" style="fill:#B8E8CB;" width="2.852" height="4.549"/>
				</g>
				<g>
					<rect x="464.357" y="326.186" style="fill:#B8E8CB;" width="2.852" height="4.55"/>
				</g>
				<g>
					
						<rect x="476.878" y="326.186" transform="matrix(-1 -1.224647e-16 1.224647e-16 -1 956.6079 656.9222)" style="fill:#B8E8CB;" width="2.852" height="4.55"/>
				</g>
				<g>
					<rect x="451.836" y="326.186" style="fill:#B8E8CB;" width="2.852" height="4.55"/>
				</g>
				<g>
					<rect x="470.618" y="326.186" style="fill:#B8E8CB;" width="2.852" height="4.55"/>
				</g>
				<g>
					
						<rect x="483.138" y="326.186" transform="matrix(-1 -1.224647e-16 1.224647e-16 -1 969.1289 656.9222)" style="fill:#B8E8CB;" width="2.852" height="4.55"/>
				</g>
				<g>
					<rect x="445.576" y="326.186" style="fill:#B8E8CB;" width="2.852" height="4.55"/>
				</g>
				<g>
					
						<rect x="458.096" y="326.186" transform="matrix(-1 -1.224647e-16 1.224647e-16 -1 919.045 656.9222)" style="fill:#B8E8CB;" width="2.852" height="4.55"/>
				</g>
				<g>
					<rect x="464.357" y="345.037" style="fill:#B8E8CB;" width="2.852" height="4.55"/>
				</g>
				<g>
					
						<rect x="476.878" y="345.037" transform="matrix(-1 -1.224647e-16 1.224647e-16 -1 956.6079 694.6234)" style="fill:#B8E8CB;" width="2.852" height="4.55"/>
				</g>
				<g>
					<rect x="451.836" y="345.037" style="fill:#B8E8CB;" width="2.852" height="4.55"/>
				</g>
				<g>
					<rect x="470.618" y="345.037" style="fill:#B8E8CB;" width="2.852" height="4.55"/>
				</g>
				<g>
					
						<rect x="483.138" y="345.037" transform="matrix(-1 -1.224647e-16 1.224647e-16 -1 969.1289 694.6234)" style="fill:#B8E8CB;" width="2.852" height="4.55"/>
				</g>
				<g>
					<rect x="445.576" y="345.037" style="fill:#B8E8CB;" width="2.852" height="4.55"/>
				</g>
				<g>
					
						<rect x="458.096" y="345.037" transform="matrix(-1 -1.224647e-16 1.224647e-16 -1 919.045 694.6234)" style="fill:#B8E8CB;" width="2.852" height="4.55"/>
				</g>
				<g>
					<rect x="464.357" y="363.887" style="fill:#B8E8CB;" width="2.852" height="4.55"/>
				</g>
				<g>
					
						<rect x="476.878" y="363.887" transform="matrix(-1 -1.224647e-16 1.224647e-16 -1 956.6079 732.3244)" style="fill:#B8E8CB;" width="2.852" height="4.55"/>
				</g>
				<g>
					<rect x="451.836" y="363.887" style="fill:#B8E8CB;" width="2.852" height="4.55"/>
				</g>
				<g>
					<rect x="470.618" y="363.887" style="fill:#B8E8CB;" width="2.852" height="4.55"/>
				</g>
				<g>
					
						<rect x="483.138" y="363.887" transform="matrix(-1 -1.224647e-16 1.224647e-16 -1 969.1289 732.3244)" style="fill:#B8E8CB;" width="2.852" height="4.55"/>
				</g>
				<g>
					<rect x="445.576" y="363.887" style="fill:#B8E8CB;" width="2.852" height="4.55"/>
				</g>
				<g>
					
						<rect x="458.096" y="363.887" transform="matrix(-1 -1.224647e-16 1.224647e-16 -1 919.045 732.3244)" style="fill:#B8E8CB;" width="2.852" height="4.55"/>
				</g>
				<g>
					<rect x="464.357" y="382.738" style="fill:#B8E8CB;" width="2.852" height="4.55"/>
				</g>
				<g>
					
						<rect x="476.878" y="382.738" transform="matrix(-1 -1.224647e-16 1.224647e-16 -1 956.6079 770.0256)" style="fill:#B8E8CB;" width="2.852" height="4.55"/>
				</g>
				<g>
					<rect x="451.836" y="382.738" style="fill:#B8E8CB;" width="2.852" height="4.55"/>
				</g>
				<g>
					<rect x="470.618" y="382.738" style="fill:#B8E8CB;" width="2.852" height="4.55"/>
				</g>
				<g>
					
						<rect x="483.138" y="382.738" transform="matrix(-1 -1.224647e-16 1.224647e-16 -1 969.1289 770.0256)" style="fill:#B8E8CB;" width="2.852" height="4.55"/>
				</g>
				<g>
					<rect x="445.576" y="382.738" style="fill:#B8E8CB;" width="2.852" height="4.55"/>
				</g>
				<g>
					
						<rect x="458.096" y="382.738" transform="matrix(-1 -1.224647e-16 1.224647e-16 -1 919.045 770.0256)" style="fill:#B8E8CB;" width="2.852" height="4.55"/>
				</g>
				<g>
					<rect x="465.783" y="273.921" style="fill:#4C9365;" width="12.958" height="1.355"/>
				</g>
				<g>
					<rect x="448.001" y="320.331" style="fill:#4C9365;" width="11.522" height="1.355"/>
				</g>
				<g>
					<rect x="465.783" y="320.331" style="fill:#4C9365;" width="14.959" height="1.355"/>
				</g>
				<g>
					<polygon style="fill:#89CDA7;" points="554.804,321.008 554.804,274.599 559.629,274.599 559.629,246.997 585.544,246.997 
						585.544,274.599 590.369,274.599 590.369,321.008 597.049,321.008 597.049,399.854 548.125,399.854 548.125,321.008 					"/>
				</g>
				<g>
					<path style="fill:#4C9365;" d="M572.587,217.229L572.587,217.229c0.738,0,1.336,0.598,1.336,1.336v28.432h-2.672v-28.432
						C571.251,217.827,571.849,217.229,572.587,217.229z"/>
				</g>
				<g>
					<path style="fill:#4C9365;" d="M568.651,233.158c0,2.174,1.762,3.936,3.936,3.936s3.936-1.762,3.936-3.936
						c0-2.174-1.762-3.936-3.936-3.936S568.651,230.984,568.651,233.158z"/>
				</g>
				<g>
					
						<rect x="571.161" y="252.332" transform="matrix(-1 -1.224647e-16 1.224647e-16 -1 1145.1736 509.2141)" style="fill:#B8E8CB;" width="2.852" height="4.549"/>
				</g>
				<g>
					
						<rect x="564.9" y="252.332" transform="matrix(-1 -1.224647e-16 1.224647e-16 -1 1132.6527 509.2141)" style="fill:#B8E8CB;" width="2.852" height="4.549"/>
				</g>
				<g>
					<rect x="577.421" y="252.332" style="fill:#B8E8CB;" width="2.852" height="4.549"/>
				</g>
				<g>
					
						<rect x="571.161" y="263.89" transform="matrix(-1 -1.224647e-16 1.224647e-16 -1 1145.1736 532.3292)" style="fill:#B8E8CB;" width="2.852" height="4.55"/>
				</g>
				<g>
					
						<rect x="564.9" y="263.89" transform="matrix(-1 -1.224647e-16 1.224647e-16 -1 1132.6527 532.3292)" style="fill:#B8E8CB;" width="2.852" height="4.55"/>
				</g>
				<g>
					<rect x="577.421" y="263.89" style="fill:#B8E8CB;" width="2.852" height="4.55"/>
				</g>
				<g>
					
						<rect x="571.161" y="281.628" transform="matrix(-1 -1.224647e-16 1.224647e-16 -1 1145.1736 567.8052)" style="fill:#B8E8CB;" width="2.852" height="4.55"/>
				</g>
				<g>
					<rect x="558.64" y="281.628" style="fill:#B8E8CB;" width="2.852" height="4.55"/>
				</g>
				<g>
					
						<rect x="583.682" y="281.628" transform="matrix(-1 -1.224647e-16 1.224647e-16 -1 1170.2156 567.8052)" style="fill:#B8E8CB;" width="2.852" height="4.55"/>
				</g>
				<g>
					
						<rect x="564.9" y="281.628" transform="matrix(-1 -1.224647e-16 1.224647e-16 -1 1132.6527 567.8052)" style="fill:#B8E8CB;" width="2.852" height="4.55"/>
				</g>
				<g>
					<rect x="577.421" y="281.628" style="fill:#B8E8CB;" width="2.852" height="4.55"/>
				</g>
				<g>
					
						<rect x="571.161" y="295.159" transform="matrix(-1 -1.224647e-16 1.224647e-16 -1 1145.1736 594.8684)" style="fill:#B8E8CB;" width="2.852" height="4.55"/>
				</g>
				<g>
					<rect x="558.64" y="295.159" style="fill:#B8E8CB;" width="2.852" height="4.55"/>
				</g>
				<g>
					
						<rect x="583.682" y="295.159" transform="matrix(-1 -1.224647e-16 1.224647e-16 -1 1170.2156 594.8684)" style="fill:#B8E8CB;" width="2.852" height="4.55"/>
				</g>
				<g>
					
						<rect x="564.9" y="295.159" transform="matrix(-1 -1.224647e-16 1.224647e-16 -1 1132.6527 594.8684)" style="fill:#B8E8CB;" width="2.852" height="4.55"/>
				</g>
				<g>
					<rect x="577.421" y="295.159" style="fill:#B8E8CB;" width="2.852" height="4.55"/>
				</g>
				<g>
					
						<rect x="571.161" y="308.691" transform="matrix(-1 -1.224647e-16 1.224647e-16 -1 1145.1736 621.9315)" style="fill:#B8E8CB;" width="2.852" height="4.549"/>
				</g>
				<g>
					<rect x="558.64" y="308.691" style="fill:#B8E8CB;" width="2.852" height="4.549"/>
				</g>
				<g>
					
						<rect x="583.682" y="308.691" transform="matrix(-1 -1.224647e-16 1.224647e-16 -1 1170.2156 621.9315)" style="fill:#B8E8CB;" width="2.852" height="4.549"/>
				</g>
				<g>
					
						<rect x="564.9" y="308.691" transform="matrix(-1 -1.224647e-16 1.224647e-16 -1 1132.6527 621.9315)" style="fill:#B8E8CB;" width="2.852" height="4.549"/>
				</g>
				<g>
					<rect x="577.421" y="308.691" style="fill:#B8E8CB;" width="2.852" height="4.549"/>
				</g>
				<g>
					
						<rect x="571.161" y="326.186" transform="matrix(-1 -1.224647e-16 1.224647e-16 -1 1145.1736 656.9222)" style="fill:#B8E8CB;" width="2.852" height="4.55"/>
				</g>
				<g>
					<rect x="558.64" y="326.186" style="fill:#B8E8CB;" width="2.852" height="4.55"/>
				</g>
				<g>
					
						<rect x="583.682" y="326.186" transform="matrix(-1 -1.224647e-16 1.224647e-16 -1 1170.2156 656.9222)" style="fill:#B8E8CB;" width="2.852" height="4.55"/>
				</g>
				<g>
					
						<rect x="564.9" y="326.186" transform="matrix(-1 -1.224647e-16 1.224647e-16 -1 1132.6527 656.9222)" style="fill:#B8E8CB;" width="2.852" height="4.55"/>
				</g>
				<g>
					<rect x="552.379" y="326.186" style="fill:#B8E8CB;" width="2.852" height="4.55"/>
				</g>
				<g>
					
						<rect x="589.942" y="326.186" transform="matrix(-1 -1.224647e-16 1.224647e-16 -1 1182.7365 656.9222)" style="fill:#B8E8CB;" width="2.852" height="4.55"/>
				</g>
				<g>
					<rect x="577.421" y="326.186" style="fill:#B8E8CB;" width="2.852" height="4.55"/>
				</g>
				<g>
					
						<rect x="571.161" y="345.037" transform="matrix(-1 -1.224647e-16 1.224647e-16 -1 1145.1736 694.6234)" style="fill:#B8E8CB;" width="2.852" height="4.55"/>
				</g>
				<g>
					<rect x="558.64" y="345.037" style="fill:#B8E8CB;" width="2.852" height="4.55"/>
				</g>
				<g>
					
						<rect x="583.682" y="345.037" transform="matrix(-1 -1.224647e-16 1.224647e-16 -1 1170.2156 694.6234)" style="fill:#B8E8CB;" width="2.852" height="4.55"/>
				</g>
				<g>
					
						<rect x="564.9" y="345.037" transform="matrix(-1 -1.224647e-16 1.224647e-16 -1 1132.6527 694.6234)" style="fill:#B8E8CB;" width="2.852" height="4.55"/>
				</g>
				<g>
					<rect x="552.379" y="345.037" style="fill:#B8E8CB;" width="2.852" height="4.55"/>
				</g>
				<g>
					
						<rect x="589.942" y="345.037" transform="matrix(-1 -1.224647e-16 1.224647e-16 -1 1182.7365 694.6234)" style="fill:#B8E8CB;" width="2.852" height="4.55"/>
				</g>
				<g>
					<rect x="577.421" y="345.037" style="fill:#B8E8CB;" width="2.852" height="4.55"/>
				</g>
				<g>
					
						<rect x="571.161" y="363.887" transform="matrix(-1 -1.224647e-16 1.224647e-16 -1 1145.1736 732.3244)" style="fill:#B8E8CB;" width="2.852" height="4.55"/>
				</g>
				<g>
					<rect x="558.64" y="363.887" style="fill:#B8E8CB;" width="2.852" height="4.55"/>
				</g>
				<g>
					
						<rect x="583.682" y="363.887" transform="matrix(-1 -1.224647e-16 1.224647e-16 -1 1170.2156 732.3244)" style="fill:#B8E8CB;" width="2.852" height="4.55"/>
				</g>
				<g>
					
						<rect x="564.9" y="363.887" transform="matrix(-1 -1.224647e-16 1.224647e-16 -1 1132.6527 732.3244)" style="fill:#B8E8CB;" width="2.852" height="4.55"/>
				</g>
				<g>
					<rect x="552.379" y="363.887" style="fill:#B8E8CB;" width="2.852" height="4.55"/>
				</g>
				<g>
					
						<rect x="589.942" y="363.887" transform="matrix(-1 -1.224647e-16 1.224647e-16 -1 1182.7365 732.3244)" style="fill:#B8E8CB;" width="2.852" height="4.55"/>
				</g>
				<g>
					<rect x="577.421" y="363.887" style="fill:#B8E8CB;" width="2.852" height="4.55"/>
				</g>
				<g>
					
						<rect x="571.161" y="382.738" transform="matrix(-1 -1.224647e-16 1.224647e-16 -1 1145.1736 770.0256)" style="fill:#B8E8CB;" width="2.852" height="4.55"/>
				</g>
				<g>
					<rect x="558.64" y="382.738" style="fill:#B8E8CB;" width="2.852" height="4.55"/>
				</g>
				<g>
					
						<rect x="583.682" y="382.738" transform="matrix(-1 -1.224647e-16 1.224647e-16 -1 1170.2156 770.0256)" style="fill:#B8E8CB;" width="2.852" height="4.55"/>
				</g>
				<g>
					
						<rect x="564.9" y="382.738" transform="matrix(-1 -1.224647e-16 1.224647e-16 -1 1132.6527 770.0256)" style="fill:#B8E8CB;" width="2.852" height="4.55"/>
				</g>
				<g>
					<rect x="552.379" y="382.738" style="fill:#B8E8CB;" width="2.852" height="4.55"/>
				</g>
				<g>
					
						<rect x="589.942" y="382.738" transform="matrix(-1 -1.224647e-16 1.224647e-16 -1 1182.7365 770.0256)" style="fill:#B8E8CB;" width="2.852" height="4.55"/>
				</g>
				<g>
					<rect x="577.421" y="382.738" style="fill:#B8E8CB;" width="2.852" height="4.55"/>
				</g>
				<g>
					<rect x="565.107" y="273.921" style="fill:#4C9365;" width="12.958" height="1.355"/>
				</g>
				<g>
					<rect x="572.044" y="320.331" style="fill:#4C9365;" width="18.325" height="1.355"/>
				</g>
				<g>
					<rect x="554.804" y="320.331" style="fill:#4C9365;" width="12.163" height="1.355"/>
				</g>
				<g>
					<rect x="490.245" y="330.736" style="fill:#4C9365;" width="57.88" height="11.916"/>
				</g>
				<g>
					<rect x="581.413" y="273.921" style="fill:#4C9365;" width="4.131" height="1.355"/>
				</g>
				<g>
					<rect x="517.19" y="334.283" style="fill:#89CDA7;" width="3.99" height="4.821"/>
				</g>
				<g>
					<rect x="527.554" y="334.283" style="fill:#89CDA7;" width="3.99" height="4.821"/>
				</g>
				<g>
					<rect x="537.918" y="334.283" style="fill:#89CDA7;" width="3.99" height="4.821"/>
				</g>
				<g>
					
						<rect x="506.826" y="334.283" transform="matrix(-1 -1.224647e-16 1.224647e-16 -1 1017.6421 673.3877)" style="fill:#89CDA7;" width="3.99" height="4.821"/>
				</g>
				<g>
					
						<rect x="496.462" y="334.283" transform="matrix(-1 -1.224647e-16 1.224647e-16 -1 996.914 673.3877)" style="fill:#89CDA7;" width="3.99" height="4.821"/>
				</g>
			</g>
			<g>
				<path style="fill:#F7B85C;" d="M210.377,360.532h-49.019v39.321h72.85v-15.491C234.207,371.202,223.538,360.532,210.377,360.532
					z"/>
				<g>
					<path style="fill:#F5921D;" d="M183.012,344.889l-7.833-24.848c-2.647-10.382-10.2-17.402-18.905-17.402h-12.245h-12.244
						c-8.705,0-16.258,7.02-18.905,17.402l-7.833,24.848c-0.457,1.793-0.595,3.701-0.407,5.595l4.491,30.181h34.899h34.899
						l4.491-30.181C183.607,348.59,183.469,346.682,183.012,344.889z"/>
				</g>
				<g>
					<g>
						<path style="fill:#F56D1D;" d="M119.299,308.208c-0.722,0.737-1.4,1.539-2.035,2.401h53.529
							c-0.634-0.862-1.313-1.663-2.035-2.401H119.299z"/>
					</g>
					<g>
						<path style="fill:#F56D1D;" d="M113.867,316.938c-0.292,0.777-0.553,1.577-0.784,2.401h61.892
							c-0.231-0.823-0.493-1.624-0.784-2.401H113.867z"/>
					</g>
					<g>
						<polygon style="fill:#F56D1D;" points="111.106,325.667 110.349,328.067 177.709,328.067 176.952,325.667 						"/>
					</g>
					<g>
						<polygon style="fill:#F56D1D;" points="108.354,334.396 107.597,336.797 180.461,336.797 179.704,334.396 						"/>
					</g>
					<g>
						<path style="fill:#F56D1D;" d="M105.046,344.889c-0.053,0.209-0.087,0.424-0.132,0.637h78.229
							c-0.044-0.212-0.078-0.427-0.132-0.637l-0.556-1.764h-76.854L105.046,344.889z"/>
					</g>
					<g>
						<polygon style="fill:#F56D1D;" points="104.843,351.854 105.2,354.255 182.858,354.255 183.215,351.854 						"/>
					</g>
					<g>
						<polygon style="fill:#F56D1D;" points="106.142,360.583 106.499,362.984 181.559,362.984 181.916,360.583 						"/>
					</g>
					<g>
						<polygon style="fill:#F56D1D;" points="180.26,371.713 180.617,369.313 107.44,369.313 107.798,371.713 						"/>
					</g>
				</g>
				<path style="fill:#F7B85C;" d="M154.698,357.764c-3.944-2.878-4.662-11.085-4.662-11.085h-6.008h-6.008
					c0,0-0.718,8.207-4.662,11.085c-3.944,2.878-24.448,6.167-24.448,17.137c0,5.256,0,24.953,0,24.953h35.118h35.118
					c0,0,0-19.697,0-24.953C179.147,363.931,158.642,360.642,154.698,357.764z"/>
				<path style="fill:#F7B85C;" d="M151.703,308.714L151.703,308.714c-5.068-0.992-10.28-0.992-15.347,0
					c-5.609,1.098-9.656,6.014-9.656,11.73v19.573c0,2.484,0.774,4.905,2.214,6.929l0.824,1.157c2.242,3.15,5.87,5.021,9.737,5.021
					h4.554h4.554c3.867,0,7.495-1.871,9.737-5.021l0.824-1.157c1.44-2.023,2.214-4.445,2.214-6.929v-19.574
					C161.358,314.729,157.312,309.813,151.703,308.714z"/>
				<g>
					<path style="fill:#F7B85C;" d="M161.917,325.357h-0.56v10.384h0.56c2.867,0,5.192-2.324,5.192-5.192
						C167.109,327.681,164.784,325.357,161.917,325.357z"/>
				</g>
				<g>
					<path style="fill:#F7B85C;" d="M126.14,325.357c-2.867,0-5.192,2.325-5.192,5.192c0,2.867,2.325,5.192,5.192,5.192h0.56
						v-10.384H126.14z"/>
				</g>
				<g>
					<path style="fill:#F56D1D;" d="M145.169,319.338h-2.281l-2.472-9.475c-0.617-2.365,1.168-4.675,3.612-4.675l0,0
						c2.445,0,4.229,2.31,3.612,4.675L145.169,319.338z"/>
				</g>
				<g>
					<path style="fill:#F56D1D;" d="M144.029,350.667c-1.704,0-2.948,1.61-2.518,3.26l1.522,5.836
						c0.118,0.453,0.527,0.769,0.996,0.769c0.469,0,0.878-0.316,0.996-0.769l1.523-5.836
						C146.977,352.278,145.733,350.667,144.029,350.667z"/>
				</g>
				<g>
					<path style="fill:#F56D1D;" d="M145.857,340.241h-4.721v-1.927c0-0.675,0.11-1.34,0.327-1.977l2.245-6.59l0.998,0.34
						l-2.245,6.591c-0.18,0.527-0.272,1.077-0.272,1.636v0.874h3.667V340.241z"/>
				</g>
				<g>
					<rect x="138.376" y="343.65" style="fill:#F56D1D;" width="10.768" height="1.054"/>
				</g>
				<g>
					<polygon style="fill:#F56D1D;" points="149.268,329.925 148.27,329.586 149.232,326.755 156.419,326.755 156.419,327.809 
						149.987,327.809 					"/>
				</g>
				<g>
					<polygon style="fill:#F56D1D;" points="139.431,329.925 138.711,327.809 132.279,327.809 132.279,326.755 139.466,326.755 
						140.429,329.586 					"/>
				</g>
				<g>
					<rect x="148.136" y="322.691" style="fill:#F56D1D;" width="8.714" height="1.054"/>
				</g>
				<g>
					<rect x="131.208" y="322.691" style="fill:#F56D1D;" width="8.714" height="1.054"/>
				</g>
				<path style="fill:#F5921D;" d="M175.236,384.77h-6.976c-5.623,0-10.182,4.559-10.182,10.182v4.901h27.34v-4.901
					C185.419,389.329,180.86,384.77,175.236,384.77z"/>
				<g>
					<polygon style="fill:#F56D1D;" points="167.033,399.638 165.979,399.638 165.997,393.061 167.093,388.984 168.11,389.258 
						167.033,393.268 					"/>
				</g>
				<g>
					<polygon style="fill:#F56D1D;" points="178.466,399.638 177.413,399.638 177.413,393.268 176.335,389.258 177.352,388.984 
						178.466,393.198 					"/>
				</g>
				<path style="fill:#F5921D;" d="M224.025,384.77h-6.976c-5.623,0-10.182,4.559-10.182,10.182v4.901h27.34v-4.901
					C234.207,389.329,229.648,384.77,224.025,384.77z"/>
				<path style="fill:#F5921D;" d="M119.797,384.77h-6.976c-5.623,0-10.182,4.559-10.182,10.182v4.901h27.34v-4.901
					C129.979,389.329,125.421,384.77,119.797,384.77z"/>
				<g>
					<polygon style="fill:#F56D1D;" points="122.079,399.638 121.025,399.638 121.025,393.268 119.947,389.258 120.964,388.984 
						122.079,393.198 					"/>
				</g>
				<g>
					<polygon style="fill:#F56D1D;" points="110.645,399.638 109.591,399.638 109.61,393.061 110.706,388.984 111.723,389.258 
						110.645,393.268 					"/>
				</g>
				<path style="fill:#F56D1D;" d="M146.637,381.571h-5.215c-2.901,0-5.253,2.352-5.253,5.253v13.03h15.721v-13.03
					C151.889,383.922,149.538,381.571,146.637,381.571z"/>
				<g>
					<path style="fill:#F56D1D;" d="M213.493,399.854h-1.054v-3.835c0-2.514,1.11-4.874,3.047-6.477l0.738-0.611l0.673,0.811
						l-0.739,0.612c-1.694,1.402-2.665,3.466-2.665,5.665V399.854z"/>
				</g>
				<g>
					<rect x="185.418" y="366.62" style="fill:#F5921D;" width="23.794" height="1.054"/>
				</g>
				<g>
					<path style="fill:#F5921D;" d="M226.574,381.57h-1.054c0-3.687-2.683-5.545-4.933-6.452c-0.964-0.389-2.044-0.587-3.208-0.587
						h-10.513v-1.054h10.513c1.3,0,2.512,0.223,3.603,0.663C223.071,374.983,226.574,377.07,226.574,381.57z"/>
				</g>
				<g>
					<rect x="183.5" y="382.392" style="fill:#F5921D;" width="3.446" height="1.054"/>
				</g>
				<g>
					<rect x="192.906" y="382.392" style="fill:#F5921D;" width="16.307" height="1.054"/>
				</g>
				<g>
					<rect x="190.116" y="391.785" style="fill:#F5921D;" width="5.452" height="1.054"/>
				</g>
				<g>
					<rect x="195.568" y="373.478" style="fill:#F5921D;" width="3.424" height="1.054"/>
				</g>
				<g>
					<rect x="144.029" y="369.987" style="fill:#F5921D;" width="10.891" height="1.054"/>
				</g>
				<g>
					<rect x="159.462" y="377.261" style="fill:#F5921D;" width="8.661" height="1.054"/>
				</g>
				<g>
					<rect x="132.1" y="377.261" style="fill:#F5921D;" width="6.867" height="1.054"/>
				</g>
				<g>
					<rect x="115.519" y="369.987" style="fill:#F5921D;" width="11.181" height="1.054"/>
				</g>
				<g>
					<rect x="150.695" y="364.615" style="fill:#F5921D;" width="4.753" height="1.054"/>
				</g>
				<g>
					<rect x="113.301" y="381.043" style="fill:#F5921D;" width="6.655" height="1.054"/>
				</g>
				<g>
					<rect x="157.35" y="385.53" style="fill:#F5921D;" width="2.113" height="1.054"/>
				</g>
				<g>
					<rect x="166.506" y="369.987" style="fill:#F5921D;" width="5.243" height="1.054"/>
				</g>
				<g>
					<rect x="131.153" y="364.615" style="fill:#F5921D;" width="7.224" height="1.054"/>
				</g>
			</g>
			<g>
				<g>
					<path style="fill:#F4B8B3;" d="M647.831,336.01l-9.684-17.607c-1.567-2.849-4.561-4.619-7.812-4.619h-8.182h-8.182
						c-3.252,0-6.245,1.77-7.812,4.619l-9.684,17.607c-0.701,1.275,0.221,2.835,1.676,2.835h24.002h24.002
						C647.61,338.845,648.532,337.285,647.831,336.01z"/>
				</g>
				<g>
					<path style="fill:#EA978C;" d="M643.623,338.845h-21.47h-21.471l-5.892,21.031c-1.14,4.07-1.718,8.276-1.718,12.502v27.476
						h29.081h29.081v-27.476c0-4.226-0.578-8.432-1.718-12.502L643.623,338.845z"/>
				</g>
				<g>
					<path style="fill:#D36D66;" d="M622.153,373.409c-5.329,0-9.65,4.32-9.65,9.649v16.795h19.299v-16.795
						C631.803,377.73,627.482,373.409,622.153,373.409z"/>
				</g>
				<g>
					<rect x="626.574" y="351.249" style="fill:#D36D66;" width="10.458" height="10.458"/>
				</g>
				<g>
					
						<rect x="607.275" y="351.249" transform="matrix(-1 -1.224647e-16 1.224647e-16 -1 1225.007 712.9567)" style="fill:#D36D66;" width="10.458" height="10.458"/>
				</g>
				<g>
					<g>
						<g>
							
								<rect x="637.27" y="261.81" transform="matrix(0.8726 0.4884 -0.4884 0.8726 226.0845 -274.3389)" style="fill:#D36D66;" width="3.412" height="68.892"/>
						</g>
						<g>
							
								<rect x="654.492" y="268.671" transform="matrix(0.8726 0.4884 -0.4884 0.8726 217.3941 -287.0771)" style="fill:#F4B8B3;" width="9.085" height="9.085"/>
						</g>
						<g>
							
								<rect x="650.055" y="276.599" transform="matrix(0.8726 0.4884 -0.4884 0.8726 220.6979 -283.8976)" style="fill:#F4B8B3;" width="9.085" height="9.085"/>
						</g>
						<g>
							
								<rect x="645.617" y="284.527" transform="matrix(0.8726 0.4884 -0.4884 0.8726 224.0078 -280.7229)" style="fill:#F4B8B3;" width="9.085" height="9.085"/>
						</g>
						<g>
							
								<rect x="641.18" y="292.455" transform="matrix(0.8726 0.4884 -0.4884 0.8726 227.3 -277.5352)" style="fill:#F4B8B3;" width="9.085" height="9.085"/>
						</g>
						<g>
							
								<rect x="636.743" y="300.383" transform="matrix(0.8726 0.4884 -0.4884 0.8726 230.6127 -274.3625)" style="fill:#F4B8B3;" width="9.085" height="9.085"/>
						</g>
						<g>
							
								<rect x="632.306" y="308.311" transform="matrix(0.8726 0.4884 -0.4884 0.8726 233.9164 -271.1833)" style="fill:#F4B8B3;" width="9.085" height="9.085"/>
						</g>
						<g>
							<g>
								<g>
									<path style="fill:#EA978C;" d="M660.516,274.043c-0.458,0.818-1.492,1.11-2.311,0.652c-0.818-0.458-1.11-1.492-0.652-2.311
										s1.492-1.11,2.311-0.652C660.682,272.19,660.974,273.225,660.516,274.043z"/>
								</g>
							</g>
							<g>
								<g>
									
										<rect x="657.872" y="270.831" transform="matrix(0.4882 -0.8728 0.8728 0.4882 101.1693 714.9706)" style="fill:#EA978C;" width="4.543" height="0.802"/>
								</g>
							</g>
							<g>
								<g>
									
										<rect x="660.615" y="272.052" transform="matrix(0.4884 -0.8726 0.8726 0.4884 98.8038 717.1699)" style="fill:#EA978C;" width="0.802" height="4.543"/>
								</g>
							</g>
							<g>
								<g>
									
										<rect x="655.654" y="274.795" transform="matrix(0.488 -0.8729 0.8729 0.488 96.6698 715.1853)" style="fill:#EA978C;" width="4.542" height="0.802"/>
								</g>
							</g>
							<g>
								<g>
									
										<rect x="656.651" y="269.834" transform="matrix(0.4884 -0.8726 0.8726 0.4884 98.6872 712.5444)" style="fill:#EA978C;" width="0.802" height="4.542"/>
								</g>
							</g>
							<g>
								<g>
									<path style="fill:#EA978C;" d="M656.079,281.971c-0.458,0.818-1.493,1.11-2.311,0.652c-0.818-0.458-1.11-1.492-0.652-2.311
										c0.458-0.818,1.492-1.11,2.311-0.652C656.244,280.118,656.536,281.153,656.079,281.971z"/>
								</g>
							</g>
							<g>
								<g>
									
										<rect x="653.435" y="278.759" transform="matrix(0.4882 -0.8727 0.8727 0.4882 91.9527 715.1218)" style="fill:#EA978C;" width="4.543" height="0.802"/>
								</g>
							</g>
							<g>
								<g>
									
										<rect x="656.178" y="279.98" transform="matrix(0.4885 -0.8726 0.8726 0.4885 89.5783 717.3054)" style="fill:#EA978C;" width="0.802" height="4.542"/>
								</g>
							</g>
							<g>
								<g>
									
										<rect x="651.217" y="282.723" transform="matrix(0.4881 -0.8728 0.8728 0.4881 87.4257 715.3032)" style="fill:#EA978C;" width="4.542" height="0.802"/>
								</g>
							</g>
							<g>
								<g>
									
										<rect x="652.214" y="277.761" transform="matrix(0.4884 -0.8726 0.8726 0.4884 89.5367 712.7768)" style="fill:#EA978C;" width="0.802" height="4.543"/>
								</g>
							</g>
							<g>
								<g>
									<path style="fill:#EA978C;" d="M651.641,289.899c-0.458,0.818-1.492,1.11-2.311,0.652c-0.818-0.458-1.11-1.492-0.652-2.311
										c0.458-0.818,1.492-1.11,2.311-0.652C651.807,288.046,652.099,289.081,651.641,289.899z"/>
								</g>
							</g>
							<g>
								<g>
									
										<rect x="648.998" y="286.687" transform="matrix(0.4881 -0.8728 0.8728 0.4881 82.8041 715.3614)" style="fill:#EA978C;" width="4.543" height="0.802"/>
								</g>
							</g>
							<g>
								<g>
									
										<rect x="651.741" y="287.908" transform="matrix(0.4884 -0.8726 0.8726 0.4884 80.3953 717.4949)" style="fill:#EA978C;" width="0.802" height="4.542"/>
								</g>
							</g>
							<g>
								<g>
									
										<rect x="646.78" y="290.651" transform="matrix(0.4881 -0.8728 0.8728 0.4881 78.2143 715.4614)" style="fill:#EA978C;" width="4.542" height="0.802"/>
								</g>
							</g>
							<g>
								<g>
									
										<rect x="647.777" y="285.689" transform="matrix(0.4884 -0.8726 0.8726 0.4884 80.3431 712.9539)" style="fill:#EA978C;" width="0.802" height="4.543"/>
								</g>
							</g>
							<g>
								<g>
									<path style="fill:#EA978C;" d="M647.204,297.827c-0.458,0.818-1.492,1.11-2.311,0.652c-0.818-0.458-1.11-1.492-0.652-2.311
										c0.458-0.818,1.492-1.11,2.311-0.652C647.37,295.974,647.662,297.008,647.204,297.827z"/>
								</g>
							</g>
							<g>
								<g>
									
										<rect x="644.561" y="294.614" transform="matrix(0.4881 -0.8728 0.8728 0.4881 73.6392 715.5815)" style="fill:#EA978C;" width="4.543" height="0.802"/>
								</g>
							</g>
							<g>
								<g>
									
										<rect x="647.303" y="295.836" transform="matrix(0.4884 -0.8726 0.8726 0.4884 71.2105 717.6825)" style="fill:#EA978C;" width="0.802" height="4.542"/>
								</g>
							</g>
							<g>
								<g>
									
										<rect x="642.342" y="298.578" transform="matrix(0.4882 -0.8727 0.8727 0.4882 68.995 715.6071)" style="fill:#EA978C;" width="4.542" height="0.802"/>
								</g>
							</g>
							<g>
								<g>
									
										<rect x="643.339" y="293.617" transform="matrix(0.4884 -0.8726 0.8726 0.4884 71.1478 713.1285)" style="fill:#EA978C;" width="0.802" height="4.543"/>
								</g>
							</g>
							<g>
								<g>
									<path style="fill:#EA978C;" d="M642.767,305.755c-0.458,0.818-1.492,1.11-2.311,0.652c-0.818-0.458-1.11-1.492-0.652-2.311
										c0.458-0.818,1.492-1.11,2.311-0.652C642.933,303.902,643.225,304.936,642.767,305.755z"/>
								</g>
							</g>
							<g>
								<g>
									
										<rect x="640.123" y="302.542" transform="matrix(0.4881 -0.8728 0.8728 0.4881 64.4231 715.7319)" style="fill:#EA978C;" width="4.543" height="0.802"/>
								</g>
							</g>
							<g>
								<g>
									
										<rect x="642.866" y="303.763" transform="matrix(0.4884 -0.8726 0.8726 0.4884 62.059 717.9172)" style="fill:#EA978C;" width="0.802" height="4.543"/>
								</g>
							</g>
							<g>
								<g>
									
										<rect x="637.905" y="306.506" transform="matrix(0.4881 -0.8728 0.8728 0.4881 59.8527 715.8599)" style="fill:#EA978C;" width="4.542" height="0.802"/>
								</g>
							</g>
							<g>
								<g>
									
										<rect x="638.903" y="301.545" transform="matrix(0.4885 -0.8726 0.8726 0.4885 61.9239 713.2622)" style="fill:#EA978C;" width="0.802" height="4.542"/>
								</g>
							</g>
							<g>
								<g>
									<path style="fill:#EA978C;" d="M638.33,313.682c-0.458,0.818-1.492,1.11-2.311,0.652c-0.818-0.458-1.11-1.492-0.652-2.31
										c0.458-0.818,1.492-1.11,2.311-0.652C638.496,311.83,638.788,312.864,638.33,313.682z"/>
								</g>
							</g>
							<g>
								<g>
									
										<rect x="635.686" y="310.47" transform="matrix(0.4881 -0.8728 0.8728 0.4881 55.2345 715.9201)" style="fill:#EA978C;" width="4.543" height="0.802"/>
								</g>
							</g>
							<g>
								<g>
									
										<rect x="638.429" y="311.691" transform="matrix(0.4884 -0.8726 0.8726 0.4884 52.8705 718.1011)" style="fill:#EA978C;" width="0.802" height="4.543"/>
								</g>
							</g>
							<g>
								<g>
									
										<rect x="633.468" y="314.434" transform="matrix(0.4882 -0.8727 0.8727 0.4882 50.5936 715.9462)" style="fill:#EA978C;" width="4.542" height="0.802"/>
								</g>
							</g>
							<g>
								<g>
									
										<rect x="634.465" y="309.473" transform="matrix(0.4885 -0.8726 0.8726 0.4885 52.7363 713.4457)" style="fill:#EA978C;" width="0.802" height="4.542"/>
								</g>
							</g>
						</g>
					</g>
					<g>
						<g>
							
								<rect x="650.505" y="308.692" transform="matrix(-0.4884 0.8726 -0.8726 -0.4884 1270.1809 -58.4055)" style="fill:#D36D66;" width="3.412" height="68.892"/>
						</g>
						<g>
							
								<rect x="670.712" y="358.654" transform="matrix(-0.4884 0.8726 -0.8726 -0.4884 1321.9805 -48.6588)" style="fill:#F4B8B3;" width="9.085" height="9.085"/>
						</g>
						<g>
							
								<rect x="662.784" y="354.216" transform="matrix(-0.4884 0.8726 -0.8726 -0.4884 1306.3087 -48.3451)" style="fill:#F4B8B3;" width="9.085" height="9.085"/>
						</g>
						<g>
							
								<rect x="654.856" y="349.779" transform="matrix(-0.4884 0.8726 -0.8726 -0.4884 1290.6351 -48.034)" style="fill:#F4B8B3;" width="9.085" height="9.085"/>
						</g>
						<g>
							
								<rect x="646.928" y="345.342" transform="matrix(-0.4884 0.8726 -0.8726 -0.4884 1274.9585 -47.7278)" style="fill:#F4B8B3;" width="9.085" height="9.085"/>
						</g>
						<g>
							
								<rect x="639" y="340.905" transform="matrix(-0.4884 0.8726 -0.8726 -0.4884 1259.2936 -47.4032)" style="fill:#F4B8B3;" width="9.085" height="9.085"/>
						</g>
						<g>
							
								<rect x="631.072" y="336.468" transform="matrix(-0.4884 0.8726 -0.8726 -0.4884 1243.6213 -47.0902)" style="fill:#F4B8B3;" width="9.085" height="9.085"/>
						</g>
						<g>
							<g>
								<g>
									<path style="fill:#EA978C;" d="M674.425,364.678c-0.818-0.458-1.11-1.493-0.652-2.311c0.458-0.818,1.492-1.11,2.311-0.652
										c0.818,0.458,1.11,1.493,0.652,2.311C676.278,364.844,675.243,365.135,674.425,364.678z"/>
								</g>
							</g>
							<g>
								<g>
									
										<rect x="676.835" y="362.034" transform="matrix(0.4881 -0.8728 0.8728 0.4881 28.7024 777.5498)" style="fill:#EA978C;" width="0.802" height="4.543"/>
								</g>
							</g>
							<g>
								<g>
									
										<rect x="671.873" y="364.777" transform="matrix(0.4884 -0.8726 0.8726 0.4884 26.2426 775.1157)" style="fill:#EA978C;" width="4.543" height="0.802"/>
								</g>
							</g>
							<g>
								<g>
									
										<rect x="672.871" y="359.815" transform="matrix(0.4882 -0.8727 0.8727 0.4882 28.59 772.9236)" style="fill:#EA978C;" width="0.802" height="4.542"/>
								</g>
							</g>
							<g>
								<g>
									
										<rect x="674.092" y="360.813" transform="matrix(0.4885 -0.8726 0.8726 0.4885 30.7923 774.9543)" style="fill:#EA978C;" width="4.542" height="0.802"/>
								</g>
							</g>
							<g>
								<g>
									<path style="fill:#EA978C;" d="M666.497,360.24c-0.818-0.458-1.11-1.492-0.652-2.311c0.458-0.818,1.492-1.11,2.31-0.652
										c0.818,0.458,1.11,1.492,0.652,2.311C668.35,360.406,667.315,360.698,666.497,360.24z"/>
								</g>
							</g>
							<g>
								<g>
									
										<rect x="668.907" y="357.597" transform="matrix(0.4883 -0.8727 0.8727 0.4883 28.4527 768.259)" style="fill:#EA978C;" width="0.802" height="4.543"/>
								</g>
							</g>
							<g>
								<g>
									
										<rect x="663.945" y="360.34" transform="matrix(0.4884 -0.8726 0.8726 0.4884 26.0312 765.8848)" style="fill:#EA978C;" width="4.542" height="0.802"/>
								</g>
							</g>
							<g>
								<g>
									
										<rect x="664.943" y="355.379" transform="matrix(0.4881 -0.8728 0.8728 0.4881 28.429 763.7725)" style="fill:#EA978C;" width="0.802" height="4.542"/>
								</g>
							</g>
							<g>
								<g>
									
										<rect x="666.164" y="356.376" transform="matrix(0.4884 -0.8726 0.8726 0.4884 30.656 765.8409)" style="fill:#EA978C;" width="4.543" height="0.802"/>
								</g>
							</g>
							<g>
								<g>
									<path style="fill:#EA978C;" d="M658.569,355.803c-0.818-0.458-1.11-1.492-0.652-2.31c0.458-0.818,1.492-1.11,2.311-0.652
										c0.818,0.458,1.11,1.492,0.652,2.311C660.422,355.969,659.387,356.261,658.569,355.803z"/>
								</g>
							</g>
							<g>
								<g>
									
										<rect x="660.979" y="353.16" transform="matrix(0.4882 -0.8727 0.8727 0.4882 28.2865 759.0991)" style="fill:#EA978C;" width="0.802" height="4.543"/>
								</g>
							</g>
							<g>
								<g>
									
										<rect x="656.018" y="355.903" transform="matrix(0.4885 -0.8726 0.8726 0.4885 25.8356 756.6779)" style="fill:#EA978C;" width="4.542" height="0.802"/>
								</g>
							</g>
							<g>
								<g>
									
										<rect x="657.015" y="350.942" transform="matrix(0.4881 -0.8728 0.8728 0.4881 28.263 754.6121)" style="fill:#EA978C;" width="0.802" height="4.542"/>
								</g>
							</g>
							<g>
								<g>
									
										<rect x="658.236" y="351.939" transform="matrix(0.4884 -0.8726 0.8726 0.4884 30.472 756.6525)" style="fill:#EA978C;" width="4.543" height="0.802"/>
								</g>
							</g>
							<g>
								<g>
									<path style="fill:#EA978C;" d="M650.641,351.366c-0.818-0.458-1.11-1.492-0.652-2.311c0.458-0.818,1.492-1.11,2.311-0.652
										c0.818,0.458,1.11,1.492,0.652,2.311C652.494,351.532,651.459,351.824,650.641,351.366z"/>
								</g>
							</g>
							<g>
								<g>
									
										<rect x="653.051" y="348.723" transform="matrix(0.4881 -0.8728 0.8728 0.4881 28.1754 750.0247)" style="fill:#EA978C;" width="0.802" height="4.543"/>
								</g>
							</g>
							<g>
								<g>
									
										<rect x="648.09" y="351.465" transform="matrix(0.4885 -0.8726 0.8726 0.4885 25.6446 747.4783)" style="fill:#EA978C;" width="4.542" height="0.802"/>
								</g>
							</g>
							<g>
								<g>
									
										<rect x="649.087" y="346.504" transform="matrix(0.488 -0.8728 0.8728 0.488 28.1073 745.4678)" style="fill:#EA978C;" width="0.802" height="4.542"/>
								</g>
							</g>
							<g>
								<g>
									
										<rect x="650.308" y="347.501" transform="matrix(0.4884 -0.8726 0.8726 0.4884 30.2923 747.4708)" style="fill:#EA978C;" width="4.543" height="0.802"/>
								</g>
							</g>
							<g>
								<g>
									<path style="fill:#EA978C;" d="M642.713,346.929c-0.818-0.458-1.11-1.492-0.652-2.311c0.458-0.818,1.492-1.11,2.311-0.652
										c0.818,0.458,1.11,1.492,0.652,2.311C644.566,347.095,643.532,347.387,642.713,346.929z"/>
								</g>
							</g>
							<g>
								<g>
									
										<rect x="645.123" y="344.285" transform="matrix(0.488 -0.8728 0.8728 0.488 28.0087 740.8631)" style="fill:#EA978C;" width="0.802" height="4.543"/>
								</g>
							</g>
							<g>
								<g>
									
										<rect x="640.162" y="347.028" transform="matrix(0.4884 -0.8726 0.8726 0.4884 25.5095 738.3679)" style="fill:#EA978C;" width="4.543" height="0.802"/>
								</g>
							</g>
							<g>
								<g>
									
										<rect x="641.16" y="342.067" transform="matrix(0.4882 -0.8727 0.8727 0.4882 27.8493 736.1633)" style="fill:#EA978C;" width="0.802" height="4.542"/>
								</g>
							</g>
							<g>
								<g>
									
										<rect x="642.381" y="343.064" transform="matrix(0.4885 -0.8726 0.8726 0.4885 30.0612 738.2097)" style="fill:#EA978C;" width="4.542" height="0.802"/>
								</g>
							</g>
							<g>
								<g>
									<path style="fill:#EA978C;" d="M634.785,342.492c-0.818-0.458-1.11-1.492-0.652-2.311c0.458-0.818,1.492-1.11,2.31-0.652
										c0.818,0.458,1.11,1.492,0.652,2.311C636.638,342.658,635.604,342.95,634.785,342.492z"/>
								</g>
							</g>
							<g>
								<g>
									
										<rect x="637.196" y="339.848" transform="matrix(0.488 -0.8728 0.8728 0.488 27.8228 731.6716)" style="fill:#EA978C;" width="0.802" height="4.543"/>
								</g>
							</g>
							<g>
								<g>
									
										<rect x="632.234" y="342.591" transform="matrix(0.4884 -0.8726 0.8726 0.4884 25.3297 729.186)" style="fill:#EA978C;" width="4.543" height="0.802"/>
								</g>
							</g>
							<g>
								<g>
									
										<rect x="633.232" y="337.63" transform="matrix(0.488 -0.8728 0.8728 0.488 27.7299 727.0759)" style="fill:#EA978C;" width="0.802" height="4.542"/>
								</g>
							</g>
							<g>
								<g>
									
										<rect x="634.453" y="338.627" transform="matrix(0.4885 -0.8726 0.8726 0.4885 29.8754 729.0185)" style="fill:#EA978C;" width="4.542" height="0.802"/>
								</g>
							</g>
						</g>
					</g>
					<g>
						<g>
							
								<rect x="603.623" y="321.927" transform="matrix(-0.8726 -0.4884 0.4884 -0.8726 959.4994 962.9948)" style="fill:#D36D66;" width="3.412" height="68.893"/>
						</g>
						<g>
							
								<rect x="580.729" y="374.873" transform="matrix(-0.8726 -0.4884 0.4884 -0.8726 910.6845 996.3488)" style="fill:#F4B8B3;" width="9.085" height="9.085"/>
						</g>
						<g>
							
								<rect x="585.166" y="366.946" transform="matrix(-0.8726 -0.4884 0.4884 -0.8726 922.8716 983.6668)" style="fill:#F4B8B3;" width="9.085" height="9.085"/>
						</g>
						<g>
							
								<rect x="589.604" y="359.018" transform="matrix(-0.8726 -0.4884 0.4884 -0.8726 935.0436 970.993)" style="fill:#F4B8B3;" width="9.085" height="9.085"/>
						</g>
						<g>
							
								<rect x="594.041" y="351.09" transform="matrix(-0.8726 -0.4884 0.4884 -0.8726 947.2249 958.3143)" style="fill:#F4B8B3;" width="9.085" height="9.085"/>
						</g>
						<g>
							
								<rect x="598.478" y="343.162" transform="matrix(-0.8726 -0.4884 0.4884 -0.8726 959.4092 945.6336)" style="fill:#F4B8B3;" width="9.085" height="9.085"/>
						</g>
						<g>
							
								<rect x="602.915" y="335.234" transform="matrix(-0.8726 -0.4884 0.4884 -0.8726 971.5903 932.9548)" style="fill:#F4B8B3;" width="9.085" height="9.085"/>
						</g>
						<g>
							<g>
								<g>
									<path style="fill:#EA978C;" d="M583.79,378.587c0.458-0.818,1.492-1.11,2.311-0.652c0.818,0.458,1.11,1.492,0.652,2.311
										c-0.458,0.818-1.492,1.11-2.311,0.652C583.625,380.44,583.332,379.405,583.79,378.587z"/>
								</g>
							</g>
							<g>
								<g>
									
										<rect x="581.891" y="380.997" transform="matrix(0.4883 -0.8727 0.8727 0.4883 -33.9102 704.966)" style="fill:#EA978C;" width="4.543" height="0.802"/>
								</g>
							</g>
							<g>
								<g>
									
										<rect x="582.889" y="376.035" transform="matrix(0.4884 -0.8726 0.8726 0.4884 -31.6972 702.5496)" style="fill:#EA978C;" width="0.802" height="4.543"/>
								</g>
							</g>
							<g>
								<g>
									
										<rect x="584.11" y="377.033" transform="matrix(0.4881 -0.8728 0.8728 0.4881 -29.2577 704.9826)" style="fill:#EA978C;" width="4.542" height="0.802"/>
								</g>
							</g>
							<g>
								<g>
									
										<rect x="586.853" y="378.254" transform="matrix(0.4884 -0.8726 0.8726 0.4884 -31.6306 707.0958)" style="fill:#EA978C;" width="0.802" height="4.542"/>
								</g>
							</g>
							<g>
								<g>
									<path style="fill:#EA978C;" d="M588.227,370.659c0.458-0.818,1.492-1.11,2.311-0.652c0.818,0.458,1.11,1.492,0.652,2.311
										c-0.458,0.818-1.492,1.11-2.311,0.652C588.062,372.512,587.77,371.477,588.227,370.659z"/>
								</g>
							</g>
							<g>
								<g>
									
										<rect x="586.328" y="373.069" transform="matrix(0.4881 -0.8728 0.8728 0.4881 -24.6466 704.9189)" style="fill:#EA978C;" width="4.543" height="0.802"/>
								</g>
							</g>
							<g>
								<g>
									
										<rect x="587.326" y="368.107" transform="matrix(0.4884 -0.8726 0.8726 0.4884 -22.5312 702.3246)" style="fill:#EA978C;" width="0.802" height="4.542"/>
								</g>
							</g>
							<g>
								<g>
									
										<rect x="588.547" y="369.105" transform="matrix(0.488 -0.8728 0.8728 0.488 -20.0309 704.863)" style="fill:#EA978C;" width="4.542" height="0.802"/>
								</g>
							</g>
							<g>
								<g>
									
										<rect x="591.29" y="370.326" transform="matrix(0.4884 -0.8726 0.8726 0.4884 -22.4207 706.9529)" style="fill:#EA978C;" width="0.802" height="4.543"/>
								</g>
							</g>
							<g>
								<g>
									<path style="fill:#EA978C;" d="M592.665,362.731c0.458-0.818,1.492-1.11,2.311-0.652c0.818,0.458,1.11,1.492,0.652,2.311
										s-1.492,1.11-2.311,0.652C592.499,364.584,592.207,363.549,592.665,362.731z"/>
								</g>
							</g>
							<g>
								<g>
									
										<rect x="590.765" y="365.141" transform="matrix(0.4881 -0.8728 0.8728 0.4881 -15.4534 704.7375)" style="fill:#EA978C;" width="4.543" height="0.802"/>
								</g>
							</g>
							<g>
								<g>
									
										<rect x="591.763" y="360.18" transform="matrix(0.4884 -0.8726 0.8726 0.4884 -13.347 702.1345)" style="fill:#EA978C;" width="0.802" height="4.542"/>
								</g>
							</g>
							<g>
								<g>
									
										<rect x="592.984" y="361.177" transform="matrix(0.4881 -0.8728 0.8728 0.4881 -10.8603 704.6403)" style="fill:#EA978C;" width="4.542" height="0.802"/>
								</g>
							</g>
							<g>
								<g>
									
										<rect x="595.727" y="362.398" transform="matrix(0.4884 -0.8726 0.8726 0.4884 -13.2386 706.7582)" style="fill:#EA978C;" width="0.802" height="4.543"/>
								</g>
							</g>
							<g>
								<g>
									<path style="fill:#EA978C;" d="M597.102,354.803c0.458-0.818,1.492-1.11,2.311-0.652c0.818,0.458,1.11,1.492,0.652,2.31
										c-0.458,0.818-1.492,1.11-2.311,0.652C596.936,356.656,596.644,355.621,597.102,354.803z"/>
								</g>
							</g>
							<g>
								<g>
									
										<rect x="595.203" y="357.213" transform="matrix(0.4881 -0.8728 0.8728 0.4881 -6.2859 704.5108)" style="fill:#EA978C;" width="4.543" height="0.802"/>
								</g>
							</g>
							<g>
								<g>
									
										<rect x="596.2" y="352.252" transform="matrix(0.4884 -0.8726 0.8726 0.4884 -4.1588 701.9517)" style="fill:#EA978C;" width="0.802" height="4.542"/>
								</g>
							</g>
							<g>
								<g>
									
										<rect x="597.422" y="353.249" transform="matrix(0.4881 -0.8728 0.8728 0.4881 -1.6667 704.4592)" style="fill:#EA978C;" width="4.542" height="0.802"/>
								</g>
							</g>
							<g>
								<g>
									
										<rect x="600.164" y="354.47" transform="matrix(0.4884 -0.8726 0.8726 0.4884 -4.0408 706.5909)" style="fill:#EA978C;" width="0.802" height="4.543"/>
								</g>
							</g>
							<g>
								<g>
									<path style="fill:#EA978C;" d="M601.539,346.875c0.458-0.818,1.492-1.11,2.311-0.652c0.818,0.458,1.11,1.493,0.652,2.311
										c-0.458,0.818-1.492,1.11-2.311,0.652C601.373,348.728,601.081,347.693,601.539,346.875z"/>
								</g>
							</g>
							<g>
								<g>
									
										<rect x="599.64" y="349.285" transform="matrix(0.4882 -0.8727 0.8727 0.4882 2.8706 704.2681)" style="fill:#EA978C;" width="4.543" height="0.802"/>
								</g>
							</g>
							<g>
								<g>
									
										<rect x="600.637" y="344.324" transform="matrix(0.4884 -0.8726 0.8726 0.4884 5.0452 701.7955)" style="fill:#EA978C;" width="0.802" height="4.543"/>
								</g>
							</g>
							<g>
								<g>
									
										<rect x="601.859" y="345.321" transform="matrix(0.4882 -0.8727 0.8727 0.4882 7.4609 704.168)" style="fill:#EA978C;" width="4.542" height="0.802"/>
								</g>
							</g>
							<g>
								<g>
									
										<rect x="604.601" y="346.543" transform="matrix(0.4884 -0.8726 0.8726 0.4884 5.1201 706.361)" style="fill:#EA978C;" width="0.802" height="4.542"/>
								</g>
							</g>
							<g>
								<g>
									<path style="fill:#EA978C;" d="M605.976,338.948c0.458-0.818,1.492-1.11,2.311-0.652c0.818,0.458,1.11,1.492,0.652,2.311
										c-0.458,0.818-1.492,1.11-2.31,0.652C605.81,340.8,605.518,339.766,605.976,338.948z"/>
								</g>
							</g>
							<g>
								<g>
									
										<rect x="604.077" y="341.358" transform="matrix(0.4882 -0.8727 0.8727 0.4882 12.0604 704.0834)" style="fill:#EA978C;" width="4.543" height="0.802"/>
								</g>
							</g>
							<g>
								<g>
									
										<rect x="605.075" y="336.396" transform="matrix(0.4884 -0.8726 0.8726 0.4884 14.2294 701.6053)" style="fill:#EA978C;" width="0.802" height="4.543"/>
								</g>
							</g>
							<g>
								<g>
									
										<rect x="606.296" y="337.394" transform="matrix(0.4883 -0.8727 0.8727 0.4883 16.633 703.955)" style="fill:#EA978C;" width="4.542" height="0.802"/>
								</g>
							</g>
							<g>
								<g>
									
										<rect x="609.039" y="338.615" transform="matrix(0.4884 -0.8726 0.8726 0.4884 14.3117 706.1838)" style="fill:#EA978C;" width="0.802" height="4.542"/>
								</g>
							</g>
						</g>
					</g>
					<g>
						<g>
							
								<rect x="590.388" y="275.045" transform="matrix(0.4884 -0.8726 0.8726 0.4884 32.8473 675.0093)" style="fill:#D36D66;" width="3.412" height="68.892"/>
						</g>
						<g>
							
								<rect x="564.509" y="284.891" transform="matrix(0.4884 -0.8726 0.8726 0.4884 38.5613 644.6401)" style="fill:#F4B8B3;" width="9.085" height="9.085"/>
						</g>
						<g>
							
								<rect x="572.437" y="289.328" transform="matrix(0.4884 -0.8726 0.8726 0.4884 38.7452 653.8282)" style="fill:#F4B8B3;" width="9.085" height="9.085"/>
						</g>
						<g>
							
								<rect x="580.365" y="293.766" transform="matrix(0.4884 -0.8726 0.8726 0.4884 38.9296 663.017)" style="fill:#F4B8B3;" width="9.085" height="9.085"/>
						</g>
						<g>
							
								<rect x="588.293" y="298.203" transform="matrix(0.4884 -0.8726 0.8726 0.4884 39.113 672.2044)" style="fill:#F4B8B3;" width="9.085" height="9.085"/>
						</g>
						<g>
							
								<rect x="596.221" y="302.64" transform="matrix(0.4884 -0.8726 0.8726 0.4884 39.2965 681.3918)" style="fill:#F4B8B3;" width="9.085" height="9.085"/>
						</g>
						<g>
							
								<rect x="604.149" y="307.077" transform="matrix(0.4884 -0.8726 0.8726 0.4884 39.4805 690.58)" style="fill:#F4B8B3;" width="9.085" height="9.085"/>
						</g>
						<g>
							<g>
								<g>
									<path style="fill:#EA978C;" d="M569.881,287.952c0.818,0.458,1.11,1.492,0.652,2.311c-0.458,0.818-1.492,1.11-2.311,0.652
										c-0.818-0.458-1.11-1.492-0.652-2.311C568.028,287.786,569.063,287.494,569.881,287.952z"/>
								</g>
							</g>
							<g>
								<g>
									
										<rect x="566.669" y="286.053" transform="matrix(0.488 -0.8728 0.8728 0.488 38.6642 642.5656)" style="fill:#EA978C;" width="0.802" height="4.543"/>
								</g>
							</g>
							<g>
								<g>
									
										<rect x="567.89" y="287.051" transform="matrix(0.4884 -0.8726 0.8726 0.4884 40.8719 644.6144)" style="fill:#EA978C;" width="4.543" height="0.802"/>
								</g>
							</g>
							<g>
								<g>
									
										<rect x="570.633" y="288.272" transform="matrix(0.4881 -0.8728 0.8728 0.4881 38.7226 647.1099)" style="fill:#EA978C;" width="0.802" height="4.542"/>
								</g>
							</g>
							<g>
								<g>
									
										<rect x="565.672" y="291.015" transform="matrix(0.4884 -0.8726 0.8726 0.4884 36.2443 644.6561)" style="fill:#EA978C;" width="4.542" height="0.802"/>
								</g>
							</g>
							<g>
								<g>
									<path style="fill:#EA978C;" d="M577.809,292.389c0.818,0.458,1.11,1.492,0.652,2.311c-0.458,0.818-1.492,1.11-2.311,0.652
										c-0.818-0.458-1.11-1.492-0.652-2.311C575.956,292.224,576.991,291.931,577.809,292.389z"/>
								</g>
							</g>
							<g>
								<g>
									
										<rect x="574.597" y="290.49" transform="matrix(0.488 -0.8728 0.8728 0.488 38.8546 651.7633)" style="fill:#EA978C;" width="0.802" height="4.543"/>
								</g>
							</g>
							<g>
								<g>
									
										<rect x="575.818" y="291.488" transform="matrix(0.4885 -0.8726 0.8726 0.4885 41.0211 653.7507)" style="fill:#EA978C;" width="4.542" height="0.802"/>
								</g>
							</g>
							<g>
								<g>
									
										<rect x="578.561" y="292.709" transform="matrix(0.4881 -0.8728 0.8728 0.4881 38.9039 656.2932)" style="fill:#EA978C;" width="0.802" height="4.542"/>
								</g>
							</g>
							<g>
								<g>
									
										<rect x="573.599" y="295.452" transform="matrix(0.4884 -0.8726 0.8726 0.4884 36.452 653.8796)" style="fill:#EA978C;" width="4.543" height="0.802"/>
								</g>
							</g>
							<g>
								<g>
									<path style="fill:#EA978C;" d="M585.737,296.827c0.818,0.458,1.11,1.492,0.652,2.311c-0.458,0.818-1.492,1.11-2.311,0.652
										c-0.818-0.458-1.11-1.492-0.652-2.311C583.884,296.661,584.919,296.369,585.737,296.827z"/>
								</g>
							</g>
							<g>
								<g>
									
										<rect x="582.525" y="294.927" transform="matrix(0.4882 -0.8727 0.8727 0.4882 38.9791 660.8624)" style="fill:#EA978C;" width="0.802" height="4.543"/>
								</g>
							</g>
							<g>
								<g>
									
										<rect x="583.746" y="295.925" transform="matrix(0.4884 -0.8726 0.8726 0.4884 41.2094 662.9454)" style="fill:#EA978C;" width="4.542" height="0.802"/>
								</g>
							</g>
							<g>
								<g>
									
										<rect x="586.489" y="297.146" transform="matrix(0.4881 -0.8728 0.8728 0.4881 39.1114 665.5171)" style="fill:#EA978C;" width="0.802" height="4.542"/>
								</g>
							</g>
							<g>
								<g>
									
										<rect x="581.527" y="299.889" transform="matrix(0.4884 -0.8726 0.8726 0.4884 36.642 663.0772)" style="fill:#EA978C;" width="4.543" height="0.802"/>
								</g>
							</g>
							<g>
								<g>
									<path style="fill:#EA978C;" d="M593.665,301.264c0.818,0.458,1.11,1.492,0.652,2.311c-0.458,0.818-1.492,1.11-2.311,0.652
										c-0.818-0.458-1.11-1.493-0.652-2.311C591.812,301.098,592.847,300.806,593.665,301.264z"/>
								</g>
							</g>
							<g>
								<g>
									
										<rect x="590.453" y="299.364" transform="matrix(0.4882 -0.8728 0.8728 0.4882 39.1689 670.0596)" style="fill:#EA978C;" width="0.802" height="4.543"/>
								</g>
							</g>
							<g>
								<g>
									
										<rect x="591.674" y="300.362" transform="matrix(0.4885 -0.8726 0.8726 0.4885 41.3778 672.1107)" style="fill:#EA978C;" width="4.542" height="0.802"/>
								</g>
							</g>
							<g>
								<g>
									
										<rect x="594.416" y="301.583" transform="matrix(0.4881 -0.8728 0.8728 0.4881 39.2922 674.7009)" style="fill:#EA978C;" width="0.802" height="4.542"/>
								</g>
							</g>
							<g>
								<g>
									
										<rect x="589.455" y="304.326" transform="matrix(0.4884 -0.8726 0.8726 0.4884 36.8228 672.2607)" style="fill:#EA978C;" width="4.543" height="0.802"/>
								</g>
							</g>
							<g>
								<g>
									<path style="fill:#EA978C;" d="M601.593,305.701c0.818,0.458,1.11,1.493,0.652,2.311c-0.458,0.818-1.492,1.11-2.311,0.652
										c-0.818-0.458-1.11-1.493-0.652-2.311C599.74,305.535,600.774,305.243,601.593,305.701z"/>
								</g>
							</g>
							<g>
								<g>
									
										<rect x="598.38" y="303.802" transform="matrix(0.4882 -0.8727 0.8727 0.4882 39.3264 679.2086)" style="fill:#EA978C;" width="0.802" height="4.543"/>
								</g>
							</g>
							<g>
								<g>
									
										<rect x="599.601" y="304.799" transform="matrix(0.4884 -0.8726 0.8726 0.4884 41.5939 681.3461)" style="fill:#EA978C;" width="4.543" height="0.802"/>
								</g>
							</g>
							<g>
								<g>
									
										<rect x="602.344" y="306.021" transform="matrix(0.4882 -0.8727 0.8727 0.4882 39.4187 683.8034)" style="fill:#EA978C;" width="0.802" height="4.542"/>
								</g>
							</g>
							<g>
								<g>
									
										<rect x="597.383" y="308.763" transform="matrix(0.4884 -0.8726 0.8726 0.4884 36.983 681.4125)" style="fill:#EA978C;" width="4.542" height="0.802"/>
								</g>
							</g>
							<g>
								<g>
									<path style="fill:#EA978C;" d="M609.521,310.138c0.818,0.458,1.11,1.492,0.652,2.31c-0.458,0.818-1.492,1.11-2.311,0.652
										c-0.818-0.458-1.11-1.492-0.652-2.311C607.668,309.972,608.702,309.68,609.521,310.138z"/>
								</g>
							</g>
							<g>
								<g>
									
										<rect x="606.308" y="308.239" transform="matrix(0.4882 -0.8727 0.8727 0.4882 39.5342 688.4329)" style="fill:#EA978C;" width="0.802" height="4.543"/>
								</g>
							</g>
							<g>
								<g>
									
										<rect x="607.529" y="309.237" transform="matrix(0.4884 -0.8726 0.8726 0.4884 41.7891 690.5514)" style="fill:#EA978C;" width="4.543" height="0.802"/>
								</g>
							</g>
							<g>
								<g>
									
										<rect x="610.272" y="310.458" transform="matrix(0.4882 -0.8727 0.8727 0.4882 39.6036 692.9932)" style="fill:#EA978C;" width="0.802" height="4.542"/>
								</g>
							</g>
							<g>
								<g>
									
										<rect x="605.311" y="313.201" transform="matrix(0.4885 -0.8726 0.8726 0.4885 37.1543 690.582)" style="fill:#EA978C;" width="4.542" height="0.802"/>
								</g>
							</g>
						</g>
					</g>
					<g>
						<path style="fill:#EA978C;" d="M629.588,330.476c-2.298,4.106-7.49,5.572-11.596,3.274c-4.106-2.298-5.572-7.49-3.274-11.596
							c2.298-4.106,7.49-5.572,11.596-3.274C630.42,321.178,631.886,326.37,629.588,330.476z"/>
					</g>
				</g>
				<g>
					<path style="fill:#D36D66;" d="M649.303,397.602h-9.528c-0.222,0-0.401-0.179-0.401-0.401c0-0.222,0.179-0.401,0.401-0.401
						h8.726v-8.046c0-0.222,0.179-0.401,0.401-0.401c0.222,0,0.401,0.179,0.401,0.401V397.602z"/>
				</g>
				<g>
					<path style="fill:#D36D66;" d="M648.901,384.708c-0.222,0-0.401-0.179-0.401-0.401v-2.98c0-0.222,0.179-0.401,0.401-0.401
						c0.222,0,0.401,0.179,0.401,0.401v2.98C649.303,384.528,649.123,384.708,648.901,384.708z"/>
				</g>
				<g>
					<path style="fill:#D36D66;" d="M607.808,397.602h-9.225c-0.222,0-0.401-0.179-0.401-0.401c0-0.222,0.179-0.401,0.401-0.401
						h9.225c0.222,0,0.401,0.179,0.401,0.401C608.209,397.422,608.03,397.602,607.808,397.602z"/>
				</g>
			</g>
		</g>
	</g>
</g>
</svg>
