<?xml version="1.0" encoding="UTF-8" standalone="no"?>
<!-- Generator: Adobe Illustrator 27.5.0, SVG Export Plug-In . SVG Version: 6.00 Build 0)  -->

<svg
   version="1.1"
   x="0px"
   y="0px"
   viewBox="0 0 750 511.6304"
   xml:space="preserve"
   id="svg148"
   sodipodi:docname="idk.svg"
   width="750"
   height="511.6304"
   xmlns:inkscape="http://www.inkscape.org/namespaces/inkscape"
   xmlns:sodipodi="http://sodipodi.sourceforge.net/DTD/sodipodi-0.dtd"
   xmlns="http://www.w3.org/2000/svg"
   xmlns:svg="http://www.w3.org/2000/svg"><defs
   id="defs148" /><sodipodi:namedview
   id="namedview148"
   pagecolor="#505050"
   bordercolor="#ffffff"
   borderopacity="1"
   inkscape:showpageshadow="0"
   inkscape:pageopacity="0"
   inkscape:pagecheckerboard="1"
   inkscape:deskcolor="#505050" />
<g
   id="Background"
   transform="scale(1,1.0232608)"
   inkscape:export-filename="Background.svg"
   inkscape:export-xdpi="96"
   inkscape:export-ydpi="96">
	<rect
   style="fill:#80c6ce"
   width="750"
   height="500"
   id="rect1"
   x="0"
   y="0" />
	<g
   id="g1">
		<path
   style="fill:#87d8d5"
   d="M 750,500 V 226.651 C 650.492,257.742 546.244,273.685 441.987,273.485 330.509,273.27 219.345,254.871 107.986,260.024 71.681,261.704 35.422,266.255 0,274.474 V 500 Z"
   id="path1" />
	</g>
</g>
<g
   id="Objects"
   transform="matrix(1,0,0,0.85851184,0,82.374418)"
   inkscape:export-filename="Background.svg"
   inkscape:export-xdpi="96"
   inkscape:export-ydpi="96">
	<g
   id="g2">
		
			<text
   transform="translate(268.729,202.7275)"
   style="font-size:117.349px;font-family:GalanoGrotesqueDEMO-Bold;fill:#112129"
   id="text1">TRAVEL</text>
		
			<text
   transform="translate(268.729,110.3457)"
   style="font-size:111.897px;font-family:GalanoGrotesqueDEMO-Bold;fill:#112129"
   id="text2">TIME TO</text>
	</g>
	<g
   id="g134">
		<g
   id="g23">
			<g
   id="g6">
				<path
   style="fill:#835844"
   d="m 172.218,188.006 -116.87,54.438 c 0,0 -7.817,4.142 -14.109,-2.65 -6.292,-6.793 -7.245,-6.602 -3.622,-17.66 3.622,-11.058 26.882,-69.97 26.882,-69.97 0,0 0.763,-6.673 25.166,-16.206 24.404,-9.533 103.715,-41.944 103.715,-41.944 0,0 4.576,-3.05 10.105,2.478 5.529,5.529 11.058,11.439 6.292,21.163 -4.766,9.723 -29.933,63.106 -29.933,63.106 0,0 -1.299,4.298 -7.626,7.245 z"
   id="path2" />
				<path
   style="fill:#4c3329"
   d="m 51.153,243.694 c 0,0 -6.673,-0.399 0,-14.316 6.673,-13.918 27.073,-63.869 27.073,-63.869 0,0 0.953,-6.482 15.252,-12.202 14.299,-5.72 106.575,-42.897 106.575,-42.897 0,0 6.774,-3.243 9.151,-1.335 2.377,1.909 -4.385,14.108 -4.385,14.108 l -31.317,64.164 c 10e-4,0.001 -115.676,53.695 -122.349,56.347 z"
   id="path3" />
				<path
   style="fill:#35241d"
   d="m 93.479,153.307 c -14.299,5.72 -15.252,12.202 -15.252,12.202 0,0 -20.4,49.951 -27.073,63.869 -6.673,13.918 0,14.316 0,14.316 5.192,-2.063 76.367,-35.024 107.706,-49.553 l 33.153,-80.491 c -22.765,9.17 -86.819,34.971 -98.534,39.657 z"
   id="path4" />
				<path
   style="fill:#e1c37d"
   d="m 44.67,242.777 c -0.126,0 -0.248,-0.075 -0.304,-0.193 -0.032,-0.067 -0.085,-0.237 -0.085,-0.619 0,-0.642 0.153,-1.607 0.441,-2.793 0.043,-0.173 0.215,-0.283 0.392,-0.238 0.174,0.042 0.281,0.218 0.239,0.392 -0.349,1.434 -0.422,2.226 -0.422,2.639 0,0.264 0.03,0.36 0.031,0.361 0.077,0.162 0.004,0.345 -0.158,0.421 -0.044,0.021 -0.089,0.03 -0.134,0.03 z m 1.264,-6.316 c -0.033,0 -0.066,-0.005 -0.1,-0.016 -0.17,-0.055 -0.264,-0.238 -0.208,-0.408 0.303,-0.938 0.661,-1.972 1.065,-3.074 0.061,-0.169 0.249,-0.255 0.416,-0.193 0.169,0.061 0.255,0.247 0.193,0.416 -0.4,1.094 -0.756,2.12 -1.057,3.051 -0.044,0.136 -0.172,0.224 -0.309,0.224 z m 2.216,-6.092 c -0.04,0 -0.08,-0.007 -0.118,-0.023 -0.167,-0.065 -0.249,-0.254 -0.183,-0.42 l 0.038,-0.097 c 0.308,-0.777 0.704,-1.765 1.175,-2.927 0.067,-0.167 0.259,-0.245 0.422,-0.179 0.166,0.067 0.246,0.256 0.179,0.422 -0.47,1.16 -0.866,2.146 -1.174,2.924 l -0.037,0.093 c -0.05,0.129 -0.172,0.207 -0.302,0.207 z m 2.44,-6.035 c -0.041,0 -0.083,-0.008 -0.123,-0.025 -0.165,-0.067 -0.245,-0.257 -0.177,-0.423 l 1.234,-3.01 c 0.068,-0.166 0.256,-0.244 0.424,-0.176 0.165,0.068 0.245,0.257 0.177,0.423 l -1.234,3.01 c -0.052,0.125 -0.172,0.201 -0.301,0.201 z m 2.473,-6.017 c -0.041,0 -0.083,-0.008 -0.124,-0.025 -0.166,-0.068 -0.245,-0.258 -0.176,-0.423 l 1.241,-3.006 c 0.068,-0.166 0.256,-0.245 0.423,-0.175 0.165,0.068 0.244,0.258 0.175,0.423 l -1.24,3.005 c -0.051,0.125 -0.171,0.201 -0.299,0.201 z m 2.483,-6.009 c -0.041,0 -0.083,-0.008 -0.124,-0.025 -0.165,-0.068 -0.244,-0.258 -0.175,-0.423 l 1.244,-3.003 c 0.069,-0.165 0.258,-0.244 0.424,-0.175 0.165,0.069 0.243,0.259 0.175,0.424 l -1.244,3.002 c -0.052,0.124 -0.173,0.2 -0.3,0.2 z m 2.489,-6.005 c -0.041,0 -0.084,-0.008 -0.124,-0.025 -0.166,-0.069 -0.244,-0.258 -0.175,-0.423 l 1.246,-3.002 c 0.069,-0.165 0.257,-0.243 0.424,-0.175 0.165,0.069 0.244,0.259 0.175,0.424 l -1.246,3.001 c -0.052,0.125 -0.173,0.2 -0.3,0.2 z m 2.493,-6 c -0.042,0 -0.084,-0.008 -0.125,-0.025 -0.165,-0.069 -0.243,-0.259 -0.175,-0.424 l 1.248,-3 c 0.069,-0.166 0.26,-0.242 0.424,-0.175 0.165,0.069 0.243,0.259 0.175,0.424 l -1.248,3 c -0.052,0.124 -0.172,0.2 -0.299,0.2 z m 2.497,-6.002 c -0.042,0 -0.084,-0.008 -0.125,-0.025 -0.165,-0.069 -0.244,-0.259 -0.175,-0.424 l 1.249,-3.001 c 0.069,-0.166 0.258,-0.243 0.424,-0.175 0.165,0.069 0.243,0.259 0.175,0.424 l -1.25,3 c -0.051,0.126 -0.172,0.201 -0.298,0.201 z m 2.5,-6 c -0.042,0 -0.084,-0.008 -0.125,-0.025 -0.165,-0.069 -0.243,-0.258 -0.175,-0.424 l 1.251,-3 c 0.069,-0.166 0.258,-0.242 0.424,-0.175 0.165,0.069 0.243,0.259 0.175,0.424 l -1.251,3 c -0.052,0.125 -0.173,0.2 -0.299,0.2 z m 2.503,-6 c -0.042,0 -0.084,-0.008 -0.125,-0.025 -0.165,-0.069 -0.243,-0.259 -0.174,-0.424 l 1.253,-3.001 c 0.07,-0.166 0.26,-0.241 0.424,-0.174 0.165,0.069 0.243,0.259 0.174,0.424 l -1.253,3.001 c -0.051,0.123 -0.172,0.199 -0.299,0.199 z m 2.506,-6.003 c -0.042,0 -0.084,-0.008 -0.125,-0.025 -0.165,-0.069 -0.243,-0.259 -0.174,-0.424 l 1.255,-3.003 c 0.069,-0.167 0.26,-0.242 0.424,-0.174 0.165,0.069 0.243,0.259 0.174,0.425 l -1.255,3.003 c -0.052,0.124 -0.172,0.198 -0.299,0.198 z m 2.511,-6.006 c -0.042,0 -0.084,-0.008 -0.125,-0.025 -0.165,-0.069 -0.243,-0.259 -0.174,-0.424 l 0.427,-1.021 c 0.303,-0.724 0.49,-1.173 0.544,-1.3 0.013,-0.096 0.051,-0.334 0.136,-0.689 0.042,-0.174 0.214,-0.285 0.391,-0.24 0.174,0.041 0.282,0.217 0.24,0.391 -0.099,0.412 -0.127,0.647 -0.128,0.658 l -0.022,-0.002 c -0.045,0.196 -0.204,0.576 -0.562,1.432 l -0.427,1.021 c -0.054,0.125 -0.174,0.199 -0.3,0.199 z m 2.258,-6.092 c -0.049,0 -0.098,-0.011 -0.144,-0.034 -0.16,-0.079 -0.226,-0.274 -0.146,-0.435 0.472,-0.951 1.047,-1.898 1.709,-2.814 0.105,-0.145 0.308,-0.177 0.453,-0.073 0.145,0.105 0.178,0.308 0.073,0.453 -0.642,0.888 -1.198,1.803 -1.654,2.723 -0.057,0.114 -0.172,0.18 -0.291,0.18 z m 3.761,-5.251 c -0.081,0 -0.162,-0.03 -0.225,-0.091 -0.129,-0.124 -0.133,-0.329 -0.009,-0.458 0.737,-0.767 1.548,-1.513 2.412,-2.219 0.137,-0.114 0.343,-0.094 0.456,0.046 0.113,0.139 0.093,0.342 -0.046,0.456 -0.843,0.69 -1.635,1.419 -2.355,2.167 -0.063,0.065 -0.148,0.099 -0.233,0.099 z m 4.997,-4.108 c -0.106,0 -0.209,-0.051 -0.271,-0.146 -0.098,-0.15 -0.057,-0.351 0.093,-0.449 0.882,-0.581 1.827,-1.143 2.809,-1.671 0.157,-0.087 0.354,-0.026 0.439,0.132 0.085,0.158 0.026,0.354 -0.132,0.439 -0.965,0.52 -1.893,1.072 -2.76,1.642 -0.055,0.036 -0.117,0.053 -0.178,0.053 z m 5.694,-3.079 c -0.124,0 -0.243,-0.072 -0.297,-0.193 -0.073,-0.164 0.002,-0.355 0.165,-0.428 0.467,-0.207 0.95,-0.411 1.445,-0.613 l 1.571,-0.635 c 0.166,-0.065 0.355,0.013 0.422,0.179 0.067,0.166 -0.013,0.355 -0.179,0.422 l -1.569,0.635 c -0.489,0.198 -0.964,0.4 -1.426,0.605 -0.043,0.019 -0.088,0.028 -0.132,0.028 z m 6.029,-2.462 c -0.128,0 -0.25,-0.077 -0.301,-0.203 -0.066,-0.166 0.014,-0.355 0.18,-0.422 l 3.021,-1.216 c 0.167,-0.065 0.355,0.014 0.422,0.18 0.066,0.166 -0.014,0.355 -0.18,0.422 l -3.021,1.216 c -0.039,0.015 -0.081,0.023 -0.121,0.023 z m 6.039,-2.429 c -0.128,0 -0.25,-0.077 -0.301,-0.204 -0.066,-0.166 0.014,-0.355 0.18,-0.422 l 3.018,-1.213 c 0.167,-0.066 0.355,0.014 0.422,0.18 0.067,0.166 -0.014,0.355 -0.18,0.422 l -3.018,1.212 c -0.039,0.017 -0.08,0.025 -0.121,0.025 z m 6.035,-2.424 c -0.128,0 -0.25,-0.077 -0.301,-0.204 -0.066,-0.166 0.014,-0.355 0.18,-0.422 l 3.016,-1.211 c 0.167,-0.066 0.355,0.014 0.422,0.18 0.066,0.166 -0.014,0.355 -0.18,0.422 l -3.016,1.211 c -0.04,0.016 -0.081,0.024 -0.121,0.024 z m 6.032,-2.422 c -0.128,0 -0.25,-0.077 -0.301,-0.204 -0.066,-0.166 0.014,-0.355 0.18,-0.422 l 3.015,-1.21 c 0.166,-0.065 0.355,0.014 0.422,0.18 0.066,0.166 -0.014,0.355 -0.18,0.422 l -3.015,1.21 c -0.04,0.016 -0.081,0.024 -0.121,0.024 z m 6.031,-2.42 c -0.129,0 -0.25,-0.077 -0.301,-0.204 -0.067,-0.166 0.014,-0.355 0.18,-0.422 l 3.015,-1.21 c 0.166,-0.065 0.355,0.014 0.422,0.18 0.066,0.166 -0.014,0.355 -0.18,0.422 l -3.015,1.21 c -0.04,0.016 -0.081,0.024 -0.121,0.024 z m 6.03,-2.419 c -0.128,0 -0.25,-0.077 -0.301,-0.204 -0.066,-0.166 0.014,-0.355 0.18,-0.422 l 3.014,-1.209 c 0.166,-0.065 0.355,0.014 0.422,0.18 0.066,0.167 -0.014,0.355 -0.18,0.422 l -3.015,1.209 c -0.039,0.016 -0.079,0.024 -0.12,0.024 z m 6.031,-2.418 c -0.128,0 -0.25,-0.077 -0.301,-0.204 -0.066,-0.166 0.014,-0.355 0.18,-0.422 l 3.015,-1.209 c 0.167,-0.066 0.355,0.014 0.422,0.18 0.066,0.166 -0.014,0.355 -0.18,0.422 l -3.014,1.209 c -0.041,0.016 -0.082,0.024 -0.122,0.024 z m 6.039,-2.422 c -0.13,0 -0.254,-0.075 -0.305,-0.202 -0.066,-0.166 0.008,-0.352 0.174,-0.419 l 3.01,-1.206 c 0.166,-0.066 0.355,0.014 0.422,0.18 0.066,0.166 -0.014,0.355 -0.18,0.422 l -2.998,1.201 c -0.04,0.017 -0.082,0.024 -0.123,0.024 z m 6.018,-2.411 c -0.128,0 -0.25,-0.077 -0.301,-0.204 -0.066,-0.167 0.015,-0.355 0.18,-0.422 l 3.015,-1.208 c 0.167,-0.066 0.355,0.014 0.422,0.18 0.066,0.166 -0.014,0.355 -0.18,0.422 l -3.015,1.208 c -0.04,0.016 -0.081,0.024 -0.121,0.024 z m 6.03,-2.418 c -0.128,0 -0.25,-0.077 -0.301,-0.204 -0.066,-0.166 0.014,-0.355 0.18,-0.422 l 3.015,-1.209 c 0.166,-0.066 0.355,0.014 0.422,0.18 0.066,0.166 -0.014,0.355 -0.18,0.422 l -3.015,1.209 c -0.04,0.016 -0.081,0.024 -0.121,0.024 z m 6.029,-2.416 c -0.128,0 -0.25,-0.077 -0.301,-0.204 -0.067,-0.166 0.015,-0.355 0.18,-0.422 l 3.015,-1.208 c 0.168,-0.065 0.355,0.014 0.422,0.18 0.066,0.166 -0.014,0.355 -0.18,0.422 l -3.015,1.208 c -0.04,0.016 -0.08,0.024 -0.121,0.024 z m 6.03,-2.416 c -0.128,0 -0.25,-0.077 -0.301,-0.204 -0.066,-0.166 0.014,-0.355 0.18,-0.422 l 3.015,-1.208 c 0.167,-0.064 0.355,0.013 0.422,0.18 0.067,0.167 -0.014,0.355 -0.18,0.422 l -3.015,1.208 c -0.039,0.016 -0.08,0.024 -0.121,0.024 z m 6.032,-2.417 c -0.129,0 -0.25,-0.077 -0.301,-0.204 -0.066,-0.166 0.014,-0.355 0.18,-0.422 l 3.016,-1.209 c 0.167,-0.065 0.355,0.014 0.422,0.18 0.066,0.166 -0.014,0.355 -0.18,0.422 l -3.016,1.209 c -0.04,0.016 -0.08,0.024 -0.121,0.024 z m 6.032,-2.417 c -0.129,0 -0.25,-0.077 -0.301,-0.204 -0.066,-0.166 0.014,-0.355 0.18,-0.422 l 3.016,-1.208 c 0.165,-0.065 0.355,0.013 0.422,0.18 0.066,0.167 -0.014,0.355 -0.18,0.422 l -3.016,1.208 c -0.04,0.017 -0.081,0.024 -0.121,0.024 z m 6.034,-2.416 c -0.128,0 -0.25,-0.077 -0.301,-0.204 -0.067,-0.166 0.014,-0.355 0.18,-0.422 l 3.018,-1.209 c 0.165,-0.065 0.355,0.014 0.422,0.18 0.066,0.166 -0.015,0.355 -0.18,0.422 l -3.018,1.209 c -0.04,0.016 -0.081,0.024 -0.121,0.024 z m 6.037,-2.418 c -0.128,0 -0.25,-0.077 -0.301,-0.204 -0.066,-0.166 0.015,-0.355 0.18,-0.422 l 3.02,-1.21 c 0.166,-0.066 0.355,0.014 0.422,0.181 0.066,0.166 -0.014,0.355 -0.18,0.422 l -3.02,1.21 c -0.04,0.015 -0.081,0.023 -0.121,0.023 z m 6.041,-2.42 c -0.128,0 -0.25,-0.077 -0.301,-0.204 -0.067,-0.166 0.014,-0.355 0.18,-0.422 l 3.025,-1.212 c 0.166,-0.065 0.355,0.014 0.422,0.181 0.066,0.166 -0.015,0.355 -0.18,0.422 l -3.025,1.212 c -0.04,0.015 -0.08,0.023 -0.121,0.023 z m 19.095,-1.798 c -0.131,0 -0.255,-0.081 -0.304,-0.211 -0.173,-0.462 -0.411,-0.866 -0.707,-1.2 -0.119,-0.133 -0.107,-0.339 0.027,-0.457 0.133,-0.119 0.337,-0.107 0.458,0.027 0.35,0.394 0.629,0.866 0.83,1.404 0.063,0.168 -0.023,0.355 -0.191,0.417 -0.037,0.013 -0.075,0.02 -0.113,0.02 z m -13.039,-0.627 c -0.129,0 -0.25,-0.077 -0.301,-0.204 -0.066,-0.166 0.015,-0.355 0.18,-0.422 l 1.694,-0.679 c 0.013,-0.006 0.538,-0.233 1.37,-0.512 0.17,-0.055 0.354,0.036 0.41,0.205 0.056,0.17 -0.035,0.354 -0.205,0.41 -0.801,0.268 -1.32,0.492 -1.325,0.494 l -1.703,0.683 c -0.039,0.017 -0.08,0.025 -0.12,0.025 z m 6.19,-1.976 c -0.156,0 -0.294,-0.113 -0.32,-0.273 -0.029,-0.177 0.092,-0.343 0.268,-0.372 1.246,-0.202 2.372,-0.234 3.329,-0.095 0.177,0.026 0.3,0.19 0.274,0.368 -0.025,0.178 -0.192,0.304 -0.367,0.274 -0.892,-0.13 -1.952,-0.098 -3.132,0.093 -0.018,0.003 -0.035,0.005 -0.052,0.005 z"
   id="path5" />
				<polygon
   style="fill:#f6f6f2"
   points="54.097,178.686 59.592,164.639 71.122,161.543 64.316,177.917 "
   id="polygon5" />
				<path
   style="fill:#ef4e55"
   d="m 39.573,216.604 c 0,0 11.854,-4.353 6.432,-17.025 z"
   id="path6" />
			</g>
			<path
   style="fill:#835844"
   d="m 49.125,241.788 v 25.698 c 0,0 -0.405,9.647 8.998,17.024 9.404,7.377 52.45,45.316 52.45,45.316 0,0 12.241,15.403 33.399,3.081 21.158,-12.322 93.794,-53.261 93.794,-53.261 0,0 12.809,-6.404 12.89,-16.213 0.081,-9.809 1.054,-24.888 1.054,-24.888 0,0 1.135,-3.972 0,-7.053 -1.135,-3.081 -9.728,-7.458 -9.728,-7.458 l -64.205,-39.723 c 0,0 -7.782,-3.243 -14.835,0 -7.053,3.243 -107.494,49.694 -107.494,49.694 0,0 -6.648,2.432 -6.323,7.783 z"
   id="path7" />
			<path
   style="fill:#78d5f9"
   d="m 73.057,277.464 c 0,4.464 -3.014,8.084 -6.732,8.084 -3.718,0 -6.732,-3.619 -6.732,-8.084 0,-4.464 3.014,-8.083 6.732,-8.083 3.718,0 6.732,3.618 6.732,8.083 z"
   id="path8" />
			<polygon
   style="fill:#ef4e55"
   points="72.496,296.86 67.447,282.136 82.595,280.538 85.68,295.943 "
   id="polygon8" />
			<polygon
   style="fill:#f6f6f2"
   points="92.932,305.065 92.932,295.894 115.976,313.685 115.976,323.414 "
   id="polygon9" />
			<path
   style="fill:#35241d"
   d="m 54.879,237.527 109.576,-51.149 c 0,0 5.607,-3.443 12.886,0.689 7.279,4.132 68.264,41.411 68.264,41.411 0,0 9.246,5.607 -1.279,11.41 -10.525,5.803 -107.904,58.526 -107.904,58.526 0,0 -9.541,5.115 -20.853,-3.935 -11.312,-9.049 -61.182,-50.362 -61.182,-50.362 0,0 -4.887,-4.079 0.492,-6.59 z"
   id="path9" />
			<polygon
   style="fill:#e1c37d"
   points="162.084,301.445 146.792,310.074 146.792,321.102 162.084,312.155 "
   id="polygon10" />
			<polygon
   style="fill:#e1c37d"
   points="183.562,289.855 173.227,295.687 173.227,303.14 183.562,297.093 "
   id="polygon11" />
			<polygon
   style="fill:#e1c37d"
   points="215.592,271.839 205.257,277.671 205.257,285.123 215.592,279.077 "
   id="polygon12" />
			<polygon
   style="fill:#e1c37d"
   points="239.066,255.402 223.774,264.197 223.774,275.224 239.066,266.278 "
   id="polygon13" />
			<path
   style="fill:#4c3329"
   d="m 127.842,307.704 c -10.461,0 -16.041,-6.53 -16.119,-6.624 L 48.904,247.737 c -0.136,-0.116 -0.153,-0.321 -0.037,-0.457 0.115,-0.135 0.321,-0.154 0.457,-0.037 l 62.859,53.383 c 0.067,0.073 2.83,3.347 8.059,5.197 4.824,1.706 12.804,2.513 23.414,-3.327 20.542,-11.309 106.794,-59.846 107.662,-60.335 0.158,-0.086 0.354,-0.032 0.442,0.124 0.088,0.155 0.033,0.353 -0.123,0.441 -0.869,0.489 -87.123,49.029 -107.668,60.337 -6.243,3.437 -11.636,4.641 -16.127,4.641 z"
   id="path13" />
			<g
   id="g16">
				<path
   style="fill:#e1c37d"
   d="m 50.349,246.213 c -0.074,0 -0.149,-0.025 -0.21,-0.077 l -1.236,-1.049 c -0.136,-0.115 -0.153,-0.32 -0.037,-0.457 0.116,-0.135 0.321,-0.154 0.458,-0.037 l 1.236,1.049 c 0.136,0.115 0.153,0.321 0.037,0.457 -0.064,0.075 -0.156,0.114 -0.248,0.114 z"
   id="path14" />
				<path
   style="fill:#e1c37d"
   d="m 126.78,305.065 c -0.004,0 -0.008,0 -0.013,0 -1.1,-0.044 -2.2,-0.164 -3.27,-0.359 -0.176,-0.032 -0.293,-0.201 -0.261,-0.378 0.032,-0.177 0.207,-0.288 0.377,-0.261 1.04,0.19 2.11,0.307 3.179,0.35 0.179,0.007 0.318,0.158 0.311,0.336 -0.006,0.175 -0.15,0.312 -0.323,0.312 z m 3.243,-0.08 c -0.166,0 -0.308,-0.127 -0.322,-0.296 -0.016,-0.178 0.116,-0.335 0.294,-0.351 1.039,-0.092 2.106,-0.25 3.173,-0.47 0.177,-0.036 0.347,0.076 0.384,0.251 0.036,0.175 -0.077,0.347 -0.252,0.383 -1.091,0.226 -2.184,0.388 -3.247,0.482 -0.01,0.001 -0.02,0.001 -0.03,0.001 z m -9.609,-1.086 c -0.035,0 -0.07,-0.006 -0.104,-0.017 -1.043,-0.354 -2.063,-0.786 -3.032,-1.286 -0.159,-0.081 -0.222,-0.277 -0.14,-0.437 0.082,-0.159 0.28,-0.221 0.437,-0.14 0.94,0.484 1.931,0.904 2.944,1.248 0.169,0.058 0.26,0.242 0.203,0.411 -0.046,0.137 -0.172,0.221 -0.308,0.221 z m 15.961,-0.211 c -0.138,0 -0.265,-0.088 -0.31,-0.227 -0.053,-0.171 0.041,-0.353 0.212,-0.407 0.989,-0.312 2.006,-0.684 3.023,-1.104 0.165,-0.069 0.355,0.009 0.423,0.175 0.069,0.165 -0.01,0.355 -0.175,0.423 -1.035,0.428 -2.07,0.805 -3.076,1.124 -0.031,0.012 -0.064,0.016 -0.097,0.016 z m 5.997,-2.474 c -0.118,0 -0.232,-0.065 -0.289,-0.178 -0.081,-0.16 -0.017,-0.355 0.143,-0.436 0.471,-0.238 0.947,-0.49 1.429,-0.755 l 1.422,-0.784 c 0.156,-0.088 0.354,-0.029 0.441,0.126 0.087,0.158 0.03,0.354 -0.127,0.441 l -1.423,0.784 c -0.489,0.269 -0.972,0.524 -1.449,0.766 -0.048,0.025 -0.097,0.036 -0.147,0.036 z m -27.711,-0.28 c -0.066,0 -0.133,-0.02 -0.19,-0.061 -1.274,-0.925 -2.114,-1.755 -2.501,-2.167 -0.123,-0.131 -0.116,-0.336 0.015,-0.459 0.131,-0.12 0.336,-0.115 0.458,0.014 0.371,0.397 1.178,1.194 2.409,2.087 0.145,0.105 0.177,0.308 0.072,0.454 -0.064,0.086 -0.163,0.132 -0.263,0.132 z m 33.424,-2.843 c -0.115,0 -0.225,-0.06 -0.284,-0.167 -0.087,-0.156 -0.03,-0.354 0.126,-0.441 l 2.847,-1.581 c 0.159,-0.088 0.355,-0.028 0.441,0.126 0.087,0.156 0.03,0.354 -0.126,0.441 l -2.848,1.581 c -0.049,0.028 -0.103,0.041 -0.156,0.041 z m -38.324,-1.423 c -0.074,0 -0.149,-0.025 -0.21,-0.077 l -2.475,-2.102 c -0.136,-0.116 -0.153,-0.321 -0.037,-0.457 0.116,-0.135 0.322,-0.154 0.457,-0.037 l 2.476,2.102 c 0.136,0.116 0.153,0.321 0.037,0.457 -0.065,0.075 -0.156,0.114 -0.248,0.114 z m 44.016,-1.743 c -0.114,0 -0.225,-0.059 -0.284,-0.167 -0.087,-0.156 -0.031,-0.354 0.126,-0.441 l 2.843,-1.584 c 0.157,-0.087 0.355,-0.031 0.441,0.124 0.087,0.156 0.031,0.354 -0.125,0.441 l -2.844,1.586 c -0.049,0.027 -0.103,0.041 -0.157,0.041 z m -48.967,-2.46 c -0.074,0 -0.149,-0.025 -0.21,-0.077 l -2.476,-2.102 c -0.136,-0.116 -0.153,-0.321 -0.037,-0.457 0.115,-0.136 0.321,-0.154 0.457,-0.037 l 2.476,2.102 c 0.136,0.116 0.153,0.321 0.037,0.457 -0.064,0.076 -0.155,0.114 -0.247,0.114 z m 54.651,-0.71 c -0.113,0 -0.224,-0.059 -0.283,-0.166 -0.087,-0.156 -0.031,-0.353 0.125,-0.44 l 2.841,-1.587 c 0.157,-0.087 0.354,-0.031 0.441,0.124 0.087,0.156 0.031,0.354 -0.125,0.441 l -2.841,1.587 c -0.05,0.028 -0.104,0.041 -0.158,0.041 z m 5.682,-3.173 c -0.114,0 -0.224,-0.059 -0.284,-0.165 -0.087,-0.156 -0.031,-0.354 0.125,-0.441 l 2.839,-1.587 c 0.158,-0.088 0.355,-0.031 0.441,0.124 0.087,0.156 0.031,0.354 -0.125,0.441 l -2.839,1.587 c -0.049,0.027 -0.104,0.041 -0.157,0.041 z M 99.859,288.26 c -0.074,0 -0.149,-0.024 -0.21,-0.077 l -2.476,-2.102 c -0.136,-0.116 -0.153,-0.321 -0.037,-0.457 0.114,-0.136 0.321,-0.154 0.457,-0.037 l 2.476,2.102 c 0.136,0.116 0.153,0.321 0.037,0.457 -0.064,0.075 -0.155,0.114 -0.247,0.114 z m 70.962,-2.854 c -0.114,0 -0.224,-0.059 -0.284,-0.165 -0.087,-0.156 -0.031,-0.354 0.125,-0.441 l 2.838,-1.587 c 0.157,-0.087 0.354,-0.031 0.441,0.124 0.087,0.156 0.031,0.354 -0.125,0.441 l -2.838,1.588 c -0.049,0.026 -0.104,0.04 -0.157,0.04 z m -75.913,-1.351 c -0.074,0 -0.149,-0.025 -0.21,-0.077 l -2.475,-2.102 c -0.136,-0.116 -0.153,-0.321 -0.037,-0.457 0.116,-0.135 0.321,-0.154 0.457,-0.037 l 2.475,2.102 c 0.136,0.116 0.153,0.321 0.037,0.457 -0.064,0.076 -0.155,0.114 -0.247,0.114 z m 81.588,-1.826 c -0.114,0 -0.224,-0.059 -0.284,-0.165 -0.087,-0.156 -0.031,-0.354 0.125,-0.441 l 2.837,-1.589 c 0.157,-0.087 0.355,-0.031 0.441,0.124 0.087,0.156 0.031,0.354 -0.125,0.441 l -2.837,1.588 c -0.049,0.028 -0.104,0.042 -0.157,0.042 z M 89.958,279.85 c -0.074,0 -0.149,-0.025 -0.21,-0.077 l -2.476,-2.102 c -0.136,-0.116 -0.153,-0.321 -0.037,-0.457 0.116,-0.136 0.321,-0.154 0.457,-0.037 l 2.476,2.102 c 0.136,0.116 0.153,0.32 0.037,0.457 -0.064,0.075 -0.156,0.114 -0.247,0.114 z m 92.213,-0.803 c -0.114,0 -0.224,-0.059 -0.283,-0.165 -0.088,-0.156 -0.032,-0.354 0.124,-0.441 l 2.836,-1.59 c 0.158,-0.087 0.354,-0.032 0.442,0.124 0.087,0.156 0.031,0.354 -0.125,0.441 l -2.836,1.59 c -0.051,0.028 -0.105,0.041 -0.158,0.041 z m 5.674,-3.179 c -0.114,0 -0.224,-0.059 -0.283,-0.165 -0.088,-0.156 -0.032,-0.354 0.124,-0.441 l 2.829,-1.586 c 0.157,-0.087 0.354,-0.032 0.441,0.124 0.088,0.156 0.032,0.354 -0.124,0.441 l -2.828,1.586 c -0.051,0.027 -0.105,0.041 -0.159,0.041 z M 85.007,275.646 c -0.074,0 -0.149,-0.025 -0.21,-0.077 l -2.476,-2.102 c -0.136,-0.116 -0.153,-0.321 -0.037,-0.457 0.116,-0.135 0.321,-0.154 0.457,-0.037 l 2.476,2.102 c 0.136,0.116 0.153,0.32 0.037,0.457 -0.064,0.076 -0.156,0.114 -0.247,0.114 z m 108.501,-2.955 c -0.114,0 -0.224,-0.059 -0.283,-0.165 -0.088,-0.156 -0.032,-0.354 0.124,-0.441 l 2.841,-1.593 c 0.157,-0.087 0.354,-0.032 0.441,0.124 0.088,0.156 0.032,0.354 -0.124,0.441 l -2.841,1.593 c -0.051,0.027 -0.105,0.041 -0.158,0.041 z m -113.452,-1.25 c -0.074,0 -0.149,-0.025 -0.21,-0.077 l -2.475,-2.102 c -0.136,-0.116 -0.153,-0.32 -0.037,-0.457 0.115,-0.135 0.321,-0.154 0.457,-0.037 l 2.476,2.102 c 0.136,0.116 0.153,0.321 0.037,0.457 -0.065,0.074 -0.157,0.114 -0.248,0.114 z m 119.128,-1.935 c -0.114,0 -0.224,-0.059 -0.283,-0.165 -0.088,-0.156 -0.032,-0.354 0.124,-0.441 l 2.836,-1.591 c 0.156,-0.088 0.354,-0.032 0.441,0.124 0.088,0.156 0.032,0.354 -0.124,0.441 l -2.836,1.591 c -0.05,0.027 -0.104,0.041 -0.158,0.041 z m -124.08,-2.27 c -0.074,0 -0.149,-0.024 -0.21,-0.077 l -2.475,-2.103 c -0.136,-0.116 -0.153,-0.321 -0.037,-0.457 0.115,-0.135 0.321,-0.154 0.457,-0.037 l 2.476,2.102 c 0.136,0.116 0.153,0.321 0.037,0.457 -0.064,0.077 -0.156,0.115 -0.248,0.115 z m 129.751,-0.914 c -0.114,0 -0.224,-0.059 -0.283,-0.165 -0.088,-0.156 -0.032,-0.354 0.124,-0.441 l 2.836,-1.592 c 0.156,-0.087 0.354,-0.032 0.441,0.124 0.088,0.156 0.032,0.354 -0.124,0.441 l -2.836,1.592 c -0.05,0.028 -0.104,0.041 -0.158,0.041 z m 5.672,-3.185 c -0.113,0 -0.223,-0.059 -0.283,-0.165 -0.088,-0.155 -0.032,-0.353 0.124,-0.441 l 2.835,-1.593 c 0.156,-0.086 0.354,-0.032 0.442,0.124 0.088,0.155 0.032,0.353 -0.124,0.441 l -2.835,1.593 c -0.051,0.028 -0.106,0.041 -0.159,0.041 z M 70.153,263.032 c -0.074,0 -0.149,-0.025 -0.21,-0.077 l -2.475,-2.102 c -0.136,-0.116 -0.153,-0.321 -0.037,-0.457 0.116,-0.137 0.321,-0.154 0.457,-0.037 l 2.476,2.102 c 0.136,0.116 0.153,0.321 0.037,0.457 -0.064,0.075 -0.156,0.114 -0.248,0.114 z m 146.045,-3.08 c -0.114,0 -0.224,-0.059 -0.283,-0.165 -0.088,-0.156 -0.032,-0.354 0.124,-0.441 l 2.836,-1.593 c 0.158,-0.087 0.355,-0.032 0.441,0.124 0.088,0.156 0.032,0.354 -0.124,0.441 l -2.836,1.593 c -0.05,0.028 -0.105,0.041 -0.158,0.041 z M 65.202,258.827 c -0.074,0 -0.149,-0.025 -0.21,-0.077 l -2.476,-2.102 c -0.136,-0.116 -0.153,-0.321 -0.037,-0.457 0.116,-0.135 0.321,-0.154 0.457,-0.037 l 2.476,2.102 c 0.136,0.116 0.153,0.321 0.037,0.457 -0.063,0.076 -0.155,0.114 -0.247,0.114 z m 156.667,-2.061 c -0.114,0 -0.224,-0.059 -0.283,-0.165 -0.088,-0.157 -0.032,-0.354 0.124,-0.441 l 2.836,-1.593 c 0.157,-0.086 0.354,-0.032 0.441,0.124 0.088,0.156 0.032,0.354 -0.124,0.441 l -2.836,1.593 c -0.05,0.028 -0.104,0.041 -0.158,0.041 z M 60.251,254.623 c -0.074,0 -0.149,-0.025 -0.21,-0.077 l -2.476,-2.102 c -0.136,-0.116 -0.153,-0.321 -0.037,-0.457 0.115,-0.139 0.321,-0.154 0.457,-0.037 l 2.475,2.102 c 0.136,0.116 0.153,0.321 0.037,0.457 -0.062,0.074 -0.154,0.114 -0.246,0.114 z m 167.289,-1.045 c -0.113,0 -0.223,-0.059 -0.283,-0.165 -0.088,-0.155 -0.032,-0.353 0.123,-0.441 l 2.837,-1.594 c 0.156,-0.088 0.354,-0.031 0.441,0.124 0.088,0.156 0.032,0.354 -0.124,0.441 l -2.836,1.594 c -0.049,0.028 -0.104,0.041 -0.158,0.041 z M 55.3,250.418 c -0.074,0 -0.149,-0.025 -0.21,-0.077 l -2.476,-2.102 c -0.136,-0.116 -0.153,-0.321 -0.037,-0.457 0.116,-0.135 0.321,-0.154 0.457,-0.037 l 2.475,2.102 c 0.136,0.116 0.153,0.32 0.037,0.457 -0.062,0.076 -0.154,0.114 -0.246,0.114 z m 177.914,-0.029 c -0.113,0 -0.223,-0.059 -0.283,-0.165 -0.088,-0.155 -0.033,-0.353 0.123,-0.441 l 2.837,-1.595 c 0.157,-0.086 0.354,-0.032 0.442,0.124 0.088,0.155 0.032,0.353 -0.123,0.441 l -2.837,1.595 c -0.051,0.027 -0.106,0.041 -0.159,0.041 z m 5.674,-3.19 c -0.113,0 -0.223,-0.059 -0.283,-0.165 -0.088,-0.155 -0.032,-0.353 0.123,-0.441 l 2.838,-1.596 c 0.158,-0.086 0.354,-0.032 0.442,0.124 0.088,0.155 0.032,0.353 -0.123,0.441 l -2.838,1.596 c -0.051,0.028 -0.105,0.041 -0.159,0.041 z m 5.678,-3.194 c -0.113,0 -0.223,-0.059 -0.283,-0.165 -0.088,-0.155 -0.032,-0.353 0.123,-0.441 l 2.842,-1.598 c 0.158,-0.085 0.355,-0.031 0.442,0.124 0.088,0.155 0.032,0.353 -0.124,0.441 l -2.842,1.599 c -0.049,0.027 -0.104,0.04 -0.158,0.04 z"
   id="path15" />
				<path
   style="fill:#e1c37d"
   d="m 250.068,240.91 c -0.113,0 -0.223,-0.059 -0.283,-0.165 -0.088,-0.155 -0.033,-0.353 0.123,-0.441 l 1.409,-0.793 c 0.158,-0.086 0.354,-0.032 0.442,0.123 0.088,0.156 0.033,0.354 -0.123,0.442 l -1.409,0.793 c -0.051,0.028 -0.105,0.041 -0.159,0.041 z"
   id="path16" />
			</g>
			<path
   style="fill:#35241d"
   d="m 176.317,298.299 c 0,0 1.525,-2.955 4.957,-2.669 0,0 0.286,9.437 6.768,7.721 6.482,-1.716 24.182,-10.009 21.258,-22.783 0,0 1.525,-3.909 4.004,-2.955 0,0 3.432,14.394 -7.531,21.83 -10.963,7.436 -18.875,14.108 -25.929,8.484 0,0 -3.145,-1.906 -3.527,-9.628 z"
   id="path17" />
			<polygon
   style="fill:#b7934b"
   points="146.792,321.102 148.073,320.352 148.073,311.273 162.084,303.14 162.084,301.445 146.792,310.074 "
   id="polygon17" />
			<polygon
   style="fill:#b7934b"
   points="225.304,274.329 223.774,275.224 223.774,264.197 239.066,255.402 239.066,257.425 225.185,265.313 "
   id="polygon18" />
			<polygon
   style="fill:#b7934b"
   points="173.978,302.701 173.227,303.14 173.227,295.687 183.562,289.855 183.562,290.756 173.974,296.498 "
   id="polygon19" />
			<polygon
   style="fill:#b7934b"
   points="205.257,277.671 205.257,285.123 206.317,284.503 206.317,278.051 215.592,272.747 215.592,271.839 "
   id="polygon20" />
			<polygon
   style="fill:#e1c37d"
   points="155.402,111.316 119.503,126.173 123.55,132.397 159.754,117.74 "
   id="polygon21" />
			<polygon
   style="fill:#b7934b"
   points="120.427,125.79 119.503,126.173 123.55,132.397 159.754,117.74 159.199,116.92 124.029,131.462 "
   id="polygon22" />
			
				<rect
   x="138.98801"
   y="118.609"
   transform="matrix(0.9221,-0.3869,0.3869,0.9221,-36.0202,63.4623)"
   style="fill:#604a23"
   width="1.281"
   height="5.1900001"
   id="rect22" />
			<polygon
   style="fill:#443317"
   points="140.042,123.845 138.125,119.275 139.107,118.874 141.026,123.432 "
   id="polygon23" />
		</g>
		<g
   id="g133">
			<polygon
   style="opacity:0.5;fill:#262320"
   points="400.075,285.123 267.952,361.263 654.025,353.828 731.24,257.214 "
   id="polygon24" />
			<polygon
   style="opacity:0.5;fill:#262320"
   points="158.012,286.722 267.952,361.263 163.254,321.836 144.633,293.968 "
   id="polygon25" />
			<polygon
   style="fill:#f6f6f2"
   points="262.902,199.813 119.814,271.839 267.952,361.263 400.075,285.123 "
   id="polygon26" />
			<polygon
   style="fill:#ddddd0"
   points="400.075,285.123 267.952,361.263 523.618,328.089 611.128,239.793 "
   id="polygon27" />
			<polygon
   style="fill:#f6f6f2"
   points="611.128,239.793 523.618,328.089 654.025,353.828 731.24,257.214 "
   id="polygon28" />
			<polygon
   style="fill:#ddddd0"
   points="262.902,199.813 119.814,271.839 82.912,267.7 201.705,201.722 "
   id="polygon29" />
			<polygon
   style="fill:#f6f6f2"
   points="201.705,201.722 82.912,267.7 92.932,211.409 210.424,159.249 "
   id="polygon30" />
			<polygon
   style="fill:#6b685b"
   points="82.912,267.7 92.932,211.409 68.35,255.74 "
   id="polygon31" />
			<polygon
   style="fill:#caec58"
   points="205.257,161.543 97.895,209.206 89.524,264.028 196.126,204.82 "
   id="polygon32" />
			<path
   style="fill:#78d5f9"
   d="m 113.542,222.381 c 1.849,-3.548 4.155,-6.844 5.979,-10.405 1.824,-3.561 3.175,-7.503 2.899,-11.494 -0.032,-0.461 -0.132,-1.191 -0.3,-2.031 l -8.039,3.569 c 1.707,2.874 2.229,6.479 1.139,9.651 -0.424,1.234 -1.131,2.464 -2.299,3.046 -0.949,0.473 -2.058,0.451 -3.118,0.42 -2.571,-0.077 -5.277,-0.192 -7.463,-1.548 -1.643,-1.019 -2.811,-2.632 -4.224,-3.951 -0.081,-0.076 -0.169,-0.147 -0.254,-0.221 l -0.824,5.396 c 1.44,0.255 2.865,0.875 4.127,1.63 3.232,1.934 6.146,5.036 6.347,8.797 0.104,1.952 -0.531,3.858 -1.091,5.731 -2.466,8.252 -3.574,16.902 -3.307,25.51 l 6.629,-3.682 c -1.036,-2.816 -1.402,-5.921 -1.414,-8.945 -0.03,-7.439 1.775,-14.878 5.213,-21.473 z"
   id="path32" />
			<polygon
   style="fill:#9ebd44"
   points="196.126,204.82 89.524,264.028 128.95,267.24 255.769,203.403 "
   id="polygon33" />
			<polygon
   style="fill:#caec58"
   points="255.769,203.403 128.95,267.24 277.456,355.786 393.551,288.883 "
   id="polygon34" />
			<path
   style="fill:#78d5f9"
   d="m 162.084,250.561 c 0,0 26.781,26.144 61.69,-3.648 34.908,-29.792 75.271,-16.662 75.271,-16.662 l 5.639,3.498 c 0,0 -27.509,-4.806 -35.079,1.572 -7.57,6.378 9.609,15.502 18.802,11.406 9.192,-4.096 30.292,-4.284 30.292,-4.284 l 7.255,4.501 c 0,0 -19.416,1.272 -32.637,6.672 -13.22,5.4 -28.302,0.096 -35.006,-11.496 0,0 -9.32,-7.122 -21.977,6.19 -12.656,13.312 -30.788,21.753 -57.938,18.929 0,0 -12.813,-1.893 -18.399,-8.596 0,0 -3.278,-3.468 -11.214,-1.387 z"
   id="path34" />
			<path
   style="fill:#78d5f9"
   d="m 283.732,349.467 c 6.926,-4.265 14.098,-8.769 18.409,-15.667 4.311,-6.898 4.777,-16.93 -1.184,-22.465 -4.407,-4.093 -11.069,-4.72 -17.009,-3.772 -5.939,0.947 -11.606,3.225 -17.549,4.153 -8.319,1.299 -17.047,-0.161 -24.49,-4.098 -5.684,-3.006 -10.617,-7.394 -16.568,-9.827 -9.589,-3.919 -23.325,-1.732 -30.438,6.249 -0.52,0.584 -0.953,1.164 -1.318,1.74 l 81.842,48.798 c 0.147,-0.089 0.294,-0.177 0.44,-0.267 2.622,-1.616 5.243,-3.23 7.865,-4.844 z"
   id="path35" />
			<polygon
   style="fill:#9ebd44"
   points="393.551,288.883 277.456,355.786 530.544,321.102 607.073,243.885 "
   id="polygon35" />
			<polygon
   style="fill:#caec58"
   points="607.073,243.885 530.544,321.102 646.828,343.71 716.816,261.254 "
   id="polygon36" />
			<g
   style="opacity:0.4"
   id="g45">
				<g
   id="g44">
					<path
   style="fill:none;stroke:#262320;stroke-linecap:round;stroke-linejoin:round"
   d="m 151.817,187.976 c 0.945,0.329 1.777,0.773 2.501,1.314"
   id="path36" />
					<path
   style="fill:none;stroke:#262320;stroke-linecap:round;stroke-linejoin:round;stroke-dasharray:5.6454, 5.6454"
   d="m 157.551,193.822 c 1.961,5.512 0.2,13.337 -3.417,18.602 -4.274,6.223 -10.24,12.206 -12.156,19.156"
   id="path37" />
					<path
   style="fill:none;stroke:#262320;stroke-linecap:round;stroke-linejoin:round"
   d="m 141.448,234.351 c -0.098,0.924 -0.117,1.866 -0.045,2.829 0.833,-0.445 1.667,-0.89 2.5,-1.335"
   id="path38" />
					<path
   style="fill:none;stroke:#262320;stroke-linecap:round;stroke-linejoin:round;stroke-dasharray:5.779, 5.779"
   d="m 149,233.122 c 9.066,-4.842 18.132,-9.685 27.198,-14.527 4.272,-2.282 8.748,-4.62 13.59,-4.732 4.842,-0.112 10.124,2.761 11.047,7.516 0.993,5.117 -3.107,9.619 -5.446,14.278 -5.727,11.411 -0.368,26.046 9.475,34.177 9.844,8.131 23.023,10.953 35.755,11.919 26.708,2.026 53.52,-2.947 80.279,-1.758 10.58,0.47 23.049,3.318 26.909,13.18 2.721,6.954 -0.078,14.476 -4.273,20.954"
   id="path39" />
					<path
   style="fill:none;stroke:#262320;stroke-linecap:round;stroke-linejoin:round"
   d="m 341.9,316.51 c -0.56,0.773 -1.133,1.527 -1.712,2.258 0.555,0.781 1.164,1.503 1.818,2.171"
   id="path40" />
					<path
   style="fill:none;stroke:#262320;stroke-linecap:round;stroke-linejoin:round;stroke-dasharray:5.7702, 5.7702"
   d="m 346.581,324.425 c 4.782,2.743 10.66,4.002 16.214,4.827 52.904,7.856 108.569,-4.624 153.055,-34.314 17.207,-11.484 35.804,-26.15 55.698,-24.628"
   id="path41" />
					<path
   style="fill:none;stroke:#262320;stroke-linecap:round;stroke-linejoin:round"
   d="m 574.415,270.643 c 0.924,0.144 1.852,0.324 2.782,0.543 0.073,0.946 0.174,1.887 0.304,2.822"
   id="path42" />
					<path
   style="fill:none;stroke:#262320;stroke-linecap:round;stroke-linejoin:round;stroke-dasharray:5.5279, 5.5279"
   d="m 578.577,279.428 c 5.373,20.724 24.341,37.48 45.733,40.862 11.354,1.796 23.559,0.101 33.064,-6.364 9.505,-6.465 15.764,-18.118 14.18,-29.503 -1.585,-11.385 -11.986,-21.376 -23.473,-20.951 -9.578,0.355 -18.098,8.983 -18.738,18.221"
   id="path43" />
					<path
   style="fill:none;stroke:#262320;stroke-linecap:round;stroke-linejoin:round"
   d="m 629.392,284.456 c 0.099,0.928 0.284,1.855 0.561,2.773"
   id="path44" />
				</g>
			</g>
			<path
   style="fill:#cbb08f"
   d="m 393.809,305.481 c 2.021,3.37 5.916,5.299 9.819,5.749 3.904,0.45 7.841,-0.401 11.604,-1.535 3.637,-1.096 7.339,-2.48 11.117,-2.091 1.904,0.196 3.728,0.838 5.576,1.337 9.975,2.698 20.736,1.214 30.39,-2.472 9.654,-3.686 18.357,-9.465 26.733,-15.517 7.288,-5.267 14.457,-10.813 22.54,-14.754 9.699,-4.729 20.384,-6.988 30.945,-9.205 4.923,-1.034 9.89,-2.072 14.921,-2.059 2.869,0.007 5.761,0.356 8.593,-0.109 5.636,-0.926 10.315,-4.985 13.611,-9.651 1.415,-2.003 2.622,-4.133 3.763,-6.304 l -189.868,40.013 -1.817,1.047 c 0.103,1.644 0.179,3.277 0.171,4.88 -0.019,3.661 0.019,7.531 1.902,10.671 z"
   id="path45" />
			<path
   style="fill:#f5e4bb"
   d="m 405.803,303.528 c 10.899,5.905 23.937,-8.863 35.707,-4.971 1.69,0.559 3.24,1.486 4.932,2.039 8.472,2.767 16.642,-4.257 23.412,-10.053 9.758,-8.355 20.922,-15.281 33.232,-18.952 12.847,-3.831 26.489,-4.017 39.601,-6.809 9.82,-2.092 19.836,-6.122 26.88,-12.992 l -170.153,35.858 c -0.099,0.587 -0.175,1.185 -0.216,1.797 -0.37,5.467 1.787,11.473 6.605,14.083 z"
   id="path46" />
			<g
   id="g49">
				<path
   style="fill:#bd3d44"
   d="m 295.536,248.863 9.999,2.156 c 0,0 23.367,-19.204 24.979,-46.924 0,0 3.813,-30.145 -29.966,-29.318 0,0 20.061,6.396 19.042,23.497 -1.02,17.1 -23.546,46.045 -23.546,46.045 z"
   id="path47" />
				<path
   style="fill:#bd3d44"
   d="m 297.416,184.223 c 0,0 -12.889,10.432 -2.685,24.037 l -11.091,-0.348 -1.571,-15.164 3.247,-9.135 4.643,-1.708 c -10e-4,0 5.667,-1.592 7.457,2.318 z"
   id="path48" />
				<path
   style="fill:#ef4e55"
   d="m 300.548,174.778 c -5.26,-0.736 -24.364,-1.089 -27.473,22.752 -3.109,23.842 22.461,51.333 22.461,51.333 0,0 23.79,-19.009 28.512,-44.006 4.722,-24.997 -18.239,-29.343 -23.5,-30.079 z m -4.779,33.747 c -5.925,-0.662 -10.12,-6.645 -9.37,-13.364 0.75,-6.719 6.162,-11.629 12.088,-10.967 5.925,0.662 10.12,6.645 9.37,13.364 -0.751,6.719 -6.163,11.628 -12.088,10.967 z"
   id="path49" />
			</g>
			<g
   id="g52">
				<path
   style="fill:#bd3d44"
   d="m 600.881,298.72 9.999,2.156 c 0,0 23.367,-19.204 24.979,-46.923 0,0 3.813,-30.145 -29.966,-29.318 0,0 20.061,6.396 19.042,23.497 -1.02,17.1 -23.546,46.045 -23.546,46.045 z"
   id="path50" />
				<path
   style="fill:#bd3d44"
   d="m 602.76,234.079 c 0,0 -12.889,10.432 -2.686,24.038 l -11.091,-0.349 -1.571,-15.164 3.247,-9.135 4.643,-1.707 c 0,0 5.669,-1.593 7.458,2.317 z"
   id="path51" />
				<path
   style="fill:#ef4e55"
   d="m 605.892,224.634 c -5.26,-0.736 -24.364,-1.089 -27.473,22.752 -3.109,23.842 22.461,51.333 22.461,51.333 0,0 23.79,-19.009 28.512,-44.006 4.723,-24.997 -18.239,-29.343 -23.5,-30.079 z m -4.779,33.747 c -5.925,-0.662 -10.12,-6.645 -9.37,-13.364 0.75,-6.719 6.162,-11.629 12.088,-10.967 5.925,0.662 10.12,6.645 9.37,13.364 -0.75,6.719 -6.162,11.629 -12.088,10.967 z"
   id="path52" />
			</g>
			<path
   style="fill:#57b6d3"
   d="m 103.115,256.479 c 0,0 18.253,9.446 45.667,0.778 l 13.302,-6.696 c 0,0 -28.856,11.1 -52.34,2.236 z"
   id="path53" />
			<g
   id="g56">
				<polygon
   style="fill:#84847f"
   points="402.713,210.321 395.928,223.839 396.155,210.321 "
   id="polygon53" />
				<polygon
   style="fill:#a3a39f"
   points="395.928,223.839 454.907,198.98 397.972,211.938 "
   id="polygon54" />
				<polygon
   style="fill:#e5e5e3"
   points="397.972,211.938 454.907,198.98 384.944,200.342 "
   id="polygon55" />
				<polygon
   style="fill:#f6f6f2"
   points="426.44,221.662 397.972,211.938 454.907,198.98 "
   id="polygon56" />
			</g>
			<g
   id="g128">
				<path
   style="fill:#ffffff"
   d="m 390.309,226.061 c -0.207,0 -0.407,-0.113 -0.508,-0.309 -0.145,-0.281 -0.035,-0.626 0.246,-0.771 0.473,-0.245 0.942,-0.497 1.41,-0.758 0.275,-0.153 0.622,-0.056 0.777,0.221 0.154,0.276 0.055,0.624 -0.221,0.778 -0.477,0.266 -0.957,0.525 -1.441,0.775 -0.084,0.044 -0.174,0.064 -0.263,0.064 z"
   id="path56" />
				<g
   id="g127">
					<path
   style="fill:#ffffff"
   d="m 239.551,217.657 c -0.216,-0.231 -0.577,-0.242 -0.809,-0.027 -0.231,0.216 -0.242,0.578 -0.027,0.809 0.713,0.761 1.536,1.518 2.448,2.249 0.106,0.084 0.232,0.126 0.357,0.126 0.168,0 0.334,-0.073 0.447,-0.214 0.198,-0.247 0.158,-0.607 -0.088,-0.804 -0.87,-0.698 -1.653,-1.418 -2.328,-2.139 z"
   id="path57" />
					<path
   style="fill:#ffffff"
   d="m 241.312,213.837 c 0.207,0 0.406,-0.112 0.508,-0.308 0.146,-0.28 0.037,-0.626 -0.243,-0.771 -0.951,-0.495 -1.893,-1.01 -2.826,-1.544 -0.274,-0.158 -0.624,-0.063 -0.78,0.212 -0.158,0.274 -0.063,0.623 0.212,0.78 0.946,0.542 1.901,1.065 2.866,1.567 0.084,0.044 0.174,0.064 0.263,0.064 z"
   id="path58" />
					<path
   style="fill:#ffffff"
   d="m 236.468,212.367 c -0.072,-0.308 -0.382,-0.499 -0.688,-0.424 -0.307,0.073 -0.498,0.38 -0.425,0.688 0.249,1.052 0.692,2.109 1.315,3.143 0.107,0.178 0.297,0.277 0.49,0.277 0.101,0 0.202,-0.026 0.295,-0.082 0.27,-0.163 0.357,-0.515 0.194,-0.785 -0.561,-0.933 -0.959,-1.881 -1.181,-2.817 z"
   id="path59" />
					<path
   style="fill:#ffffff"
   d="m 235.688,210.609 c 0.19,0 0.375,-0.094 0.484,-0.267 0.128,-0.202 0.113,-0.454 -0.018,-0.637 0.096,-0.086 0.164,-0.205 0.184,-0.342 0.146,-0.985 0.483,-1.937 1.003,-2.831 0.159,-0.273 0.066,-0.623 -0.207,-0.782 -0.273,-0.159 -0.623,-0.066 -0.782,0.207 -0.57,0.98 -0.949,2.024 -1.126,3.106 -0.49,-0.317 -0.977,-0.641 -1.462,-0.971 l -0.457,-0.314 c -0.26,-0.181 -0.616,-0.116 -0.796,0.144 -0.18,0.259 -0.116,0.615 0.144,0.796 l 0.466,0.32 c 0.747,0.509 1.5,1.003 2.262,1.483 0.095,0.06 0.201,0.088 0.305,0.088 z"
   id="path60" />
					<path
   style="fill:#ffffff"
   d="m 265.279,229.861 c -1.051,-0.23 -2.098,-0.475 -3.139,-0.741 -0.309,-0.08 -0.618,0.106 -0.695,0.413 -0.078,0.306 0.107,0.618 0.413,0.695 1.055,0.269 2.114,0.518 3.178,0.749 0.041,0.009 0.082,0.014 0.122,0.014 0.263,0 0.5,-0.183 0.558,-0.45 0.068,-0.308 -0.128,-0.613 -0.437,-0.68 z"
   id="path61" />
					<path
   style="fill:#ffffff"
   d="m 213.762,190.875 c -0.227,-0.216 -0.589,-0.208 -0.809,0.02 -0.218,0.229 -0.209,0.591 0.02,0.809 l 2.35,2.238 c 0.111,0.106 0.252,0.157 0.394,0.157 0.151,0 0.302,-0.06 0.414,-0.178 0.218,-0.229 0.208,-0.591 -0.02,-0.809 z"
   id="path62" />
					<path
   style="fill:#ffffff"
   d="m 223.233,199.723 c -0.236,-0.21 -0.597,-0.189 -0.808,0.046 -0.211,0.236 -0.19,0.598 0.046,0.808 0.812,0.724 1.629,1.438 2.455,2.142 0.107,0.092 0.24,0.137 0.371,0.137 0.161,0 0.322,-0.068 0.435,-0.201 0.205,-0.24 0.176,-0.601 -0.064,-0.806 -0.819,-0.699 -1.63,-1.407 -2.435,-2.126 z"
   id="path63" />
					<path
   style="fill:#ffffff"
   d="m 228.153,203.909 c -0.246,-0.197 -0.606,-0.158 -0.804,0.087 -0.198,0.246 -0.159,0.606 0.087,0.804 0.848,0.682 1.705,1.352 2.573,2.005 0.103,0.078 0.224,0.115 0.343,0.115 0.174,0 0.345,-0.079 0.458,-0.228 0.19,-0.252 0.139,-0.611 -0.113,-0.801 -0.859,-0.646 -1.707,-1.308 -2.544,-1.982 z"
   id="path64" />
					<path
   style="fill:#ffffff"
   d="m 218.467,195.342 c -0.23,-0.216 -0.591,-0.206 -0.809,0.025 -0.216,0.23 -0.206,0.592 0.025,0.809 0.789,0.742 1.582,1.482 2.378,2.216 0.11,0.102 0.249,0.151 0.387,0.151 0.154,0 0.308,-0.062 0.421,-0.184 0.214,-0.232 0.199,-0.594 -0.033,-0.808 -0.794,-0.732 -1.583,-1.468 -2.369,-2.209 z"
   id="path65" />
					<path
   style="fill:#ffffff"
   d="m 259.034,228.266 c -1.03,-0.307 -2.052,-0.636 -3.063,-0.989 -0.298,-0.104 -0.624,0.053 -0.729,0.351 -0.104,0.298 0.053,0.624 0.351,0.729 1,0.349 2.048,0.688 3.114,1.005 0.054,0.016 0.109,0.024 0.163,0.024 0.247,0 0.474,-0.16 0.548,-0.409 0.091,-0.303 -0.081,-0.622 -0.384,-0.711 z"
   id="path66" />
					<path
   style="fill:#ffffff"
   d="m 247.19,223.349 c -0.939,-0.532 -1.857,-1.097 -2.728,-1.677 -0.264,-0.176 -0.618,-0.104 -0.793,0.159 -0.175,0.262 -0.104,0.618 0.159,0.793 0.893,0.596 1.835,1.175 2.798,1.721 0.089,0.05 0.186,0.074 0.282,0.074 0.199,0 0.393,-0.104 0.498,-0.29 0.156,-0.275 0.059,-0.624 -0.216,-0.78 z"
   id="path67" />
					<path
   style="fill:#ffffff"
   d="m 259.901,195.596 c -1.067,0.199 -2.132,0.409 -3.194,0.628 -0.309,0.064 -0.508,0.366 -0.445,0.676 0.056,0.27 0.294,0.456 0.56,0.456 0.039,0 0.077,-0.004 0.116,-0.012 1.056,-0.218 2.113,-0.427 3.173,-0.624 0.311,-0.058 0.515,-0.357 0.457,-0.668 -0.057,-0.31 -0.351,-0.509 -0.667,-0.456 z"
   id="path68" />
					<path
   style="fill:#ffffff"
   d="m 253.525,196.915 c -1.059,0.241 -2.115,0.492 -3.168,0.753 -0.307,0.077 -0.493,0.387 -0.417,0.693 0.065,0.26 0.298,0.434 0.555,0.434 0.046,0 0.092,-0.005 0.139,-0.017 1.046,-0.26 2.094,-0.509 3.146,-0.749 0.308,-0.07 0.501,-0.377 0.431,-0.684 -0.072,-0.307 -0.379,-0.504 -0.686,-0.43 z"
   id="path69" />
					<path
   style="fill:#ffffff"
   d="m 259.594,219.697 c -1.039,-0.281 -2.073,-0.578 -3.101,-0.892 -0.304,-0.095 -0.622,0.078 -0.714,0.38 -0.093,0.302 0.078,0.622 0.38,0.714 1.039,0.318 2.085,0.618 3.137,0.903 0.05,0.014 0.1,0.02 0.15,0.02 0.252,0 0.483,-0.168 0.552,-0.423 0.081,-0.305 -0.099,-0.619 -0.404,-0.702 z"
   id="path70" />
					<path
   style="fill:#ffffff"
   d="m 247.194,198.572 c -1.083,0.358 -2.12,0.757 -3.081,1.187 -0.289,0.128 -0.418,0.467 -0.289,0.755 0.095,0.213 0.304,0.339 0.523,0.339 0.077,0 0.157,-0.016 0.232,-0.05 0.928,-0.414 1.929,-0.799 2.975,-1.146 0.299,-0.099 0.463,-0.423 0.363,-0.723 -0.099,-0.299 -0.422,-0.464 -0.723,-0.362 z"
   id="path71" />
					<path
   style="fill:#ffffff"
   d="m 247.403,215.506 c -0.989,-0.421 -1.969,-0.86 -2.94,-1.318 -0.286,-0.135 -0.627,-0.012 -0.761,0.273 -0.135,0.286 -0.012,0.627 0.273,0.761 0.985,0.465 1.978,0.909 2.98,1.336 0.073,0.031 0.149,0.046 0.224,0.046 0.222,0 0.434,-0.131 0.526,-0.348 0.124,-0.291 -0.011,-0.627 -0.302,-0.75 z"
   id="path72" />
					<path
   style="fill:#ffffff"
   d="m 253.424,217.812 c -1.017,-0.349 -2.028,-0.714 -3.032,-1.099 -0.294,-0.111 -0.625,0.035 -0.738,0.329 -0.113,0.296 0.034,0.626 0.329,0.739 1.017,0.39 2.04,0.76 3.07,1.113 0.061,0.02 0.124,0.031 0.185,0.031 0.238,0 0.46,-0.149 0.541,-0.387 0.103,-0.299 -0.056,-0.624 -0.355,-0.726 z"
   id="path73" />
					<path
   style="fill:#ffffff"
   d="m 252.965,226.139 c -1.008,-0.413 -1.995,-0.852 -2.933,-1.305 -0.284,-0.136 -0.625,-0.017 -0.764,0.267 -0.137,0.284 -0.017,0.626 0.268,0.764 0.959,0.462 1.967,0.91 2.995,1.332 0.071,0.03 0.145,0.043 0.217,0.043 0.225,0 0.438,-0.133 0.529,-0.355 0.12,-0.293 -0.02,-0.627 -0.312,-0.746 z"
   id="path74" />
					<path
   style="fill:#ffffff"
   d="m 209.023,186.427 c -0.232,-0.214 -0.595,-0.198 -0.808,0.033 -0.214,0.233 -0.199,0.594 0.033,0.808 0.794,0.731 1.583,1.467 2.372,2.208 0.11,0.104 0.251,0.155 0.392,0.155 0.152,0 0.304,-0.06 0.417,-0.18 0.216,-0.23 0.205,-0.592 -0.025,-0.808 -0.792,-0.744 -1.585,-1.483 -2.381,-2.216 z"
   id="path75" />
					<path
   style="fill:#ffffff"
   d="m 129.517,179.737 c -0.823,0.718 -1.63,1.471 -2.399,2.238 -0.224,0.223 -0.225,0.585 -10e-4,0.809 0.112,0.112 0.258,0.168 0.405,0.168 0.146,0 0.292,-0.056 0.404,-0.167 0.751,-0.748 1.54,-1.485 2.344,-2.187 0.238,-0.208 0.262,-0.568 0.055,-0.807 -0.209,-0.238 -0.569,-0.262 -0.808,-0.054 z"
   id="path76" />
					<path
   style="fill:#ffffff"
   d="m 140.383,172.44 c -0.974,0.493 -1.942,1.021 -2.879,1.568 -0.273,0.159 -0.364,0.509 -0.205,0.783 0.106,0.182 0.298,0.283 0.494,0.283 0.098,0 0.197,-0.025 0.288,-0.078 0.917,-0.536 1.865,-1.052 2.819,-1.535 0.281,-0.143 0.394,-0.487 0.252,-0.769 -0.144,-0.281 -0.486,-0.396 -0.769,-0.252 z"
   id="path77" />
					<path
   style="fill:#ffffff"
   d="m 134.724,175.75 c -0.907,0.608 -1.804,1.251 -2.667,1.911 -0.251,0.192 -0.299,0.551 -0.107,0.801 0.112,0.148 0.283,0.225 0.455,0.225 0.121,0 0.244,-0.038 0.347,-0.118 0.844,-0.646 1.721,-1.274 2.608,-1.868 0.263,-0.176 0.332,-0.531 0.157,-0.794 -0.176,-0.264 -0.531,-0.334 -0.793,-0.157 z"
   id="path78" />
					<path
   style="fill:#ffffff"
   d="m 146.393,169.83 c -1.025,0.376 -2.049,0.785 -3.044,1.217 -0.29,0.126 -0.423,0.463 -0.297,0.752 0.093,0.216 0.304,0.344 0.525,0.344 0.076,0 0.153,-0.015 0.227,-0.048 0.974,-0.423 1.977,-0.824 2.982,-1.192 0.296,-0.108 0.449,-0.437 0.34,-0.734 -0.108,-0.295 -0.434,-0.447 -0.733,-0.339 z"
   id="path79" />
					<path
   style="fill:#ffffff"
   d="m 238.886,204.309 c 0.14,0 0.28,-0.051 0.39,-0.154 0.71,-0.661 1.55,-1.294 2.499,-1.882 0.269,-0.167 0.351,-0.519 0.185,-0.788 -0.166,-0.269 -0.519,-0.352 -0.788,-0.185 -1.013,0.627 -1.913,1.306 -2.676,2.018 -0.231,0.216 -0.244,0.578 -0.029,0.808 0.113,0.122 0.266,0.183 0.419,0.183 z"
   id="path80" />
					<path
   style="fill:#ffffff"
   d="m 345.912,203.618 c 0.966,0.587 1.792,1.224 2.455,1.892 0.112,0.113 0.259,0.169 0.406,0.169 0.146,0 0.292,-0.055 0.403,-0.166 0.225,-0.223 0.226,-0.585 0.003,-0.809 -0.728,-0.734 -1.628,-1.428 -2.673,-2.064 -0.27,-0.164 -0.621,-0.078 -0.786,0.192 -0.164,0.27 -0.078,0.622 0.192,0.786 z"
   id="path81" />
					<path
   style="fill:#ffffff"
   d="m 333.08,199.318 c 1.042,0.275 2.081,0.561 3.118,0.857 0.053,0.014 0.105,0.022 0.157,0.022 0.249,0 0.478,-0.163 0.55,-0.415 0.087,-0.304 -0.089,-0.62 -0.393,-0.707 -1.044,-0.298 -2.091,-0.585 -3.14,-0.863 -0.303,-0.078 -0.619,0.101 -0.699,0.407 -0.081,0.305 0.101,0.618 0.407,0.699 z"
   id="path82" />
					<path
   style="fill:#ffffff"
   d="m 152.665,167.934 c -1.057,0.255 -2.121,0.543 -3.163,0.858 -0.302,0.091 -0.473,0.411 -0.382,0.713 0.074,0.247 0.302,0.407 0.548,0.407 0.055,0 0.11,-0.008 0.165,-0.025 1.021,-0.308 2.064,-0.591 3.1,-0.84 0.307,-0.074 0.496,-0.383 0.422,-0.69 -0.073,-0.308 -0.379,-0.495 -0.69,-0.423 z"
   id="path83" />
					<path
   style="fill:#ffffff"
   d="m 204.149,182.105 c -0.241,-0.204 -0.602,-0.174 -0.807,0.066 -0.204,0.241 -0.175,0.602 0.066,0.807 0.82,0.696 1.633,1.404 2.44,2.12 0.109,0.097 0.245,0.145 0.38,0.145 0.158,0 0.314,-0.065 0.427,-0.192 0.21,-0.236 0.189,-0.598 -0.048,-0.807 -0.812,-0.724 -1.631,-1.438 -2.458,-2.139 z"
   id="path84" />
					<path
   style="fill:#ffffff"
   d="m 193.651,174.346 c -0.27,-0.166 -0.621,-0.082 -0.787,0.187 -0.165,0.269 -0.082,0.621 0.187,0.787 0.886,0.546 1.793,1.135 2.696,1.753 0.099,0.068 0.211,0.1 0.322,0.1 0.183,0 0.362,-0.087 0.473,-0.249 0.178,-0.261 0.112,-0.617 -0.149,-0.795 -0.918,-0.627 -1.841,-1.227 -2.742,-1.783 z"
   id="path85" />
					<path
   style="fill:#ffffff"
   d="m 159.113,166.77 c -1.081,0.132 -2.172,0.296 -3.241,0.489 -0.311,0.056 -0.517,0.354 -0.461,0.665 0.05,0.276 0.291,0.47 0.563,0.47 0.033,0 0.068,-0.003 0.102,-0.009 1.047,-0.189 2.116,-0.35 3.176,-0.48 0.313,-0.038 0.537,-0.323 0.498,-0.637 -0.038,-0.312 -0.322,-0.536 -0.637,-0.498 z"
   id="path86" />
					<path
   style="fill:#ffffff"
   d="m 199.051,178.031 c -0.253,-0.188 -0.612,-0.137 -0.8,0.117 -0.189,0.253 -0.137,0.611 0.117,0.8 0.86,0.642 1.71,1.3 2.551,1.973 0.105,0.085 0.232,0.126 0.357,0.126 0.168,0 0.334,-0.073 0.447,-0.214 0.198,-0.247 0.158,-0.607 -0.089,-0.804 -0.852,-0.682 -1.712,-1.349 -2.583,-1.998 z"
   id="path87" />
					<path
   style="fill:#ffffff"
   d="m 184.898,169.902 c -1.012,-0.4 -2.051,-0.771 -3.092,-1.104 -0.302,-0.098 -0.623,0.07 -0.719,0.37 -0.097,0.301 0.07,0.623 0.37,0.719 1.017,0.325 2.033,0.688 3.02,1.078 0.069,0.027 0.14,0.04 0.211,0.04 0.228,0 0.443,-0.137 0.532,-0.361 0.115,-0.294 -0.029,-0.626 -0.322,-0.742 z"
   id="path88" />
					<path
   style="fill:#ffffff"
   d="m 190.824,172.7 c -0.962,-0.527 -1.943,-1.027 -2.916,-1.489 -0.286,-0.136 -0.627,-0.013 -0.762,0.271 -0.136,0.286 -0.014,0.627 0.271,0.762 0.953,0.452 1.914,0.943 2.856,1.459 0.087,0.048 0.182,0.07 0.274,0.07 0.202,0 0.398,-0.107 0.502,-0.297 0.153,-0.276 0.052,-0.624 -0.225,-0.776 z"
   id="path89" />
					<path
   style="fill:#ffffff"
   d="m 178.648,167.902 c -1.049,-0.261 -2.129,-0.493 -3.208,-0.689 -0.308,-0.058 -0.608,0.149 -0.665,0.46 -0.057,0.311 0.149,0.608 0.46,0.665 1.055,0.192 2.11,0.419 3.136,0.674 0.046,0.011 0.093,0.017 0.139,0.017 0.256,0 0.49,-0.174 0.555,-0.434 0.077,-0.307 -0.11,-0.617 -0.417,-0.693 z"
   id="path90" />
					<path
   style="fill:#ffffff"
   d="m 165.655,166.36 c 0,0 -0.001,0 -0.002,0 -1.081,0.004 -2.183,0.041 -3.276,0.109 -0.315,0.02 -0.555,0.292 -0.535,0.607 0.019,0.303 0.271,0.536 0.57,0.536 0.012,0 0.024,-0.001 0.036,-0.001 1.07,-0.067 2.15,-0.103 3.209,-0.107 0.316,-0.001 0.571,-0.258 0.57,-0.574 -0.001,-0.316 -0.257,-0.57 -0.572,-0.57 z"
   id="path91" />
					<path
   style="fill:#ffffff"
   d="m 172.197,166.728 c -1.077,-0.127 -2.176,-0.222 -3.267,-0.283 -0.339,-0.02 -0.586,0.223 -0.603,0.538 -0.018,0.316 0.223,0.586 0.538,0.603 1.068,0.06 2.144,0.154 3.198,0.278 0.023,0.003 0.045,0.004 0.068,0.004 0.286,0 0.533,-0.214 0.567,-0.505 0.037,-0.314 -0.188,-0.598 -0.501,-0.635 z"
   id="path92" />
					<path
   style="fill:#ffffff"
   d="m 336.252,233.446 c -1.08,0.041 -2.16,0.081 -3.241,0.118 -0.316,0.011 -0.563,0.275 -0.552,0.591 0.011,0.309 0.264,0.552 0.571,0.552 0.007,0 0.013,0 0.02,-0.001 1.083,-0.037 2.164,-0.077 3.245,-0.118 0.316,-0.012 0.562,-0.278 0.55,-0.593 -0.012,-0.315 -0.288,-0.557 -0.593,-0.549 z"
   id="path93" />
					<path
   style="fill:#ffffff"
   d="m 339.458,218.079 c 0.066,0 0.135,-0.012 0.201,-0.036 1.02,-0.382 2.032,-0.785 3.036,-1.209 0.291,-0.122 0.427,-0.458 0.305,-0.749 -0.122,-0.292 -0.46,-0.428 -0.749,-0.304 -0.99,0.417 -1.987,0.814 -2.993,1.191 -0.296,0.111 -0.446,0.441 -0.335,0.736 0.085,0.229 0.303,0.371 0.535,0.371 z"
   id="path94" />
					<path
   style="fill:#ffffff"
   d="m 336.218,218.045 c -1.019,0.339 -2.046,0.659 -3.078,0.961 -0.303,0.089 -0.477,0.407 -0.388,0.71 0.073,0.25 0.301,0.411 0.549,0.411 0.053,0 0.107,-0.007 0.161,-0.023 1.045,-0.307 2.084,-0.63 3.117,-0.973 0.299,-0.099 0.462,-0.423 0.362,-0.723 -0.099,-0.3 -0.423,-0.46 -0.723,-0.363 z"
   id="path95" />
					<path
   style="fill:#ffffff"
   d="m 342.734,233.184 -3.241,0.134 c -0.316,0.013 -0.561,0.279 -0.548,0.595 0.012,0.308 0.266,0.548 0.571,0.548 0.008,0 0.016,0 0.024,-0.001 l 3.242,-0.134 c 0.316,-0.013 0.561,-0.28 0.547,-0.595 -0.013,-0.315 -0.265,-0.566 -0.595,-0.547 z"
   id="path96" />
					<path
   style="fill:#ffffff"
   d="m 343.512,201.159 c -0.417,-0.164 -0.832,-0.312 -1.239,-0.443 -0.627,-0.2 -1.255,-0.398 -1.883,-0.591 -0.301,-0.094 -0.621,0.078 -0.715,0.379 -0.093,0.302 0.077,0.622 0.379,0.715 0.625,0.192 1.248,0.387 1.871,0.587 0.384,0.123 0.775,0.263 1.168,0.418 0.069,0.027 0.14,0.04 0.21,0.04 0.228,0 0.444,-0.137 0.532,-0.362 0.115,-0.294 -0.029,-0.627 -0.323,-0.743 z"
   id="path97" />
					<path
   style="fill:#ffffff"
   d="m 330.03,219.859 c -1.041,0.267 -2.087,0.517 -3.137,0.752 -0.308,0.069 -0.503,0.374 -0.433,0.682 0.059,0.266 0.295,0.447 0.557,0.447 0.041,0 0.083,-0.005 0.125,-0.014 1.063,-0.237 2.12,-0.489 3.173,-0.76 0.306,-0.079 0.49,-0.39 0.412,-0.697 -0.079,-0.304 -0.388,-0.486 -0.697,-0.41 z"
   id="path98" />
					<path
   style="fill:#ffffff"
   d="m 345.678,215.501 0.326,-0.155 c 0.806,-0.385 1.744,-0.862 2.596,-1.477 0.256,-0.185 0.314,-0.542 0.129,-0.798 -0.184,-0.256 -0.541,-0.314 -0.798,-0.129 -0.779,0.561 -1.66,1.009 -2.421,1.373 l -0.319,0.152 c -0.285,0.135 -0.408,0.475 -0.273,0.761 0.097,0.207 0.303,0.328 0.518,0.328 0.08,0 0.163,-0.017 0.242,-0.055 z"
   id="path99" />
					<path
   style="fill:#ffffff"
   d="m 320.645,222.969 c 0.031,0 0.062,-0.002 0.093,-0.008 1.073,-0.176 2.143,-0.366 3.21,-0.571 0.31,-0.06 0.513,-0.36 0.453,-0.67 -0.06,-0.311 -0.36,-0.518 -0.67,-0.453 -1.056,0.203 -2.116,0.391 -3.179,0.566 -0.312,0.051 -0.523,0.345 -0.471,0.657 0.047,0.28 0.289,0.479 0.564,0.479 z"
   id="path100" />
					<path
   style="fill:#ffffff"
   d="m 323.954,233.847 c -1.08,0.023 -2.161,0.044 -3.241,0.061 -0.316,0.005 -0.568,0.265 -0.563,0.581 0.005,0.313 0.26,0.563 0.572,0.563 0.003,0 0.006,0 0.009,0 1.083,-0.017 2.166,-0.038 3.248,-0.061 0.316,-0.007 0.566,-0.269 0.56,-0.584 -0.007,-0.316 -0.247,-0.525 -0.585,-0.56 z"
   id="path101" />
					<path
   style="fill:#ffffff"
   d="m 329.77,233.673 c -1.081,0.033 -2.161,0.065 -3.241,0.094 -0.316,0.008 -0.565,0.271 -0.557,0.587 0.008,0.311 0.263,0.557 0.571,0.557 0.006,0 0.011,0 0.016,0 1.082,-0.029 2.164,-0.06 3.246,-0.095 0.316,-0.009 0.563,-0.274 0.554,-0.589 -0.009,-0.316 -0.283,-0.584 -0.589,-0.554 z"
   id="path102" />
					<path
   style="fill:#ffffff"
   d="m 355.693,232.583 c -1.08,0.064 -2.159,0.12 -3.236,0.174 -0.315,0.016 -0.559,0.284 -0.543,0.599 0.015,0.306 0.268,0.544 0.571,0.544 0.009,0 0.019,0 0.028,-0.001 1.081,-0.053 2.164,-0.111 3.247,-0.175 0.316,-0.018 0.556,-0.289 0.537,-0.604 -0.018,-0.315 -0.293,-0.553 -0.604,-0.537 z"
   id="path103" />
					<path
   style="fill:#ffffff"
   d="m 265.875,221.19 c -1.055,-0.218 -2.106,-0.451 -3.152,-0.699 -0.303,-0.073 -0.615,0.117 -0.689,0.424 -0.073,0.307 0.117,0.616 0.424,0.689 1.057,0.252 2.119,0.487 3.185,0.707 0.039,0.008 0.078,0.012 0.116,0.012 0.266,0 0.504,-0.186 0.56,-0.456 0.064,-0.31 -0.135,-0.613 -0.444,-0.677 z"
   id="path104" />
					<path
   style="fill:#ffffff"
   d="m 368.562,231.363 c -1.063,0.152 -2.131,0.289 -3.201,0.411 -0.314,0.036 -0.54,0.32 -0.504,0.633 0.034,0.292 0.282,0.507 0.568,0.507 0.022,0 0.045,-10e-4 0.066,-0.004 1.08,-0.124 2.159,-0.261 3.234,-0.415 0.312,-0.045 0.53,-0.335 0.485,-0.647 -0.045,-0.312 -0.328,-0.53 -0.648,-0.485 z"
   id="path105" />
					<path
   style="fill:#ffffff"
   d="m 374.91,230.239 c -1.048,0.226 -2.101,0.431 -3.163,0.617 -0.311,0.055 -0.518,0.351 -0.464,0.662 0.048,0.278 0.289,0.473 0.562,0.473 0.034,0 0.067,-0.003 0.101,-0.008 1.075,-0.19 2.144,-0.397 3.205,-0.626 0.308,-0.066 0.505,-0.371 0.439,-0.68 -0.066,-0.307 -0.368,-0.509 -0.68,-0.438 z"
   id="path106" />
					<path
   style="fill:#ffffff"
   d="m 387.905,226.658 c -0.129,-0.288 -0.464,-0.418 -0.754,-0.293 -0.965,0.425 -1.966,0.831 -2.976,1.206 -0.296,0.111 -0.446,0.44 -0.336,0.736 0.086,0.23 0.304,0.373 0.536,0.373 0.066,0 0.134,-0.012 0.2,-0.036 1.029,-0.383 2.051,-0.798 3.036,-1.232 0.289,-0.127 0.421,-0.465 0.294,-0.754 z"
   id="path107" />
					<path
   style="fill:#ffffff"
   d="m 317.359,222.316 c -1.067,0.148 -2.135,0.283 -3.206,0.406 -0.314,0.036 -0.539,0.32 -0.503,0.633 0.033,0.292 0.28,0.507 0.567,0.507 0.022,0 0.044,-0.001 0.066,-0.004 1.08,-0.124 2.157,-0.26 3.233,-0.409 0.313,-0.043 0.531,-0.332 0.488,-0.645 -0.043,-0.314 -0.334,-0.535 -0.645,-0.488 z"
   id="path108" />
					<path
   style="fill:#ffffff"
   d="m 362.146,232.105 c -1.073,0.099 -2.148,0.186 -3.224,0.265 -0.315,0.023 -0.551,0.297 -0.528,0.612 0.022,0.3 0.273,0.53 0.57,0.53 0.014,0 0.028,-0.001 0.043,-0.002 1.082,-0.079 2.164,-0.167 3.245,-0.266 0.314,-0.029 0.546,-0.307 0.517,-0.622 -0.031,-0.315 -0.311,-0.542 -0.623,-0.517 z"
   id="path109" />
					<path
   style="fill:#ffffff"
   d="m 350.344,207.262 c -0.301,0.095 -0.467,0.417 -0.372,0.718 0.125,0.394 0.189,0.794 0.189,1.187 0,0.503 -0.104,1.013 -0.338,1.585 l 0.527,0.222 0.561,0.141 c 0.261,-0.641 0.394,-1.296 0.394,-1.948 -0.001,-0.512 -0.082,-1.027 -0.243,-1.533 -0.095,-0.302 -0.416,-0.469 -0.718,-0.372 z"
   id="path110" />
					<path
   style="fill:#ffffff"
   d="m 349.217,232.906 -3.242,0.14 c -0.315,0.014 -0.56,0.281 -0.546,0.596 0.013,0.307 0.267,0.547 0.571,0.547 0.008,0 0.017,0 0.026,-0.001 l 3.242,-0.14 c 0.316,-0.014 0.56,-0.281 0.546,-0.597 -0.014,-0.314 -0.299,-0.566 -0.597,-0.545 z"
   id="path111" />
					<path
   style="fill:#ffffff"
   d="m 381.135,228.611 c -1.003,0.313 -2.043,0.611 -3.091,0.884 -0.306,0.08 -0.489,0.392 -0.409,0.698 0.067,0.258 0.298,0.428 0.553,0.428 0.047,0 0.096,-0.006 0.144,-0.018 1.066,-0.277 2.124,-0.58 3.145,-0.899 0.302,-0.094 0.469,-0.415 0.375,-0.716 -0.095,-0.303 -0.409,-0.47 -0.717,-0.377 z"
   id="path112" />
					<path
   style="fill:#ffffff"
   d="m 310.938,223.057 c -1.073,0.101 -2.148,0.19 -3.223,0.27 -0.315,0.023 -0.551,0.298 -0.528,0.613 0.022,0.3 0.273,0.53 0.57,0.53 0.014,0 0.028,-0.001 0.043,-0.002 1.082,-0.08 2.164,-0.17 3.245,-0.271 0.314,-0.029 0.545,-0.309 0.516,-0.623 -0.03,-0.316 -0.308,-0.561 -0.623,-0.517 z"
   id="path113" />
					<path
   style="fill:#ffffff"
   d="m 272.784,193.707 c -1.08,0.116 -2.157,0.241 -3.234,0.378 -0.313,0.04 -0.535,0.326 -0.495,0.639 0.037,0.289 0.283,0.5 0.567,0.5 0.024,0 0.048,-0.002 0.073,-0.004 1.069,-0.136 2.14,-0.261 3.212,-0.376 0.314,-0.034 0.541,-0.316 0.508,-0.629 -0.035,-0.314 -0.307,-0.539 -0.631,-0.508 z"
   id="path114" />
					<path
   style="fill:#ffffff"
   d="m 278.646,223.118 c -1.072,-0.107 -2.143,-0.226 -3.212,-0.359 -0.309,-0.04 -0.599,0.183 -0.638,0.497 -0.039,0.313 0.183,0.599 0.497,0.638 1.077,0.134 2.157,0.255 3.24,0.363 0.019,0.002 0.038,0.003 0.057,0.003 0.29,0 0.539,-0.22 0.569,-0.516 0.032,-0.314 -0.198,-0.594 -0.513,-0.626 z"
   id="path115" />
					<path
   style="fill:#ffffff"
   d="m 283.066,232.656 c -1.074,-0.106 -2.147,-0.218 -3.218,-0.34 -0.32,-0.038 -0.597,0.19 -0.632,0.504 -0.036,0.314 0.19,0.597 0.504,0.632 1.078,0.122 2.156,0.236 3.235,0.342 0.019,0.002 0.038,0.003 0.056,0.003 0.291,0 0.54,-0.221 0.569,-0.516 0.03,-0.314 -0.199,-0.594 -0.514,-0.625 z"
   id="path116" />
					<path
   style="fill:#ffffff"
   d="m 272.234,222.32 c -1.066,-0.16 -2.129,-0.333 -3.188,-0.521 -0.317,-0.057 -0.608,0.152 -0.663,0.463 -0.055,0.311 0.152,0.608 0.463,0.663 1.069,0.19 2.142,0.365 3.218,0.527 0.029,0.004 0.058,0.006 0.086,0.006 0.279,0 0.522,-0.203 0.565,-0.487 0.047,-0.312 -0.169,-0.604 -0.481,-0.651 z"
   id="path117" />
					<path
   style="fill:#ffffff"
   d="m 285.092,223.613 c -1.076,-0.058 -2.151,-0.128 -3.226,-0.211 -0.31,-0.028 -0.59,0.212 -0.614,0.527 -0.024,0.315 0.212,0.59 0.527,0.614 1.082,0.083 2.167,0.154 3.251,0.212 0.011,0.001 0.021,0.001 0.032,0.001 0.302,0 0.554,-0.236 0.571,-0.541 0.016,-0.315 -0.226,-0.585 -0.541,-0.602 z"
   id="path118" />
					<path
   style="fill:#ffffff"
   d="m 266.324,194.527 c -1.074,0.158 -2.146,0.325 -3.216,0.503 -0.312,0.052 -0.522,0.346 -0.47,0.658 0.046,0.28 0.289,0.478 0.564,0.478 0.031,0 0.063,-0.002 0.094,-0.008 1.064,-0.177 2.128,-0.344 3.195,-0.5 0.312,-0.046 0.528,-0.336 0.482,-0.649 -0.047,-0.312 -0.33,-0.536 -0.649,-0.482 z"
   id="path119" />
					<path
   style="fill:#ffffff"
   d="m 271.626,231.061 c -1.061,-0.173 -2.123,-0.359 -3.182,-0.558 -0.315,-0.058 -0.61,0.146 -0.668,0.456 -0.059,0.311 0.146,0.61 0.456,0.668 1.07,0.202 2.14,0.388 3.21,0.564 0.031,0.005 0.062,0.007 0.093,0.007 0.276,0 0.518,-0.2 0.564,-0.48 0.05,-0.312 -0.161,-0.606 -0.473,-0.657 z"
   id="path120" />
					<path
   style="fill:#ffffff"
   d="m 278.028,231.991 c -1.07,-0.137 -2.138,-0.283 -3.206,-0.438 -0.319,-0.051 -0.603,0.171 -0.648,0.484 -0.046,0.312 0.171,0.603 0.483,0.648 1.074,0.157 2.149,0.303 3.224,0.442 0.025,0.003 0.05,0.004 0.074,0.004 0.284,0 0.53,-0.211 0.567,-0.499 0.041,-0.314 -0.181,-0.6 -0.494,-0.641 z"
   id="path121" />
					<path
   style="fill:#ffffff"
   d="m 291.555,223.832 c -1.077,-0.015 -2.154,-0.04 -3.232,-0.076 -0.276,-0.022 -0.58,0.236 -0.59,0.552 -0.011,0.316 0.236,0.58 0.552,0.59 1.085,0.037 2.17,0.062 3.255,0.077 0.003,0 0.005,0 0.008,0 0.312,0 0.568,-0.251 0.572,-0.564 0.003,-0.315 -0.249,-0.575 -0.565,-0.579 z"
   id="path122" />
					<path
   style="fill:#ffffff"
   d="m 299.378,193.051 c -1.084,-0.05 -2.168,-0.09 -3.254,-0.12 -0.301,-0.011 -0.579,0.24 -0.588,0.556 -0.008,0.316 0.241,0.579 0.556,0.588 1.078,0.029 2.155,0.069 3.231,0.119 0.01,0.001 0.018,0.001 0.027,0.001 0.303,0 0.556,-0.239 0.571,-0.545 0.016,-0.316 -0.228,-0.584 -0.543,-0.599 z"
   id="path123" />
					<path
   style="fill:#ffffff"
   d="m 304.488,223.538 c -0.632,0.035 -1.263,0.068 -1.895,0.099 l -1.337,0.059 c -0.316,0.013 -0.561,0.279 -0.548,0.595 0.013,0.308 0.266,0.549 0.571,0.549 0.008,0 0.016,0 0.024,-0.001 l 1.346,-0.059 c 0.634,-0.031 1.27,-0.064 1.905,-0.1 0.315,-0.017 0.556,-0.288 0.538,-0.603 -0.019,-0.316 -0.279,-0.564 -0.604,-0.539 z"
   id="path124" />
					<path
   style="fill:#ffffff"
   d="m 306.423,193.414 c -1.081,-0.092 -2.163,-0.173 -3.246,-0.244 -0.308,-0.015 -0.588,0.218 -0.608,0.533 -0.021,0.315 0.218,0.588 0.533,0.608 1.075,0.07 2.15,0.151 3.225,0.242 0.016,0.002 0.032,0.002 0.049,0.002 0.294,0 0.544,-0.226 0.569,-0.524 0.026,-0.314 -0.207,-0.591 -0.522,-0.617 z"
   id="path125" />
					<path
   style="fill:#ffffff"
   d="m 298.022,223.798 c -1.077,0.025 -2.155,0.041 -3.233,0.046 -0.316,0.002 -0.571,0.259 -0.569,0.575 0.002,0.315 0.258,0.569 0.572,0.569 0.001,0 0.002,0 0.003,0 1.085,-0.006 2.171,-0.021 3.255,-0.046 0.316,-0.007 0.566,-0.269 0.558,-0.585 -0.009,-0.316 -0.274,-0.59 -0.586,-0.559 z"
   id="path126" />
					<path
   style="fill:#ffffff"
   d="m 292.285,192.747 c -0.22,-0.002 -0.44,0.002 -0.661,10e-4 -0.094,0.296 -0.222,0.715 -0.339,1.145 0.33,0.001 0.66,-0.004 0.99,-0.002 0.002,0 0.003,0 0.005,0 0.314,0 0.569,-0.253 0.572,-0.567 0.002,-0.316 -0.252,-0.574 -0.567,-0.577 z"
   id="path127" />
				</g>
				<path
   style="fill:#ffffff"
   d="m 124.174,186.653 c -0.127,0 -0.254,-0.042 -0.36,-0.128 -0.245,-0.199 -0.282,-0.56 -0.083,-0.805 0.347,-0.426 0.7,-0.846 1.061,-1.259 0.208,-0.238 0.57,-0.262 0.807,-0.055 0.238,0.208 0.263,0.569 0.055,0.807 -0.351,0.403 -0.697,0.813 -1.035,1.229 -0.114,0.139 -0.279,0.211 -0.445,0.211 z"
   id="path128" />
			</g>
			<g
   id="g130">
				<path
   style="fill:#a3a39f"
   d="m 55.738,322.042 c -0.294,1.22 -3.072,14.397 -3.072,14.397 L 23.92,333.676 Z"
   id="path129" />
				<polygon
   style="fill:#f6f6f2"
   points="23.919,333.677 18.76,316.829 55.738,322.042 "
   id="polygon129" />
				<polygon
   style="fill:#e5e5e3"
   points="23.919,333.677 55.738,322.042 82.587,334.243 "
   id="polygon130" />
			</g>
			<g
   id="g131">
				
					<rect
   x="64.427002"
   y="320.08401"
   transform="matrix(0.9724,-0.2333,0.2333,0.9724,-73.0191,24.0733)"
   style="fill:#ffffff"
   width="1.622"
   height="1.145"
   id="rect130" />
				<path
   style="fill:#ffffff"
   d="m 69.289,320.261 -0.271,-1.111 3.123,-0.768 0.275,1.11 z m 6.252,-1.553 -0.281,-1.108 c 1.038,-0.264 2.075,-0.531 3.113,-0.801 l 0.289,1.106 c -1.04,0.272 -2.08,0.539 -3.121,0.803 z m 6.236,-1.628 -0.298,-1.104 c 1.034,-0.279 2.066,-0.562 3.096,-0.854 l 0.311,1.102 c -1.034,0.292 -2.071,0.577 -3.109,0.856 z m 6.209,-1.744 -0.322,-1.097 c 1.027,-0.302 2.053,-0.609 3.074,-0.924 l 0.337,1.092 c -1.026,0.318 -2.056,0.628 -3.089,0.929 z m 6.166,-1.902 -0.353,-1.088 c 1.018,-0.331 2.033,-0.669 3.043,-1.015 l 0.371,1.081 c -1.016,0.348 -2.036,0.689 -3.061,1.022 z m 6.107,-2.098 -0.392,-1.075 c 1.005,-0.366 2.006,-0.743 3.002,-1.128 l 0.413,1.066 c -1.003,0.39 -2.011,0.768 -3.023,1.137 z m 6.022,-2.337 -0.437,-1.057 c 0.988,-0.409 1.97,-0.828 2.946,-1.259 l 0.462,1.046 c -0.984,0.435 -1.974,0.859 -2.971,1.27 z m 5.912,-2.612 -0.488,-1.034 c 0.965,-0.456 1.923,-0.925 2.875,-1.408 l 0.518,1.02 c -0.962,0.488 -1.93,0.962 -2.905,1.422 z m 5.769,-2.926 -0.546,-1.005 c 0.936,-0.508 1.865,-1.032 2.787,-1.572 l 0.578,0.987 c -0.933,0.547 -1.872,1.076 -2.819,1.59 z m 5.584,-3.266 -0.61,-0.967 c 0.899,-0.568 1.79,-1.153 2.671,-1.755 l 0.644,0.945 c -0.892,0.609 -1.794,1.203 -2.705,1.777 z m 5.343,-3.658 -0.682,-0.918 c 0.855,-0.635 1.699,-1.286 2.53,-1.954 l 0.716,0.891 c -0.842,0.677 -1.697,1.337 -2.564,1.981 z m 5.053,-4.058 -0.751,-0.862 c 0.804,-0.699 1.595,-1.413 2.371,-2.145 l 0.784,0.833 c -0.787,0.741 -1.588,1.466 -2.404,2.174 z m 4.719,-4.444 -0.818,-0.8 c 0.746,-0.762 1.475,-1.539 2.187,-2.33 l 0.85,0.766 c -0.722,0.803 -1.462,1.591 -2.219,2.364 z m 4.336,-4.822 -0.884,-0.726 c 0.678,-0.823 1.336,-1.66 1.974,-2.51 l 0.915,0.686 c -0.648,0.863 -1.317,1.713 -2.005,2.55 z m 3.891,-5.196 -0.947,-0.641 c 0.599,-0.884 1.179,-1.787 1.725,-2.684 l 0.977,0.594 c -0.556,0.914 -1.146,1.832 -1.755,2.731 z m 3.371,-5.547 -1.007,-0.543 c 0.508,-0.944 0.992,-1.9 1.437,-2.844 l 1.034,0.487 c -0.452,0.963 -0.945,1.938 -1.464,2.9 z m -11.175,-2.056 -0.013,-1.144 c 1.055,-0.012 2.122,-0.064 3.173,-0.152 l 0.096,1.139 c -1.079,0.092 -2.174,0.145 -3.256,0.157 z m -3.26,-0.083 c -0.804,-0.051 -1.607,-0.124 -2.409,-0.22 -0.279,-0.032 -0.559,-0.07 -0.841,-0.113 l 0.17,-1.13 c 0.269,0.04 0.538,0.076 0.806,0.108 0.781,0.094 1.563,0.164 2.346,0.213 z m 9.75,-0.463 -0.178,-1.131 c 1.045,-0.164 2.094,-0.368 3.118,-0.605 l 0.258,1.115 c -1.051,0.243 -2.127,0.452 -3.198,0.621 z m -16.213,-0.544 c -1.065,-0.289 -2.113,-0.637 -3.116,-1.032 l 0.42,-1.064 c 0.964,0.38 1.972,0.714 2.995,0.992 z m 22.557,-0.924 -0.336,-1.093 c 1.009,-0.31 2.018,-0.66 3.001,-1.041 l 0.413,1.066 c -1.008,0.391 -2.044,0.751 -3.078,1.068 z m -28.654,-1.493 c -0.992,-0.537 -1.93,-1.128 -2.787,-1.756 l 0.676,-0.923 c 0.816,0.598 1.709,1.161 2.656,1.673 z m 29.762,-0.317 -1.061,-0.429 c 0.401,-0.994 0.773,-1.997 1.105,-2.984 l 1.084,0.364 c -0.339,1.008 -0.718,2.034 -1.128,3.049 z m 4.965,-0.543 -0.488,-1.034 c 0.959,-0.453 1.907,-0.944 2.821,-1.459 l 0.562,0.997 c -0.937,0.528 -1.911,1.031 -2.895,1.496 z m -40.017,-3.061 c -0.803,-0.824 -1.501,-1.7 -2.075,-2.603 l 0.965,-0.614 c 0.532,0.838 1.181,1.651 1.929,2.42 z m 45.689,-0.143 -0.633,-0.952 c 0.824,-0.548 1.633,-1.129 2.403,-1.727 l 0.174,-0.135 0.695,0.909 -0.119,0.091 c -0.842,0.654 -1.673,1.25 -2.52,1.814 z m -8.564,-2.413 -1.105,-0.299 c 0.277,-1.023 0.523,-2.065 0.733,-3.093 l 1.12,0.228 c -0.213,1.052 -0.465,2.117 -0.748,3.164 z m 13.699,-1.598 -0.77,-0.847 c 0.775,-0.705 1.538,-1.453 2.267,-2.222 l 0.83,0.786 c -0.748,0.79 -1.531,1.558 -2.327,2.283 z m -54.339,-1.475 c -0.35,-1.068 -0.554,-2.18 -0.606,-3.302 l 1.143,-0.054 c 0.047,1.02 0.232,2.03 0.55,3.001 z m 58.821,-3.253 -0.885,-0.724 c 0.667,-0.816 1.314,-1.667 1.922,-2.529 l 0.935,0.659 c -0.624,0.885 -1.287,1.758 -1.972,2.594 z m -16.887,-0.043 -1.133,-0.156 c 0.109,-0.797 0.199,-1.599 0.269,-2.405 0.021,-0.249 0.04,-0.5 0.056,-0.753 l 1.142,0.072 c -0.017,0.261 -0.036,0.522 -0.058,0.78 -0.071,0.825 -0.163,1.645 -0.276,2.462 z m -41.132,-3.103 -1.117,-0.248 c 0.235,-1.059 0.611,-2.12 1.116,-3.154 l 1.028,0.503 c -0.466,0.952 -0.811,1.927 -1.027,2.899 z m 61.774,-2.173 -0.98,-0.592 c 0.546,-0.904 1.066,-1.838 1.545,-2.776 l 1.019,0.521 c -0.491,0.961 -1.025,1.919 -1.584,2.847 z M 155.6,247.602 c -0.068,-1.106 -0.221,-2.14 -0.456,-3.076 l 1.109,-0.279 c 0.252,1.004 0.416,2.109 0.488,3.285 z m -37.675,-2.179 -0.912,-0.69 c 0.645,-0.851 1.388,-1.68 2.208,-2.462 l 0.79,0.829 c -0.776,0.739 -1.478,1.521 -2.086,2.323 z m 62.073,-2.44 -1.053,-0.447 c 0.41,-0.967 0.793,-1.966 1.134,-2.968 l 1.083,0.371 c -0.351,1.027 -0.743,2.051 -1.164,3.044 z m -25.971,-1.297 c -0.432,-0.752 -0.959,-1.42 -1.566,-1.984 -0.116,-0.109 -0.234,-0.212 -0.355,-0.312 l 0.726,-0.885 c 0.14,0.115 0.277,0.236 0.41,0.36 0.689,0.642 1.288,1.4 1.777,2.251 z m -31.599,-0.585 -0.665,-0.932 c 0.442,-0.315 0.893,-0.617 1.35,-0.902 0.471,-0.293 0.95,-0.572 1.437,-0.837 l 0.546,1.005 c -0.467,0.254 -0.927,0.522 -1.379,0.803 -0.437,0.273 -0.868,0.561 -1.289,0.863 z m 5.517,-3.016 -0.432,-1.059 c 1.005,-0.411 2.048,-0.771 3.098,-1.074 l 0.316,1.099 c -1.011,0.291 -2.015,0.64 -2.982,1.034 z m 21.542,-0.255 c -0.646,-0.279 -1.361,-0.533 -2.184,-0.776 -0.26,-0.077 -0.522,-0.15 -0.784,-0.219 l 0.294,-1.106 c 0.272,0.073 0.543,0.148 0.814,0.228 0.869,0.256 1.625,0.526 2.314,0.823 z m 32.614,-1.01 -1.107,-0.289 c 0.268,-1.024 0.5,-2.067 0.69,-3.099 l 1.125,0.207 c -0.194,1.059 -0.433,2.129 -0.708,3.181 z m -48.1,-0.478 -0.198,-1.126 c 1.07,-0.189 2.165,-0.322 3.253,-0.396 l 0.078,1.142 c -1.048,0.07 -2.102,0.199 -3.133,0.38 z m 9.43,-0.14 c -1.032,-0.152 -2.089,-0.25 -3.141,-0.29 l 0.044,-1.143 c 1.094,0.042 2.192,0.144 3.264,0.302 z m 39.844,-5.793 -1.137,-0.118 c 0.11,-1.055 0.177,-2.12 0.2,-3.164 l 1.144,0.025 c -0.024,1.075 -0.094,2.171 -0.207,3.257 z m -1.005,-6.449 c -0.07,-1.065 -0.189,-2.122 -0.354,-3.142 l 1.129,-0.183 c 0.171,1.056 0.294,2.15 0.366,3.251 z m -1.015,-6.232 c -0.276,-1.024 -0.609,-2.031 -0.989,-2.992 l 1.063,-0.421 c 0.396,1.002 0.742,2.05 1.03,3.116 z m -2.324,-5.839 c -0.483,-0.882 -1.022,-1.732 -1.6,-2.526 l -0.088,-0.12 0.919,-0.68 0.093,0.126 c 0.607,0.834 1.172,1.725 1.678,2.65 z m -3.714,-5.048 c -0.712,-0.742 -1.491,-1.459 -2.314,-2.131 l 0.724,-0.886 c 0.859,0.701 1.672,1.451 2.416,2.225 z m -4.863,-3.991 c -0.857,-0.56 -1.776,-1.099 -2.728,-1.603 l 0.534,-1.011 c 0.983,0.52 1.932,1.076 2.819,1.655 z m -5.59,-2.966 c -0.94,-0.404 -1.936,-0.792 -2.963,-1.151 l 0.379,-1.079 c 1.051,0.368 2.072,0.765 3.036,1.179 z m -5.999,-2.114 c -0.998,-0.285 -2.038,-0.553 -3.089,-0.796 l 0.258,-1.115 c 1.07,0.247 2.129,0.52 3.145,0.811 z m -47.682,-0.419 -0.004,-1.144 c 0.98,0 2.009,-0.06 3.149,-0.184 l 0.124,1.137 c -1.181,0.129 -2.251,0.191 -3.269,0.191 z m -3.304,-0.256 c -1.113,-0.189 -2.193,-0.489 -3.211,-0.891 l 0.42,-1.064 c 0.944,0.372 1.947,0.651 2.981,0.826 z m 9.791,-0.39 -0.188,-1.128 c 0.681,-0.113 1.362,-0.234 2.043,-0.354 l 1.124,-0.197 0.196,1.127 -1.12,0.197 c -0.685,0.12 -1.369,0.241 -2.055,0.355 z m 34.979,-0.382 c -1.047,-0.197 -2.099,-0.374 -3.152,-0.533 l 0.17,-1.132 c 1.068,0.161 2.132,0.341 3.193,0.541 z m -28.644,-0.67 -0.159,-1.133 c 1.069,-0.15 2.141,-0.28 3.215,-0.391 l 0.117,1.138 c -1.059,0.11 -2.118,0.238 -3.173,0.386 z m 22.322,-0.283 c -1.059,-0.12 -2.12,-0.222 -3.183,-0.304 l 0.088,-1.141 c 1.077,0.083 2.152,0.186 3.225,0.308 z m -15.962,-0.372 -0.076,-1.142 c 1.077,-0.072 2.156,-0.124 3.235,-0.158 l 0.035,1.144 c -1.066,0.033 -2.131,0.085 -3.194,0.156 z m 9.587,-0.121 c -1.065,-0.043 -2.131,-0.069 -3.197,-0.075 l 0.007,-1.144 c 1.08,0.006 2.159,0.031 3.237,0.076 z m -38.233,-0.261 c -0.959,-0.685 -1.775,-1.478 -2.427,-2.356 l 0.918,-0.681 c 0.581,0.782 1.313,1.492 2.173,2.107 z m -3.93,-5.411 c -0.235,-0.828 -0.353,-1.693 -0.353,-2.569 0,-0.273 0.011,-0.546 0.034,-0.819 l 1.141,0.094 c -0.02,0.242 -0.03,0.484 -0.03,0.725 0,0.771 0.104,1.531 0.309,2.259 z m 1.522,-6.257 -1.067,-0.412 c 0.384,-0.992 0.903,-1.986 1.543,-2.955 l 0.954,0.63 c -0.595,0.901 -1.076,1.822 -1.43,2.737 z m 3.369,-5.179 -0.835,-0.783 c 0.749,-0.797 1.569,-1.547 2.438,-2.229 l 0.706,0.9 c -0.823,0.647 -1.6,1.357 -2.309,2.112 z m 4.913,-3.849 -0.565,-0.995 c 0.974,-0.553 1.976,-1.03 2.977,-1.42 l 0.414,1.066 c -0.949,0.368 -1.9,0.822 -2.826,1.349 z m 5.813,-2.229 -0.22,-1.123 c 1.146,-0.225 2.264,-0.32 3.332,-0.278 l -0.045,1.143 c -0.983,-0.036 -2.008,0.049 -3.067,0.258 z"
   id="path130" />
				<path
   style="fill:#ffffff"
   d="m 120.876,172.709 c -0.436,-0.258 -0.897,-0.479 -1.373,-0.66 l 0.407,-1.069 c 0.536,0.203 1.057,0.454 1.548,0.745 z"
   id="path131" />
			</g>
			<path
   style="opacity:0.3;fill:#262320"
   d="m 322.84,281.368 c -0.932,5.851 -12.658,8.846 -26.191,6.69 -13.533,-2.156 -23.747,-8.647 -22.815,-14.498 0.932,-5.851 12.658,-8.846 26.191,-6.69 13.533,2.156 23.748,8.647 22.815,14.498 z"
   id="path132" />
			<ellipse
   style="opacity:0.3;fill:#262320"
   cx="607.073"
   cy="318.55301"
   rx="17.795"
   ry="6.8639998"
   id="ellipse132" />
			<polygon
   style="opacity:0.5;fill:#262320"
   points="73.057,349.748 26.311,355.786 26.841,343.71 "
   id="polygon132" />
			<polygon
   style="opacity:0.3;fill:#262320"
   points="377.616,285.106 388.401,291.85 411.39,295.894 441.006,276.332 400.075,285.123 393.551,281.066 "
   id="polygon133" />
		</g>
	</g>
	<g
   id="g138">
		<rect
   x="35.818001"
   y="376.242"
   style="fill:none"
   width="396.94199"
   height="35.598"
   id="rect134" />
		
		
	</g>
</g>

</svg>
